<svg width="22" height="23" viewBox="0 0 22 23" fill="none" xmlns="http://www.w3.org/2000/svg">
<g filter="url(#filter0_d_2783_305)">
<path d="M10.1644 20.5C4.65056 20.5 0.164795 16.0142 0.164795 10.5C0.164795 4.98576 4.65056 0.500354 10.1644 0.500354C10.2897 0.496912 10.4144 0.518617 10.5312 0.564185C10.648 0.609754 10.7544 0.67826 10.8442 0.765661C10.9341 0.853061 11.0055 0.957582 11.0542 1.07305C11.103 1.18851 11.1281 1.31257 11.1281 1.43791C11.1281 1.56325 11.103 1.68731 11.0542 1.80277C11.0055 1.91824 10.9341 2.02276 10.8442 2.11016C10.7544 2.19756 10.648 2.26606 10.5312 2.31163C10.4144 2.3572 10.2897 2.37891 10.1644 2.37546C5.68505 2.37546 2.04061 6.01955 2.04061 10.4993C2.04061 14.979 5.6847 18.6235 10.1644 18.6235C14.6442 18.6235 18.2886 14.9794 18.2886 10.4993C18.2953 10.2551 18.3971 10.0232 18.5721 9.85281C18.7472 9.68246 18.9819 9.58714 19.2262 9.58714C19.4705 9.58714 19.7051 9.68246 19.8802 9.85281C20.0553 10.0232 20.157 10.2551 20.1637 10.4993C20.1644 16.0142 15.6783 20.5 10.1644 20.5Z" fill="#EE9B26"/>
<path d="M19.6543 3.13539C16.359 6.21341 13.7859 9.99901 12.1705 14.1274C12.0506 14.4355 11.8585 14.7103 11.6105 14.9288C11.3625 15.1473 11.0657 15.3032 10.745 15.3834L10.7196 15.3898C10.2922 15.4975 9.84174 15.4667 9.43302 15.3019C9.0243 15.1371 8.67847 14.8467 8.44537 14.4727C7.35274 12.7271 6.09705 11.089 4.69515 9.58047C4.34949 9.21111 4.33959 8.70164 4.81296 8.38924C5.86692 7.69368 7.20142 8.00891 8.18568 9.06357C8.69161 9.60559 9.34895 10.3326 9.82941 10.8973C11.9253 8.0082 14.6591 4.95673 17.4088 2.62947C17.6877 2.39362 18.0229 2.23386 18.3818 2.16568C18.7407 2.09749 19.1112 2.1232 19.4572 2.2403C19.545 2.26935 19.6236 2.32071 19.6855 2.38935C19.7474 2.45799 19.7904 2.54153 19.8103 2.6318C19.8302 2.72206 19.8263 2.81594 19.7989 2.90423C19.7715 2.99252 19.7217 3.07218 19.6543 3.13539Z" fill="#EE9B26"/>
</g>
<defs>
<filter id="filter0_d_2783_305" x="0.164795" y="0.5" width="20.9989" height="22" filterUnits="userSpaceOnUse" color-interpolation-filters="sRGB">
<feFlood flood-opacity="0" result="BackgroundImageFix"/>
<feColorMatrix in="SourceAlpha" type="matrix" values="0 0 0 0 0 0 0 0 0 0 0 0 0 0 0 0 0 0 127 0" result="hardAlpha"/>
<feOffset dx="1" dy="2"/>
<feComposite in2="hardAlpha" operator="out"/>
<feColorMatrix type="matrix" values="0 0 0 0 0.695833 0 0 0 0 0.407063 0 0 0 0 0 0 0 0 1 0"/>
<feBlend mode="normal" in2="BackgroundImageFix" result="effect1_dropShadow_2783_305"/>
<feBlend mode="normal" in="SourceGraphic" in2="effect1_dropShadow_2783_305" result="shape"/>
</filter>
</defs>
</svg>
