<svg width="75" height="28" viewBox="0 0 75 28" fill="none" xmlns="http://www.w3.org/2000/svg">
<path d="M13.8472 18.468C13.4739 18.468 13.1006 18.328 12.8206 18.048L12.0623 17.2897C11.7239 16.9514 11.7239 16.3914 12.0623 16.053C12.4006 15.7147 12.9606 15.7147 13.2989 16.053L13.8589 16.613L15.7372 14.8864C16.0872 14.5597 16.6472 14.583 16.9739 14.933C17.3006 15.283 17.2772 15.843 16.9272 16.1697L14.8506 18.083C14.5589 18.3397 14.2089 18.468 13.8472 18.468Z" fill="white"/>
<path d="M19.1672 26.5417H9.83392C4.44392 26.5417 3.44059 24.0334 3.18392 21.5951L2.30892 12.2501C2.18059 11.0251 2.14559 9.21672 3.35892 7.86339C4.40892 6.69672 6.14726 6.13672 8.66726 6.13672H20.3339C22.8656 6.13672 24.6039 6.70838 25.6422 7.86339C26.8556 9.21672 26.8206 11.0251 26.6922 12.2617L25.8172 21.5834C25.5606 24.0334 24.5572 26.5417 19.1672 26.5417ZM8.66726 7.87505C6.69559 7.87505 5.34226 8.26005 4.65392 9.03005C4.08226 9.66005 3.89559 10.6284 4.04726 12.0751L4.92226 21.4201C5.12059 23.2634 5.62226 24.7917 9.83392 24.7917H19.1672C23.3672 24.7917 23.8806 23.2634 24.0789 21.4084L24.9539 12.0867C25.1056 10.6284 24.9189 9.66005 24.3472 9.03005C23.6589 8.26005 22.3056 7.87505 20.3339 7.87505H8.66726Z" fill="white"/>
<path d="M19.1672 7.87467C18.6889 7.87467 18.2922 7.47801 18.2922 6.99967V6.06634C18.2922 3.98967 18.2922 3.20801 15.4339 3.20801H13.5672C10.7089 3.20801 10.7089 3.98967 10.7089 6.06634V6.99967C10.7089 7.47801 10.3123 7.87467 9.83392 7.87467C9.35559 7.87467 8.95892 7.47801 8.95892 6.99967V6.06634C8.95892 4.01301 8.95892 1.45801 13.5672 1.45801H15.4339C20.0422 1.45801 20.0422 4.01301 20.0422 6.06634V6.99967C20.0422 7.47801 19.6456 7.87467 19.1672 7.87467Z" fill="white"/>
<path d="M19.1789 16.7881C18.7822 16.7881 18.4322 16.5198 18.3272 16.1231C18.2106 15.6564 18.4906 15.1781 18.9572 15.0614C21.2322 14.4898 23.3439 13.4981 25.2339 12.1214C25.6189 11.8414 26.1672 11.9231 26.4589 12.3198C26.7389 12.7048 26.6572 13.2531 26.2606 13.5448C24.1839 15.0498 21.8739 16.1348 19.3772 16.7648C19.3189 16.7764 19.2489 16.7881 19.1789 16.7881Z" fill="white"/>
<path d="M9.83418 16.8233C9.76418 16.8233 9.69418 16.8117 9.62418 16.8C7.27918 16.2283 5.07418 15.2367 3.05584 13.86C2.65918 13.5917 2.55418 13.0433 2.82251 12.6467C3.09084 12.25 3.63918 12.145 4.03584 12.4133C5.87918 13.6733 7.88584 14.5717 10.0325 15.0967C10.4992 15.2133 10.7908 15.68 10.6742 16.1583C10.5925 16.555 10.2308 16.8233 9.83418 16.8233Z" fill="white"/>
<path d="M45.6733 6.95455H48.2869V17.1818C48.2822 18.1193 48.0833 18.9266 47.6903 19.6037C47.2973 20.276 46.7481 20.7945 46.0426 21.1591C45.3419 21.5189 44.5251 21.6989 43.5923 21.6989C42.7401 21.6989 41.973 21.5473 41.2912 21.2443C40.6141 20.9366 40.0767 20.482 39.679 19.8807C39.2813 19.2794 39.0824 18.5312 39.0824 17.6364H41.7031C41.7079 18.0294 41.7931 18.3679 41.9588 18.652C42.1293 18.9361 42.3636 19.1539 42.6619 19.3054C42.9602 19.4569 43.3035 19.5327 43.6918 19.5327C44.1132 19.5327 44.4706 19.4451 44.7642 19.2699C45.0578 19.09 45.2803 18.8248 45.4318 18.4744C45.5881 18.1241 45.6686 17.6932 45.6733 17.1818V6.95455ZM55.7905 21.7131C54.7251 21.7131 53.8018 21.4787 53.0206 21.0099C52.2393 20.5412 51.6333 19.8854 51.2024 19.0426C50.7763 18.1998 50.5632 17.215 50.5632 16.0881C50.5632 14.9612 50.7763 13.974 51.2024 13.1264C51.6333 12.2789 52.2393 11.6207 53.0206 11.152C53.8018 10.6832 54.7251 10.4489 55.7905 10.4489C56.8558 10.4489 57.7791 10.6832 58.5604 11.152C59.3416 11.6207 59.9453 12.2789 60.3714 13.1264C60.8023 13.974 61.0178 14.9612 61.0178 16.0881C61.0178 17.215 60.8023 18.1998 60.3714 19.0426C59.9453 19.8854 59.3416 20.5412 58.5604 21.0099C57.7791 21.4787 56.8558 21.7131 55.7905 21.7131ZM55.8047 19.6534C56.3823 19.6534 56.8653 19.4948 57.2536 19.1776C57.6418 18.8556 57.9306 18.4247 58.12 17.8849C58.3142 17.3452 58.4112 16.7438 58.4112 16.081C58.4112 15.4134 58.3142 14.8097 58.12 14.2699C57.9306 13.7254 57.6418 13.2921 57.2536 12.9702C56.8653 12.6482 56.3823 12.4872 55.8047 12.4872C55.2128 12.4872 54.7204 12.6482 54.3274 12.9702C53.9392 13.2921 53.648 13.7254 53.4538 14.2699C53.2644 14.8097 53.1697 15.4134 53.1697 16.081C53.1697 16.7438 53.2644 17.3452 53.4538 17.8849C53.648 18.4247 53.9392 18.8556 54.3274 19.1776C54.7204 19.4948 55.2128 19.6534 55.8047 19.6534ZM63.3136 21.5V6.95455H65.8846V12.3949H65.9911C66.1237 12.1297 66.3107 11.848 66.5522 11.5497C66.7937 11.2467 67.1204 10.9886 67.5323 10.7756C67.9442 10.5578 68.4698 10.4489 69.109 10.4489C69.9518 10.4489 70.7118 10.6643 71.3888 11.0952C72.0707 11.5213 72.6104 12.1534 73.0082 12.9915C73.4106 13.8248 73.6119 14.8475 73.6119 16.0597C73.6119 17.2576 73.4154 18.2756 73.0224 19.1136C72.6294 19.9517 72.0943 20.5909 71.4173 21.0312C70.7402 21.4716 69.9731 21.6918 69.1161 21.6918C68.4911 21.6918 67.9727 21.5876 67.5607 21.3793C67.1488 21.1709 66.8174 20.92 66.5664 20.6264C66.3202 20.3281 66.1284 20.0464 65.9911 19.7812H65.842V21.5H63.3136ZM65.8349 16.0455C65.8349 16.7509 65.9343 17.3688 66.1332 17.8991C66.3368 18.4295 66.628 18.8437 67.0067 19.142C67.3903 19.4356 67.8543 19.5824 68.3988 19.5824C68.967 19.5824 69.4428 19.4309 69.8263 19.1278C70.2099 18.8201 70.4987 18.401 70.6928 17.8707C70.8917 17.3357 70.9911 16.7273 70.9911 16.0455C70.9911 15.3684 70.8941 14.767 70.6999 14.2415C70.5058 13.7159 70.217 13.304 69.8335 13.0057C69.4499 12.7074 68.9717 12.5582 68.3988 12.5582C67.8496 12.5582 67.3832 12.7027 66.9996 12.9915C66.6161 13.2803 66.3249 13.6851 66.1261 14.206C65.9319 14.7268 65.8349 15.34 65.8349 16.0455Z" fill="white"/>
</svg>
