<svg width="668" height="694" viewBox="0 0 668 694" fill="none" xmlns="http://www.w3.org/2000/svg">
<g opacity="0.6">
<path d="M697.338 327.928C697.453 334.116 695.462 341.549 690.823 351.482C678.233 377.851 639.458 405.372 598.451 434.431C575.932 450.432 552.641 466.945 533.609 483.462C499.119 507.705 475.795 548.151 453.187 587.295C436.684 615.897 421.063 642.903 401.551 663.958L401.508 664C386.331 679.822 371.521 687.37 356.261 687.073C326.48 686.506 299.399 655.975 268.055 620.58L265.036 617.187C241.686 590.949 210.476 558.044 163.91 510.426L160.097 506.384C119.839 463.759 69.7377 410.682 38.6725 341.295C-32.8897 202.489 18.2184 78.8868 75.3665 39.0982C142.259 -2.5341 214.14 -0.384991 350.237 47.266C492.112 97.1773 603.203 211.522 644.365 258.368C658.023 277.599 670.024 289.59 678.793 298.318C689.865 309.412 697.127 316.631 697.338 327.928ZM397.312 660.381C416.399 639.791 431.85 613.037 448.228 584.728C471.089 545.122 494.749 504.13 530.012 479.375C549.044 462.816 572.464 446.217 595.069 430.173C635.474 401.5 673.649 374.405 685.655 349.335C697.145 324.566 691.476 318.897 674.646 302.051C665.745 293.16 653.522 280.965 639.775 261.611C599.058 215.339 488.809 101.809 348.202 52.3312C214.073 5.34986 143.493 3.05182 78.4913 43.527C23.0602 82.1617 -26.4938 202.868 43.7154 339.04C74.5068 407.726 124.253 460.436 164.202 502.776L168.014 506.777C214.624 554.435 245.879 587.381 269.274 613.701L272.293 617.094C302.749 651.509 329.075 681.181 356.291 681.712C369.899 681.957 383.286 674.977 397.312 660.381Z" fill="#A7CEFC"/>
<path d="M650.865 341.474C651.024 350.03 648.326 359.138 643.475 371.693L643.393 371.944C631.283 396.101 601.355 415.605 569.708 436.222C548.066 450.294 525.739 464.879 506.375 482.275C474.89 506.877 450.602 537.535 427.121 567.139C411.368 587.044 396.464 605.852 379.908 622.323L379.566 622.62C333.301 656.389 312.181 633.184 273.802 591.106C269.631 586.53 265.239 581.709 260.538 576.687C252.574 566.781 243.685 556.227 234.262 545.019C192.349 495.237 134.968 427.006 87.6138 330.127C37.5515 211.57 70.413 118.637 125.175 79.0596C182.281 39.3549 252.161 53.0501 369.232 94.2837C487.684 139.646 565.421 225.031 607.174 270.91L611.833 276.017C639.416 310.195 650.555 324.861 650.865 341.474ZM638.223 369.713C651.404 335.44 647.995 329.728 607.506 279.421L602.98 274.437C561.539 228.926 484.379 144.195 367.283 99.3058C252.18 58.7418 183.605 45.1053 128.601 83.3582C75.5978 121.657 43.9512 212.157 92.832 327.952C139.826 424.131 196.983 492.035 238.676 541.654C248.098 552.863 256.988 563.416 264.907 573.24C269.475 578.14 273.867 582.961 278.082 587.536C316.505 629.655 334.075 648.938 376.011 618.449C392.267 602.233 407.001 583.594 422.627 563.899C446.277 534.001 470.778 503.131 502.649 478.231C522.183 460.666 544.726 445.953 566.539 431.752C597.455 411.606 626.697 392.53 638.223 369.713Z" fill="#A7CEFC"/>
<path d="M618.158 349.395C618.361 360.318 614.466 370.529 607.751 383.284C594.85 404.631 567.664 422.09 538.934 440.575C521.841 451.53 504.19 462.911 488.047 475.842C462.656 493.974 441.063 515.317 420.151 535.899C402.995 552.796 386.821 568.762 370.063 581.414L369.806 581.585C326.218 607.41 305.186 581.959 266.99 535.723L266.546 535.191L260.171 526.627C224.014 477.859 174.483 411.06 137.779 318.969C99.1984 210.168 135.132 139.781 177.563 112.524C222.827 83.3852 284.433 89.1744 390.2 132.489C463.934 164.102 530.672 216.703 588.56 288.789C609.16 316.699 617.866 333.778 618.158 349.395ZM366.637 577.115C383.05 564.677 399.097 548.881 416.039 532.153C437.078 511.402 458.886 489.931 484.491 471.629C500.719 458.571 518.543 447.145 535.765 436.105C563.981 418.004 590.608 400.888 602.792 380.718C618.157 351.68 617.585 337.357 584.013 291.99C526.705 220.682 460.716 168.649 387.901 137.434C284.15 94.9548 224.106 89.0118 180.645 116.995C136.625 145.279 107.908 218.108 143.004 317.168C179.433 408.517 228.698 474.988 264.72 523.509L271.361 532.401C309.824 578.965 327.432 600.283 366.637 577.115Z" fill="#A7CEFC"/>
<path d="M588.337 353.856C588.564 366.067 584.39 377.612 576.027 390.565L575.985 390.648C562.528 410.178 536.837 426.196 509.686 443.155C497.098 450.993 484.125 459.129 471.772 467.919C453.651 479.682 436.943 492.666 420.836 505.223C401.044 520.633 382.324 535.233 364.077 544.88C325.495 561.845 304.719 538.467 274.975 497.972C246.816 456.202 206.582 391.598 182.062 311.951C164.17 235.796 176.309 178.275 216.197 149.818C259.172 119.102 328.347 125.249 406.002 166.678C497.295 209.888 551.666 279.879 566.129 300.3C580.79 322.047 588.05 338.489 588.337 353.856ZM571.237 387.746C586.822 363.523 589.339 344.697 561.404 303.296C547.165 283.203 493.505 214.113 403.354 171.463C327.63 131.079 260.669 124.766 219.581 154.159C181.581 181.292 170.231 236.846 187.558 310.644C211.845 389.464 251.766 453.617 279.701 495.017C310.293 536.701 328.362 554.77 361.598 540.148C379.199 530.804 397.705 516.374 417.326 501.092C433.561 488.45 450.311 475.382 468.562 463.574C480.914 454.744 494.018 446.605 506.648 438.725C533.239 422.025 558.414 406.307 571.237 387.746Z" fill="#A7CEFC"/>
<path d="M561.096 356.566C561.338 369.525 556.912 381.532 547.845 394.082L547.547 394.42C498.251 442.746 384.381 500.918 362.077 512.095L361.559 512.27C329.478 521.262 310.182 502.676 285.798 465.281C264.193 430.036 235.511 374.273 221.377 308.559C210.252 248.024 222.872 202.294 256.916 179.721C294.738 154.669 353.051 161.018 416.916 197.095C478.439 228.77 523.178 276.297 544.499 310.218C555.347 327.964 560.84 342.819 561.096 356.566ZM543.351 390.842C560.592 366.797 559.589 345.668 539.64 313.009C518.722 279.704 474.738 233.035 414.135 201.8C353.037 167.292 295.502 160.72 260.127 184.149C227.972 205.439 216.143 249.285 226.921 307.542C240.91 372.469 269.319 427.613 290.657 462.489C313.968 498.284 331.1 515.041 359.769 507.193C423.84 475.087 505.62 427.734 543.351 390.842Z" fill="#A7CEFC"/>
<path d="M535.982 359.281C536.241 373.153 531.642 385.246 522.471 394.516C486.264 431.587 409.159 470.917 362.576 482.963C351.792 484.992 341.186 482.572 330.978 475.866C299.517 455.18 271.536 392.674 256.147 308.619C250.437 261.153 263.114 225.435 291.863 207.947C324.437 188.145 372.487 194.145 423.64 224.394C488.393 263.778 530.138 311.568 535.416 352.228C535.765 354.632 535.94 356.997 535.982 359.281ZM260.45 290.009C260.557 295.74 260.972 301.674 261.738 307.809C276.837 390.29 303.925 451.525 334.197 471.36C343.173 477.259 352.296 479.374 361.347 477.667C406.978 465.848 482.836 427.206 518.403 390.77C527.872 381.162 531.843 368.042 529.865 352.872C524.79 313.787 483.984 267.433 420.682 228.936C372.166 200.259 325.156 194.073 294.903 212.461C271.74 226.562 259.774 253.75 260.45 290.009Z" fill="#A7CEFC"/>
<path d="M512.064 358.438C512.304 371.313 508.171 382.733 499.907 391.737C470.562 423.86 407.805 454.239 365.65 456.687L365.563 456.689C326.683 457.622 293.597 396.416 286.966 311.201C285.376 274.876 297.559 247.684 321.392 234.568C348.709 219.516 387.097 224.783 426.751 249.014C474.943 278.985 506.597 317.034 511.444 350.846C511.797 353.457 512.018 355.987 512.064 358.438ZM365.376 451.291C406.271 448.867 467.175 419.395 495.668 388.16C504.4 378.648 507.903 366.036 505.852 351.615C501.208 319.336 470.492 282.682 423.663 253.558C385.855 230.457 349.555 225.234 324.131 239.253C302.234 251.336 290.974 276.724 292.524 310.889C298.855 391.706 330.188 452.114 365.376 451.291Z" fill="#A7CEFC"/>
<path d="M489.392 356.989C489.602 368.245 486.184 378.363 479.253 386.594C455.063 415.505 405.39 436.666 370.724 432.867C337.442 428.668 312.667 377.32 314.264 316.132C315.371 289.272 326.559 269.286 345.722 259.788C367.684 248.908 397.186 253.136 426.603 271.45C461.037 293.077 484.22 322.019 488.632 348.86C489.118 351.634 489.343 354.331 489.392 356.989ZM319.875 325.708C320.887 379.951 342.698 423.875 371.45 427.494C403.808 431.045 452.142 410.366 474.887 383.227C482.37 374.279 485.196 362.718 483.085 349.711C478.917 324.32 456.629 296.774 423.515 275.953C395.856 258.728 368.442 254.586 348.288 264.56C331.02 273.108 320.932 291.495 319.873 316.277C319.845 319.435 319.817 322.593 319.875 325.708Z" fill="#A7CEFC"/>
<path d="M467.717 355.237C467.886 364.291 465.302 372.566 460.087 379.56C441.981 403.788 404.911 417.899 377.445 411.016C350.282 404.003 333.304 365.264 338.773 322.908C341.334 304.123 350.81 290.193 365.465 283.688C382.06 276.315 403.327 279.409 423.818 292.155C447.212 306.801 462.882 326.742 466.778 346.862C467.352 349.676 467.666 352.496 467.717 355.237ZM378.912 405.795C403.846 412.061 438.929 398.61 455.509 376.446C461.403 368.567 463.391 358.683 461.277 347.837C457.674 329.415 442.539 310.253 420.772 296.616C401.952 284.918 382.688 281.996 367.859 288.546C355.014 294.228 346.684 306.682 344.391 323.551C339.297 362.66 354.806 399.556 378.912 405.795Z" fill="#A7CEFC"/>
<path d="M446.732 353.341C446.849 359.612 445.268 365.708 441.717 371.092C430.014 389.093 404.623 397.876 385.149 390.719C365.762 383.519 354.875 356.758 360.914 331.01C363.691 319.117 370.872 310.341 381.054 306.287C392.271 301.84 406.04 303.744 418.788 311.483C436.285 322.167 446.452 338.306 446.732 353.341ZM436.971 368.272C447.069 352.753 437.592 329.33 415.787 316.026C404.621 309.255 392.724 307.482 383.233 311.274C374.777 314.631 368.788 322.055 366.412 332.195C360.979 355.439 370.293 379.446 387.185 385.695C404.296 391.982 426.62 384.17 436.971 368.272Z" fill="#A7CEFC"/>
<path d="M426.146 351.813C426.21 355.218 425.446 358.556 423.765 361.621C418.006 372.115 404.399 376.565 393.396 371.494C382.524 366.503 377.088 352.354 381.291 340.019C383.31 334.081 387.487 329.683 393.1 327.708C399.015 325.604 405.985 326.429 412.179 330.011C420.924 335.125 425.992 343.548 426.146 351.813ZM385.505 349.247C385.646 356.764 389.558 363.796 395.871 366.711C404.156 370.504 414.437 367.155 418.765 359.18C423.137 351.246 418.846 340.232 409.224 334.678C404.435 331.901 399.425 331.246 395.021 332.824C391.049 334.228 388.066 337.4 386.582 341.748C385.803 344.214 385.459 346.755 385.505 349.247Z" fill="#A7CEFC"/>
</g>
</svg>
