<svg width="41" height="41" viewBox="0 0 41 41" fill="none" xmlns="http://www.w3.org/2000/svg">
<g clip-path="url(#clip0_2783_435)">
<path d="M25.469 31.4312L20.5271 34.2551L15.5853 31.4312C10.8117 28.7034 7.86572 23.6269 7.86572 18.1289V4.71879L20.5272 1.69678L33.1887 4.71879V18.129C33.1886 23.6269 30.2426 28.7034 25.469 31.4312Z" stroke="#2A6799" stroke-width="2" stroke-miterlimit="10"/>
<path d="M15.6291 31.475L10.1869 38.4298L7.54164 33.8919L2.53894 32.2911L9.17969 24.219" stroke="#2A6799" stroke-width="2" stroke-miterlimit="10"/>
<path d="M25.3992 31.5011L30.815 38.4297L33.4603 33.8919L38.4631 32.2911L31.9032 24.2998" stroke="#2A6799" stroke-width="2" stroke-miterlimit="10"/>
<path d="M20.5271 10.1853L22.938 13.4861L26.8221 14.7589L24.4279 18.0717L24.4176 22.1591L20.5271 20.9058L16.6366 22.1591L16.6264 18.0717L14.2322 14.7589L18.1163 13.4861L20.5271 10.1853Z" stroke="#2A6799" stroke-width="2" stroke-miterlimit="10"/>
</g>
<defs>
<clipPath id="clip0_2783_435">
<rect width="40" height="40" fill="white" transform="translate(0.5 0.5)"/>
</clipPath>
</defs>
</svg>
