<svg width="41" height="41" viewBox="0 0 41 41" fill="none" xmlns="http://www.w3.org/2000/svg">
<g clip-path="url(#clip0_2783_401)">
<path d="M20.5 7.90601L22.8076 12.5817L27.9675 13.3315L24.2338 16.971L25.1152 22.11L20.5 19.6837L15.8848 22.11L16.7662 16.971L13.0325 13.3315L18.1924 12.5817L20.5 7.90601Z" stroke="#2A6799" stroke-width="2" stroke-miterlimit="10"/>
<path d="M20.5 29.7509C28.2283 29.7509 34.4933 23.4859 34.4933 15.7577C34.4933 8.02941 28.2283 1.7644 20.5 1.7644C12.7717 1.7644 6.50671 8.02941 6.50671 15.7577C6.50671 23.4859 12.7717 29.7509 20.5 29.7509Z" stroke="#2A6799" stroke-width="2" stroke-miterlimit="10"/>
<path d="M16.5602 29.1878L10.5362 37.479L9.4467 31.1268L3.06873 32.0536L9.05621 23.8125" stroke="#2A6799" stroke-width="2" stroke-miterlimit="10"/>
<path d="M24.4399 29.1878L30.4638 37.479L31.5534 31.1268L37.9313 32.0536L31.9438 23.8125" stroke="#2A6799" stroke-width="2" stroke-miterlimit="10"/>
</g>
<defs>
<clipPath id="clip0_2783_401">
<rect width="40" height="40" fill="white" transform="translate(0.5 0.5)"/>
</clipPath>
</defs>
</svg>
