<svg width="341" height="37" viewBox="0 0 341 37" fill="none" xmlns="http://www.w3.org/2000/svg">
<path d="M320.65 19.6015C320.183 19.632 319.711 19.6529 319.253 19.6986C318.956 19.7272 318.828 19.6434 318.63 19.5996C318.564 19.5844 318.493 19.5539 318.432 19.5577C317.969 19.5882 317.507 19.6224 317.044 19.6567C316.902 19.731 316.813 19.8301 316.596 19.8663C316.383 19.9006 316.133 19.9006 315.897 19.9177C315.586 19.9387 315.274 19.9597 314.962 19.9787C314.807 19.9882 314.679 20.0244 314.627 20.093C314.618 20.1044 314.722 20.133 314.778 20.1501C314.967 20.2073 315.151 20.2721 315.359 20.3159C315.557 20.3578 315.803 20.2892 316.015 20.3426C316.492 20.4626 316.496 20.4607 316.86 20.4378C317.171 20.4169 317.483 20.394 317.794 20.3788C317.856 20.375 317.927 20.4035 317.993 20.4188C318.191 20.4607 318.318 20.5559 318.611 20.5197C318.833 20.4912 319.078 20.4854 319.31 20.4702C319.503 20.5255 319.682 20.5883 319.89 20.6321C320.084 20.674 320.14 20.7064 320.036 20.7617C319.942 20.8131 319.81 20.8341 319.635 20.8379C319.479 20.8398 319.324 20.8569 319.168 20.8665C319.088 20.8722 319.012 20.876 318.937 20.8817C318.639 20.9027 318.639 20.9027 318.096 20.7807C317.884 20.7331 317.643 20.7998 317.44 20.7541C317.304 20.7236 317.186 20.6779 317.053 20.6455C316.997 20.6321 316.907 20.6302 316.836 20.634C316.6 20.6474 316.364 20.6569 316.138 20.6817C315.977 20.6988 315.883 20.7522 315.902 20.8055C315.906 20.8265 316.02 20.8569 316.086 20.8589C316.237 20.8627 316.397 20.836 316.544 20.8493C316.685 20.8627 316.832 20.9008 316.935 20.9427C317.148 21.0303 317.388 20.9522 317.591 20.9751C317.804 20.9998 317.978 21.076 318.181 21.1218C318.233 21.1332 318.332 21.1141 318.413 21.1084C318.644 21.0951 318.875 21.0836 319.107 21.0703C319.3 21.1256 319.508 21.1751 319.682 21.238C319.999 21.3523 320.339 21.3961 320.749 21.3408C320.98 21.3103 321.207 21.3218 321.391 21.3961C321.58 21.4723 321.797 21.4647 322.038 21.4494C322.26 21.4342 322.486 21.3923 322.713 21.4456C323.204 21.5637 323.208 21.5694 323.789 21.5237C323.964 21.5104 324.096 21.5066 324.228 21.5504C324.351 21.5904 324.483 21.6247 324.61 21.6628C324.841 21.6495 325.077 21.6361 325.309 21.6209C325.606 21.5999 325.771 21.6266 325.842 21.7333C325.884 21.798 325.903 21.8571 326.007 21.9009C326.13 21.9543 326.262 21.9523 326.441 21.9371C326.611 21.9238 326.734 21.9028 326.805 21.8342C326.833 21.8057 326.89 21.779 326.942 21.7561C326.984 21.739 327.05 21.7123 327.088 21.7161C327.159 21.7238 327.253 21.7447 327.277 21.7695C327.508 22 327.508 22.0019 327.744 22.0686C328.004 22.1429 328.273 22.2095 328.509 22.2934C328.721 22.3677 328.934 22.3353 329.165 22.3353C329.34 22.3353 329.453 22.3848 329.439 22.4344C329.429 22.4629 329.363 22.5048 329.307 22.5086C328.844 22.5467 328.377 22.5791 327.909 22.6058C327.853 22.6096 327.782 22.5753 327.716 22.5582C327.584 22.5239 327.466 22.4705 327.324 22.4591C327.183 22.4477 327.017 22.4762 326.862 22.4858C326.706 22.4953 326.541 22.5201 326.399 22.5048C326.257 22.4896 326.144 22.4343 326.012 22.3981C325.951 22.381 325.866 22.3562 325.814 22.362C325.469 22.4077 325.214 22.3448 324.969 22.261C324.917 22.2438 324.827 22.2324 324.761 22.2362C324.214 22.2686 323.671 22.3067 323.123 22.3429C322.902 22.3581 322.722 22.2915 322.675 22.1791C322.651 22.1162 322.604 22.0533 322.604 21.9905C322.604 21.8762 322.345 21.8133 322.156 21.8266C321.844 21.8457 321.528 21.8609 321.221 21.8895C320.971 21.9123 320.759 21.8895 320.589 21.8209C320.39 21.7428 320.164 21.758 319.937 21.779C319.767 21.7942 319.72 21.8571 319.73 22.0152C319.739 22.1429 319.659 22.1829 319.352 22.2038C318.965 22.2305 318.573 22.2572 318.181 22.2781C318.12 22.2819 318.049 22.2495 317.988 22.2324C317.856 22.1981 317.738 22.1429 317.596 22.1314C317.455 22.1181 317.289 22.1467 317.134 22.1581C316.978 22.1676 316.813 22.1943 316.671 22.181C316.529 22.1676 316.411 22.1105 316.284 22.0743C316.223 22.0571 316.147 22.0324 316.086 22.0362C315.774 22.0514 315.463 22.0743 315.151 22.0952C314.802 22.1181 314.802 22.1181 314.306 22C314.08 21.9466 313.853 21.9886 313.631 22.0038C313.395 22.019 313.173 22.0267 312.989 21.9505C312.867 21.9009 312.73 21.8704 312.584 21.88C312.192 21.9028 311.805 21.9314 311.413 21.9543C311.347 21.9581 311.257 21.9486 311.205 21.9314C310.955 21.8514 310.71 21.7885 310.36 21.8285C310.058 21.8628 309.733 21.8647 309.431 21.8971C309.265 21.9143 309.19 21.9752 309.223 22.0229C309.242 22.0476 309.341 22.0762 309.407 22.0762C309.558 22.0781 309.723 22.0495 309.865 22.0609C310.157 22.0838 310.304 22.2438 310.686 22.2C310.913 22.1733 311.149 22.1638 311.385 22.1562C311.446 22.1543 311.512 22.1905 311.578 22.2095C311.767 22.261 311.932 22.3276 312.206 22.2934C312.432 22.2667 312.673 22.2591 312.904 22.2438C313.273 22.2191 313.273 22.221 313.749 22.3372C313.976 22.3924 314.202 22.3486 314.424 22.3353C314.59 22.3258 314.745 22.3067 314.877 22.3334C315.08 22.3734 315.227 22.4648 315.477 22.4591C315.713 22.4534 315.944 22.4267 316.18 22.4172C316.326 22.4115 316.463 22.442 316.581 22.4934C316.704 22.5448 316.836 22.5677 316.997 22.5563C317.228 22.541 317.464 22.522 317.7 22.5124C317.766 22.5105 317.842 22.5277 317.903 22.5429C318.035 22.5772 318.163 22.6172 318.29 22.6534C318.521 22.642 318.757 22.6382 318.984 22.6153C319.159 22.5982 319.281 22.6058 319.423 22.6439C319.602 22.6953 319.749 22.7868 320.041 22.743C320.188 22.722 320.357 22.7277 320.504 22.7087C320.683 22.6839 320.806 22.6934 320.933 22.7506C321.174 22.8592 321.476 22.8611 321.788 22.8192C322.127 22.7734 322.382 22.8268 322.637 22.9106C322.906 22.9983 322.906 22.9963 323.114 23.2078C323.175 23.2688 323.35 23.2973 323.496 23.2859C323.742 23.2669 323.954 23.2764 324.133 23.3488C324.322 23.4269 324.549 23.4174 324.78 23.3964C325.087 23.3678 325.394 23.3431 325.644 23.4536C325.767 23.5069 325.899 23.5202 326.064 23.5069C326.531 23.4726 327.003 23.4517 327.461 23.4097C327.74 23.3831 327.9 23.444 328.089 23.4955C328.344 23.566 328.622 23.6288 328.622 23.7793C328.622 23.8041 328.688 23.8327 328.745 23.8517C328.868 23.8917 329 23.926 329.127 23.9641C329.316 24.0213 329.5 24.0689 329.76 24.0384C329.986 24.0136 330.227 24.006 330.458 23.9889C330.689 23.9717 330.902 23.9622 331.11 24.0346C331.35 24.1165 331.605 24.1946 331.879 24.2556C332.072 24.2994 332.327 24.2251 332.535 24.2842C332.663 24.3204 332.785 24.3623 332.922 24.3928C332.979 24.4061 333.068 24.3966 333.144 24.3928C333.3 24.3851 333.46 24.3794 333.611 24.3604C333.786 24.3394 333.918 24.3432 334.05 24.3871C334.173 24.4271 334.296 24.4823 334.437 24.4937C334.65 24.5109 334.886 24.4347 335.098 24.5223C335.207 24.5661 335.343 24.608 335.485 24.6214C335.627 24.6347 335.792 24.6061 335.943 24.608C336.009 24.608 336.089 24.6385 336.127 24.6633C336.151 24.6766 336.118 24.7128 336.085 24.7319C336.042 24.7547 335.981 24.7852 335.919 24.789C335.452 24.8233 334.985 24.8519 334.517 24.8843C334.239 24.9033 334.239 24.9033 333.677 24.7833C333.545 24.7547 333.399 24.7604 333.234 24.7738C333.012 24.7909 332.785 24.8233 332.554 24.789C332.252 24.6595 331.879 24.648 331.483 24.6976C331.317 24.7185 331.166 24.7185 331.043 24.6823C330.784 24.6099 330.51 24.5433 330.279 24.4575C330.1 24.3909 330.015 24.3851 329.939 24.4766C329.915 24.5052 329.892 24.5356 329.897 24.5623C329.925 24.6576 329.977 24.7509 330.005 24.8462C330.015 24.8728 329.977 24.9033 329.953 24.9319C329.878 25.0119 329.779 25.0062 329.613 24.9395C329.448 24.8728 329.25 24.829 328.986 24.8595C328.759 24.8862 328.514 24.8824 328.287 24.9109C327.938 24.9529 327.692 24.8919 327.442 24.81C327.39 24.7928 327.301 24.7833 327.234 24.7871C326.531 24.8309 325.833 24.8805 325.129 24.9243C324.978 24.9338 324.841 24.9052 324.723 24.8538C324.601 24.8024 324.464 24.7757 324.313 24.7852C323.69 24.8252 323.067 24.8614 322.444 24.9109C322.189 24.9319 321.986 24.9071 321.811 24.8404C321.679 24.7909 321.556 24.7757 321.391 24.7814C321.212 24.7871 321.084 24.8062 320.995 24.8614C320.91 24.9148 320.971 24.9471 321.16 24.989C321.363 25.0348 321.552 25.0938 321.745 25.1472C321.901 25.1396 322.057 25.1243 322.208 25.1262C322.274 25.1262 322.335 25.1605 322.401 25.1795C322.59 25.2348 322.765 25.2901 323.034 25.2596C323.26 25.2329 323.501 25.2272 323.732 25.21C324.053 25.1891 324.053 25.1891 324.572 25.3091C324.704 25.3396 324.846 25.3377 325.016 25.3205C325.162 25.3072 325.313 25.3339 325.417 25.391C325.46 25.4139 325.446 25.452 325.356 25.5777C325.356 25.6711 325.455 25.6292 325.488 25.5682C325.54 25.4806 325.441 25.452 325.252 25.4996C325.12 25.5339 325.054 25.5834 325.087 25.6234C325.106 25.6444 325.195 25.6711 325.356 25.5777C325.771 25.4634 326.088 25.4501 326.39 25.4196C326.569 25.4024 326.682 25.4101 326.824 25.4596C326.994 25.5186 327.164 25.5815 327.442 25.5511C327.744 25.5168 328.065 25.5129 328.372 25.4844C328.655 25.4577 328.802 25.5415 328.981 25.5911C329.198 25.6501 329.439 25.5834 329.637 25.6177C329.845 25.652 329.991 25.7358 330.232 25.7511C330.581 25.6996 330.803 25.7949 331.067 25.8578C331.275 25.9054 331.52 25.8635 331.742 25.8425C331.992 25.8196 332.2 25.8406 332.375 25.9092C332.573 25.9873 332.795 25.9702 333.021 25.953C333.55 25.9149 333.569 25.9092 333.875 26.014C334.097 26.0902 334.31 26.0559 334.532 26.0464C334.725 26.0978 334.914 26.153 335.117 26.1988C335.169 26.2102 335.268 26.1911 335.348 26.1854C335.579 26.1702 335.815 26.155 336.047 26.1397C336.202 26.1302 336.368 26.1016 336.509 26.113C336.651 26.1264 336.769 26.1816 336.896 26.2178C337.024 26.254 337.156 26.2902 337.279 26.3283C337.467 26.3855 337.647 26.4331 337.911 26.4045C338.138 26.3798 338.374 26.3721 338.61 26.355C338.907 26.334 338.898 26.3398 339.45 26.4541C339.747 26.5169 340.054 26.4407 340.356 26.4331C340.507 26.4293 340.653 26.4502 340.757 26.5055C340.8 26.5284 340.786 26.5665 340.8 26.5988C340.021 26.6503 339.237 26.6941 338.468 26.757C338.171 26.7817 338.015 26.7131 337.855 26.656C337.59 26.5645 337.241 26.6979 336.991 26.5798C336.84 26.5093 336.623 26.4693 336.363 26.5036C336.212 26.5226 336.051 26.5207 335.896 26.5379C335.499 26.5798 335.136 26.5817 334.819 26.4502C334.711 26.4045 334.555 26.3798 334.442 26.3359C334.31 26.2883 334.182 26.2616 334.027 26.2712C333.323 26.3169 332.625 26.3626 331.926 26.4121C331.865 26.4159 331.803 26.4445 331.751 26.4655C331.619 26.5188 331.662 26.5607 331.874 26.595C331.945 26.6065 332.002 26.6312 332.068 26.6503C332.195 26.6865 332.313 26.7436 332.455 26.757C332.596 26.7703 332.762 26.7436 332.917 26.7341C333.073 26.7246 333.238 26.696 333.38 26.7074C333.522 26.7208 333.639 26.776 333.772 26.8103C333.833 26.8274 333.909 26.856 333.97 26.8541C334.281 26.8427 334.588 26.8217 334.9 26.8046C335.093 26.856 335.259 26.9303 335.49 26.9475C335.636 26.9589 335.792 26.9379 335.943 26.9417C336.009 26.9436 336.094 26.9722 336.127 26.997C336.146 27.0122 336.084 27.0503 336.037 27.0694C335.858 27.1418 335.613 27.1284 335.391 27.1513C335.15 27.1761 334.933 27.1685 334.749 27.0942C334.626 27.0446 334.489 27.018 334.338 27.0275C333.946 27.0522 333.559 27.0808 333.167 27.1018C333.101 27.1056 333.021 27.0884 332.96 27.0751C332.464 26.9589 332.464 26.9551 332.115 26.9799C331.6 27.0161 331.601 27.016 331.256 26.9151C331.19 26.896 331.119 26.8598 331.062 26.8617C330.515 26.8922 329.972 26.9227 329.429 26.9665C329.25 26.9798 329.127 26.9799 328.995 26.9303C328.882 26.8884 328.75 26.8408 328.608 26.8293C328.462 26.8179 328.301 26.8465 328.145 26.856C327.99 26.8655 327.824 26.8903 327.688 26.8751C327.546 26.8598 327.423 26.8065 327.301 26.7684C327.173 26.7284 327.036 26.7303 326.862 26.7455C326.324 26.7893 326.319 26.7836 325.785 26.6655C325.724 26.6522 325.644 26.6369 325.578 26.6407C325.186 26.6636 324.799 26.6922 324.407 26.715C324.256 26.7246 324.11 26.6998 324.006 26.6446C323.963 26.6217 323.978 26.5836 323.949 26.5093C323.916 26.4921 323.954 26.5226 323.963 26.5512C324.034 26.5474 324.119 26.5512 324.171 26.536C324.303 26.4998 324.369 26.4521 324.336 26.4121C324.317 26.3912 324.228 26.3645 324.171 26.3645C324.067 26.3645 323.978 26.4064 323.949 26.5093C323.652 26.5722 323.336 26.5855 323.029 26.616C322.85 26.635 322.736 26.6255 322.595 26.576C322.425 26.515 322.25 26.4559 321.972 26.4864C321.67 26.5207 321.349 26.5265 321.037 26.5531C320.678 26.5836 320.523 26.4121 320.221 26.4159C319.909 26.4198 319.597 26.4521 319.286 26.475C319.012 26.4941 319.012 26.494 318.446 26.3702C318.238 26.3245 317.993 26.3912 317.79 26.3435C317.653 26.3131 317.535 26.2674 317.403 26.235C317.346 26.2216 317.256 26.2216 317.186 26.2254C316.794 26.2483 316.397 26.2635 316.02 26.3055C315.59 26.355 315.265 26.3016 314.958 26.1892C314.571 26.2102 314.179 26.2216 313.797 26.2578C313.518 26.2845 313.358 26.2216 313.169 26.1702C313.103 26.1531 313.046 26.1245 312.975 26.1169C312.905 26.1092 312.819 26.1245 312.744 26.1302C312.432 26.1511 312.112 26.1607 311.809 26.195C311.437 26.2388 311.295 26.0826 311.007 26.0635C310.814 26.1569 310.71 26.2845 310.327 26.294C310.016 26.3016 309.704 26.3321 309.393 26.3531C309.237 26.3626 309.081 26.374 308.926 26.3836C308.675 26.4007 308.557 26.475 308.609 26.5893C308.638 26.6522 308.661 26.715 308.685 26.7779C308.732 26.8903 308.614 26.9856 308.416 26.9989C307.868 27.0351 307.325 27.0732 306.778 27.1056C306.632 27.1151 306.49 27.0827 306.372 27.0313C306.249 26.9798 306.112 26.957 305.961 26.9665C305.414 27.0027 304.871 27.0408 304.324 27.0732C304.262 27.077 304.182 27.058 304.121 27.0427C303.988 27.0084 303.861 26.9684 303.734 26.9322C303.422 26.9494 303.115 26.9608 302.808 26.9836C302.313 27.0179 302.313 27.0198 301.949 26.9151C301.883 26.896 301.817 26.8598 301.756 26.8617C301.52 26.8694 301.289 26.8884 301.053 26.9056C300.359 26.9551 300.359 26.9551 300.156 26.8979C299.972 26.8446 299.806 26.7798 299.528 26.8103C299.226 26.8446 298.905 26.856 298.593 26.8751C298.362 26.8884 298.131 26.9037 297.9 26.9075C297.838 26.9094 297.772 26.8732 297.706 26.8541C297.517 26.7951 297.333 26.7474 297.074 26.7798C296.923 26.7989 296.762 26.8027 296.606 26.8122C296.2 26.8389 296.2 26.8389 295.535 26.7246C295.469 26.7131 295.389 26.6998 295.322 26.7055C294.775 26.7398 294.232 26.7779 293.685 26.8103C293.619 26.8141 293.538 26.8027 293.472 26.7931C292.727 26.6826 292.726 26.6827 291.934 26.736C291.631 26.7551 291.622 26.7627 291.306 26.6617C291.164 26.6179 291.046 26.5969 290.881 26.6103C290.258 26.656 289.63 26.6865 289.012 26.7398C288.733 26.7627 288.573 26.7055 288.384 26.6541C288.318 26.6369 288.247 26.5988 288.191 26.6007C287.568 26.6369 286.944 26.6808 286.321 26.717C286.265 26.7208 286.194 26.6827 286.128 26.6655C286 26.6312 285.878 26.5798 285.736 26.5684C285.59 26.5569 285.429 26.5855 285.269 26.595C284.877 26.6198 284.877 26.6179 284.424 26.5055C284.363 26.4903 284.282 26.4693 284.221 26.4731C283.598 26.5112 282.97 26.5436 282.352 26.5988C281.998 26.6293 281.757 26.5741 281.507 26.4941C281.455 26.4769 281.365 26.4693 281.299 26.4731C280.596 26.5169 279.897 26.5664 279.194 26.6103C279.048 26.6198 278.906 26.5874 278.788 26.5379C278.599 26.4598 278.378 26.4693 278.142 26.4864C277.599 26.5264 277.594 26.5245 277.273 26.4331C277.207 26.4141 277.15 26.3893 277.08 26.3798C277.014 26.3702 276.929 26.3759 276.858 26.3798C276.546 26.3988 276.235 26.4198 275.923 26.4407C275.612 26.4617 275.295 26.4731 274.989 26.5055C274.611 26.5455 274.432 26.4216 274.167 26.3645C273.78 26.3893 273.384 26.4045 273.001 26.4445C272.709 26.475 272.572 26.3912 272.379 26.3474C272.312 26.3321 272.242 26.2997 272.18 26.3035C271.477 26.3455 270.774 26.3912 270.075 26.4426C269.905 26.454 269.792 26.4388 269.65 26.3931C269.334 26.2902 269.32 26.294 268.791 26.3321C268.56 26.3493 268.338 26.3645 268.14 26.2864C267.965 26.2159 267.753 26.1988 267.503 26.2216C267.196 26.2502 266.88 26.2654 266.568 26.2845C266.257 26.3055 265.945 26.334 265.634 26.3435C265.383 26.3531 265.232 26.2635 265.034 26.2178C264.973 26.2045 264.888 26.2026 264.817 26.2064C264.506 26.2235 264.185 26.2369 263.883 26.2692C263.514 26.3093 263.311 26.2045 263.052 26.1435C262.995 26.1302 262.901 26.1378 262.83 26.1435C262.282 26.1778 261.74 26.2159 261.192 26.2521C260.999 26.2007 260.8 26.1512 260.607 26.0997C260.295 26.1188 259.984 26.1397 259.672 26.1588C259.436 26.174 259.195 26.1797 258.974 26.2083C258.686 26.2464 258.544 26.1569 258.351 26.113C258.285 26.0978 258.214 26.0654 258.152 26.0692C257.761 26.0902 257.369 26.113 256.982 26.1454C256.614 26.1778 256.467 26.0063 256.165 26.0083C255.854 26.0102 255.533 26.0349 255.231 26.0692C254.881 26.1092 254.636 26.0483 254.386 25.9663C254.334 25.9492 254.244 25.9397 254.178 25.9435C253.786 25.9663 253.399 25.9949 253.008 26.0178C252.942 26.0216 252.861 26.0121 252.795 26.0006C252.049 25.8882 252.049 25.8863 251.724 25.9092C251.493 25.9244 251.257 25.9435 251.021 25.953C250.954 25.9568 250.874 25.9397 250.813 25.9244C250.322 25.8082 250.322 25.8063 249.968 25.8292C249.656 25.8501 249.345 25.8711 249.033 25.892C248.84 25.8406 248.642 25.7911 248.448 25.7397C248.061 25.7644 247.665 25.7835 247.282 25.8177C247.103 25.833 246.985 25.8273 246.848 25.7797C246.678 25.7225 246.508 25.6558 246.225 25.6882C245.923 25.7225 245.602 25.7263 245.295 25.7549C244.927 25.7892 244.776 25.6158 244.479 25.6177C244.167 25.6196 243.846 25.6444 243.544 25.6787C243.195 25.7187 242.949 25.6577 242.699 25.5758C242.647 25.5587 242.557 25.5491 242.491 25.553C241.632 25.6082 240.778 25.6634 239.919 25.7225C239.39 25.7587 239.39 25.7606 238.385 25.6558C238.314 25.6482 238.239 25.6406 238.168 25.6444C237.856 25.6615 237.535 25.6749 237.233 25.7073C236.865 25.7473 236.662 25.6444 236.403 25.5815C236.346 25.5682 236.256 25.5758 236.181 25.5796C235.945 25.5929 235.713 25.6101 235.477 25.6254C235.166 25.6463 234.854 25.6673 234.543 25.6882C234.349 25.6387 234.151 25.5872 233.958 25.5377C233.571 25.5625 233.174 25.5758 232.792 25.6158C232.499 25.6463 232.362 25.5663 232.169 25.5206C232.103 25.5053 232.032 25.4729 231.97 25.4748C231.267 25.5168 230.564 25.5606 229.865 25.6139C229.577 25.6368 229.445 25.551 229.252 25.5072C229.186 25.4939 229.11 25.4691 229.049 25.4729C228.582 25.4996 228.114 25.532 227.647 25.5644C227.383 25.5834 227.383 25.5834 226.807 25.4653C226.741 25.452 226.665 25.4386 226.599 25.4424C225.117 25.5377 223.64 25.6387 222.158 25.7339C222.007 25.7435 221.87 25.7149 221.752 25.6634C221.629 25.612 221.492 25.5853 221.341 25.5949C220.718 25.6349 220.09 25.6711 219.472 25.7206C219.217 25.7416 219.014 25.7168 218.839 25.6501C218.707 25.6006 218.585 25.5815 218.419 25.593C218.108 25.6158 217.796 25.6349 217.485 25.6558C217.173 25.6768 216.862 25.6977 216.55 25.7187C216.239 25.7397 215.923 25.7511 215.616 25.7835C215.238 25.8235 215.054 25.7054 214.794 25.6463C214.327 25.6749 213.86 25.7034 213.397 25.7339C212.774 25.7739 212.151 25.8178 211.528 25.8559C211.471 25.8597 211.401 25.8254 211.335 25.8082C211.141 25.7606 210.999 25.6939 210.712 25.7149C209.314 25.8159 207.908 25.9016 206.506 26.0006C206.213 26.0216 206.086 25.9397 205.888 25.8959C205.822 25.8825 205.746 25.8559 205.685 25.8597C204.906 25.9073 204.127 25.9606 203.348 26.0121C203.032 26.033 203.032 26.033 202.504 25.9149C202.442 25.9016 202.362 25.8844 202.296 25.8882C201.281 25.953 200.271 26.0216 199.256 26.0883C199.105 26.0978 198.968 26.0711 198.846 26.0197C198.727 25.9683 198.586 25.9397 198.44 25.9492C197.505 26.0102 196.566 26.0692 195.636 26.1359C195.386 26.1549 195.178 26.1378 194.999 26.0692C194.871 26.0197 194.744 25.9987 194.583 26.0102C193.181 26.1035 191.78 26.1931 190.378 26.2921C190.109 26.3112 189.92 26.275 189.75 26.2121C189.613 26.1626 189.495 26.153 189.325 26.1607C189.146 26.1702 189.037 26.1911 188.938 26.2483C188.811 26.3226 188.73 26.4159 188.428 26.4217C188.117 26.4274 187.801 26.4502 187.494 26.4826C187.201 26.515 187.064 26.4293 186.88 26.3778C186.743 26.3417 186.616 26.3359 186.441 26.3531C186.281 26.3683 186.182 26.4007 186.087 26.4617C185.88 26.5912 185.861 26.5912 185.606 26.5093C185.469 26.4655 185.346 26.4312 185.195 26.4388C184.572 26.4769 183.949 26.5188 183.326 26.5626C182.967 26.5874 182.963 26.5912 182.694 26.496C182.561 26.4483 182.434 26.4255 182.278 26.4369C180.565 26.5512 178.852 26.6617 177.138 26.7817C176.874 26.8008 176.694 26.7608 176.506 26.7036C176.444 26.6846 176.383 26.6579 176.312 26.6503C176.241 26.6426 176.161 26.6503 176.086 26.6541C174.84 26.736 173.589 26.8141 172.347 26.9056C172.064 26.9265 171.913 26.8656 171.72 26.816C171.654 26.7989 171.597 26.7722 171.526 26.7646C171.455 26.7589 171.37 26.7722 171.295 26.7779C170.049 26.8598 168.798 26.9379 167.557 27.0294C167.259 27.0503 167.132 26.9703 166.938 26.9284C166.872 26.9132 166.801 26.8846 166.74 26.8884C166.348 26.9093 165.961 26.9379 165.569 26.9627C164.635 27.0256 163.7 27.0846 162.766 27.1494C162.407 27.1742 162.251 27.0046 161.949 27.0122C161.557 27.0218 161.17 27.0599 160.779 27.0865C160.467 27.1075 160.156 27.1266 159.844 27.1494C159.537 27.1704 159.537 27.1703 158.773 27.0599C158.706 27.0503 158.626 27.037 158.56 27.0408C157.47 27.1113 156.375 27.1818 155.289 27.258C155.039 27.2751 154.831 27.2656 154.652 27.1951C154.525 27.1456 154.392 27.1208 154.237 27.1322C152.599 27.2408 150.966 27.3494 149.328 27.4561C149.266 27.4599 149.186 27.4409 149.125 27.4256C148.993 27.3913 148.865 27.3513 148.738 27.3152C148.643 27.359 148.521 27.399 148.459 27.4485C148.374 27.5152 148.261 27.5342 148.082 27.5457C147.902 27.5571 147.789 27.5533 147.648 27.5038C147.478 27.4428 147.303 27.3951 147.024 27.4142C145.311 27.5342 143.598 27.6428 141.884 27.7609C141.601 27.78 141.469 27.6961 141.271 27.6523C141.205 27.639 141.129 27.6181 141.068 27.6219C140.365 27.6657 139.666 27.7133 138.963 27.759C137.013 27.8886 135.064 28.0124 133.119 28.1496C132.765 28.1743 132.525 28.1267 132.274 28.0448C132.223 28.0276 132.133 28.0181 132.067 28.0219C129.339 28.201 126.61 28.382 123.887 28.563C123.741 28.5725 123.599 28.542 123.481 28.4925C123.358 28.441 123.221 28.4163 123.07 28.4258C121.824 28.5077 120.578 28.5896 119.332 28.6735C119.021 28.6944 119.016 28.6963 118.695 28.6049C118.629 28.5858 118.558 28.5496 118.506 28.5535C118.398 28.563 118.294 28.6106 118.218 28.6754C118.143 28.7439 118.025 28.763 117.85 28.7763C117.671 28.7897 117.553 28.784 117.416 28.7382C117.241 28.6811 117.081 28.6258 116.798 28.6449C113.215 28.8887 109.633 29.123 106.05 29.365C105.762 29.384 105.63 29.304 105.432 29.2602C105.366 29.2469 105.3 29.2278 105.229 29.224C105.153 29.2202 105.073 29.2317 104.998 29.2374C99.1541 29.6241 93.3108 30.0127 87.4674 30.3995C87.1182 30.4223 87.1229 30.4223 86.7405 30.5976C86.6933 30.6185 86.6319 30.6471 86.5658 30.6509C84.777 30.7728 82.9834 30.891 81.1898 31.0091C80.411 31.0605 79.6322 31.1139 78.8534 31.1634C78.5749 31.1805 78.5749 31.1805 77.9094 31.3863C77.8528 31.4034 77.7866 31.4263 77.7206 31.4301C74.6053 31.6378 71.4901 31.8454 68.3702 32.0493C68.1247 32.0645 67.9265 32.0988 67.8133 32.1902C67.733 32.255 67.6292 32.2931 67.4734 32.3045C65.2928 32.4493 63.1122 32.596 60.9268 32.737C60.6672 32.7541 60.5114 32.8075 60.384 32.8875C60.3415 32.9142 60.3037 32.9446 60.2423 32.9637C60.1857 32.9808 60.1008 32.9865 60.03 32.9923C58.1608 33.1161 56.2918 33.2437 54.4179 33.3619C54.1394 33.379 54.0261 33.4495 53.8892 33.5238C53.842 33.5485 53.809 33.5828 53.7476 33.6C53.6862 33.6152 53.5966 33.6152 53.521 33.619C51.9634 33.7219 50.4059 33.8267 48.8483 33.9296C48.5462 33.92 48.4801 34.0305 48.3338 34.0972C48.2818 34.1201 48.2442 34.1506 48.1828 34.1658C48.1167 34.181 48.0317 34.1791 47.9514 34.1829C46.7053 34.2649 45.4593 34.3525 44.2085 34.4287C43.9206 34.4458 43.8639 34.543 43.7081 34.6097C43.6562 34.6306 43.6044 34.663 43.543 34.6687C42.7642 34.724 41.9854 34.7754 41.2066 34.8249C40.947 34.8421 40.947 34.8402 40.4892 35.0288C40.4372 35.0498 40.3758 35.0726 40.3097 35.0783C39.1439 35.1583 37.9734 35.2345 36.8028 35.3127C36.6518 35.3222 36.548 35.3679 36.4724 35.4327C36.3969 35.4974 36.2884 35.5394 36.1373 35.5489C35.2028 35.6117 34.2681 35.6765 33.3336 35.7337C33.074 35.7489 32.9041 35.7965 32.7908 35.8823C32.7058 35.947 32.602 35.9794 32.4368 35.9908C31.5022 36.0518 30.5677 36.1185 29.6284 36.1718C29.3547 36.1871 29.213 36.2519 29.0997 36.3319C29.01 36.3966 28.9062 36.4195 28.7316 36.4309C27.0182 36.5414 25.3002 36.6519 23.5915 36.7738C23.3036 36.7948 23.1572 36.7281 22.9684 36.6805C22.6994 36.6138 22.4493 36.5414 22.4493 36.3928C22.4493 36.37 22.369 36.3433 22.3124 36.3242C21.8923 36.1814 21.8923 36.1814 21.8262 36.029C21.7885 35.9356 21.746 35.8404 21.713 35.7451C21.6516 35.5889 21.5005 35.5489 21.0663 35.5775C20.9105 35.587 20.7547 35.6003 20.599 35.6079C20.3677 35.6213 20.1931 35.5584 20.1506 35.4441C20.127 35.3812 20.0987 35.3184 20.0751 35.2555C20.3111 35.2402 20.3063 35.2384 20.7217 35.0078C20.8963 34.9107 20.8964 34.9107 20.5613 34.8135C20.4339 34.7773 20.3111 34.7373 20.1742 34.703C20.1129 34.6878 20.0327 34.6782 19.9666 34.6821C19.5748 34.7049 19.1878 34.7316 18.8007 34.7583C18.1777 34.8002 18.1776 34.8002 17.5451 34.6059C17.4932 34.5906 17.413 34.562 17.4224 34.5468C17.4743 34.4763 17.6018 34.4458 17.7623 34.4382C17.9983 34.4268 18.2295 34.4077 18.4608 34.3925C18.6166 34.383 18.7723 34.3715 18.9281 34.362C19.0744 34.2896 19.2255 34.2191 19.3624 34.1448C19.5795 34.0305 19.5794 34.0267 19.2821 33.9467C19.0933 33.8934 18.8903 33.8457 18.6968 33.7962C18.4655 33.8114 18.2295 33.8286 17.9983 33.8419C17.7056 33.8591 17.5876 33.8229 17.5121 33.699C17.446 33.5904 17.5262 33.4971 17.7528 33.4743C17.9841 33.4514 18.2013 33.4362 18.3193 33.339C18.4326 33.2456 18.6308 33.2094 18.8762 33.2018C19.032 33.1961 19.1877 33.1828 19.3435 33.1713C19.5465 33.1561 19.6551 33.0589 19.6126 32.9504C19.589 32.8799 19.5418 32.8208 19.3577 32.8056C18.5411 32.7389 18.5316 32.7408 18.1257 32.6112C18.0879 32.5998 18.0597 32.5655 18.0738 32.5484C18.0974 32.5198 18.1494 32.4779 18.206 32.4722C18.7488 32.4303 19.2916 32.3922 19.8344 32.3636C20.0138 32.3541 20.1459 32.3407 20.2073 32.2702C20.2923 32.1731 20.2545 32.0835 20.0893 32.0169C20.0374 31.9959 19.9523 31.9692 19.8957 31.9711C19.2727 32.0054 18.6544 32.0492 18.0313 32.0835C17.9747 32.0873 17.8709 32.055 17.8473 32.0302C17.8001 31.9845 17.8708 31.9235 18.036 31.9026C18.2532 31.874 18.475 31.8721 18.6213 31.7768C18.8243 31.6416 19.0744 31.5177 19.301 31.3882C19.3387 31.3653 19.4002 31.3215 19.386 31.3177C19.268 31.2758 19.1311 31.2434 19.0084 31.2034C18.8007 31.1367 18.8007 31.0434 18.8479 30.9538C18.8856 30.8814 19.0272 30.8529 19.2019 30.8529C19.2774 30.8529 19.3718 30.8529 19.4332 30.8357C19.5936 30.7938 19.6456 30.7405 19.5653 30.7005C19.5181 30.6776 19.4332 30.6452 19.3766 30.649C18.3665 30.7119 17.3516 30.7729 16.3462 30.851C16.0489 30.8738 15.9121 30.8014 15.7327 30.75C15.5959 30.71 15.4683 30.6947 15.2984 30.7233C15.1379 30.75 14.9822 30.7348 14.8831 30.6719C14.8029 30.6205 14.9444 30.5766 15.3268 30.5271C15.3976 30.5176 15.4778 30.5119 15.5297 30.4928C16.0772 30.2871 16.0772 30.2852 16.4548 30.2585C16.823 30.2337 16.823 30.2318 17.0166 30.1213C17.1062 30.0699 17.2053 30.0184 17.2903 29.9651C17.3233 29.9441 17.38 29.906 17.3611 29.8946C17.2573 29.8356 17.1156 29.8222 16.9504 29.8356C16.5823 29.8679 16.1481 29.8413 15.9546 30.0223C15.879 30.0908 15.761 30.1099 15.5911 30.1213C13.8825 30.2318 12.1738 30.3499 10.4604 30.4566C10.1819 30.4738 10.0546 30.5443 9.946 30.6224C9.8516 30.6871 9.74774 30.7062 9.56838 30.7176C9.38902 30.729 9.24735 30.7348 9.14351 30.6719C9.08215 30.6338 9.13408 30.5804 9.27568 30.5271C9.47864 30.4509 9.44087 30.3556 9.37479 30.2661C9.32759 30.2071 9.18127 30.1651 9.02551 30.169C8.79423 30.1766 8.57245 30.1975 8.37893 30.1213C8.26565 30.0775 8.12402 30.047 7.99658 30.0089C7.75114 29.9308 7.50569 29.8508 7.16113 29.9022C6.92513 29.8832 6.75993 29.8146 6.57113 29.7613C6.25489 29.6736 6.22657 29.6603 6.45313 29.5669C6.70801 29.4622 6.50973 29.325 6.65133 29.2221C6.80237 29.1116 7.01012 29.0145 7.1942 28.9116C7.2414 28.8849 7.2839 28.8602 7.3311 28.8335C7.22254 28.7954 7.12344 28.7478 6.996 28.7211C6.8308 28.6868 6.74583 28.6449 6.75527 28.5268C6.72223 28.5096 6.73629 28.5534 6.77406 28.5649C6.81653 28.5763 6.92045 28.5668 6.97237 28.5535C7.10453 28.5173 7.17055 28.4696 7.13751 28.4296C7.11862 28.4087 7.02901 28.382 6.97237 28.382C6.86853 28.382 6.77887 28.4239 6.75055 28.5268C6.22191 28.6049 5.6743 28.643 5.12678 28.6735C5.07014 28.6773 4.99938 28.6392 4.9333 28.6201C4.71618 28.5554 4.71615 28.5572 4.07895 28.5382C4.01287 28.5363 3.92323 28.5096 3.89019 28.483C3.75331 28.3668 3.75807 28.2391 3.69199 28.1153C3.81471 28.0353 3.93733 27.9572 4.06477 27.879C4.31965 27.7209 4.65013 27.5819 4.84837 27.4085C4.80589 27.3152 4.74924 27.2218 4.95692 27.1456C5.54692 27.0503 5.54224 27.0503 5.70272 26.9589C6.16056 26.6998 6.61365 26.4388 7.09037 26.1835C7.21781 26.1168 7.21783 26.0807 6.99127 26.0521C6.92047 26.0445 6.84485 26.0426 6.76933 26.0464C6.53333 26.0597 6.29733 26.094 6.06605 26.0864C5.83477 26.0807 5.66485 25.9968 5.47605 25.9454C5.28253 25.892 5.08902 25.8368 4.8955 25.7816C4.67366 25.7873 4.45186 25.8406 4.23002 25.7549C4.0601 25.6882 3.84771 25.6406 3.65419 25.5853C3.80051 25.4405 4.07432 25.33 4.28672 25.2024C4.48024 25.0862 4.48485 25.0881 5.00405 24.9986C5.24949 24.9567 5.33446 24.7414 5.12678 24.6785C4.87662 24.6023 4.61235 24.5318 4.35747 24.4594C4.13563 24.4651 3.90912 24.5166 3.69671 24.4309C3.53151 24.3661 3.34268 24.3223 3.06892 24.347C2.60636 24.3889 2.13437 24.4099 1.66709 24.4442C1.50661 24.4556 1.33192 24.448 1.26112 24.3832C1.21392 24.3375 1.35081 24.2746 1.50657 24.2613C1.74257 24.2423 1.95494 24.2194 2.07294 24.1242C2.18622 24.0289 2.39388 24.0003 2.63932 23.987C2.7054 23.9832 2.78098 23.9603 2.81402 23.9374C2.98394 23.8269 3.17275 23.7317 3.53619 23.7355C3.68723 23.6974 3.76742 23.6498 3.72022 23.604C3.6919 23.5793 3.59283 23.5469 3.53619 23.5507C3.14443 23.5698 2.75268 23.5888 2.37036 23.6231C2.191 23.6384 2.05405 23.6422 1.94077 23.585C1.86053 23.5469 1.903 23.4955 2.05405 23.4402C2.18621 23.3926 2.22401 23.3373 2.21457 23.2726C2.19097 23.1221 2.04934 23.0783 1.59622 23.0878C1.27054 23.0954 1.19029 23.0706 1.11949 22.9411C1.10061 22.9106 1.0535 22.8687 1.08654 22.8477C1.2895 22.7182 1.42167 22.5582 1.80399 22.4972C1.95503 22.4743 2.11544 22.4743 2.20984 22.4248C2.30424 22.3753 2.38924 22.3181 2.48836 22.2705C2.61108 22.2133 2.69596 22.16 2.63932 22.1238C2.54492 22.0591 2.39393 22.0533 2.21929 22.0762C2.06825 22.0952 1.90778 22.0971 1.75202 22.1086C1.47353 22.1295 1.24702 22.08 1.21398 21.9962C1.1243 21.7752 1.02988 21.5561 0.949637 21.3351C0.940197 21.3084 0.963732 21.2741 1.00149 21.2513C1.13365 21.1713 1.27531 21.0951 1.41219 21.017C1.57267 20.9274 1.82759 20.9446 2.04471 20.9274C2.35151 20.9027 2.35141 20.9046 2.76205 20.7217C2.92253 20.6493 3.20102 20.6779 3.36622 20.6131C3.41814 20.5921 3.49838 20.5578 3.48422 20.5388C3.46534 20.514 3.37099 20.495 3.30019 20.4835C3.23411 20.4721 3.15389 20.4664 3.08309 20.4721C2.22405 20.5274 1.36975 20.5864 0.510708 20.6398C0.364388 20.6493 0.203903 20.6074 0.151983 20.5483C0.100062 20.4931 0.114176 20.4264 0.104736 20.3635C0.241617 20.2854 0.397317 20.213 0.515317 20.1292C0.604997 20.0644 0.708856 20.0358 0.888216 20.032C1.12422 20.0263 1.35552 20.0035 1.61984 19.9863C2.11072 19.7082 2.59213 19.4167 3.12077 19.1386C3.33317 19.0262 3.28134 18.9118 3.32382 18.7918C3.3663 18.6813 3.68252 18.6985 3.89492 18.6661C4.06484 18.6394 4.1214 18.5785 4.05532 18.5366C4.01756 18.5118 3.93265 18.4832 3.86657 18.4832C3.71081 18.4832 3.55505 18.5004 3.39929 18.5099C3.24353 18.5194 3.06418 18.5137 2.93674 18.5461C2.81402 18.5766 2.73374 18.6413 2.6535 18.6966C2.56382 18.7575 2.4459 18.7785 2.26654 18.7823C2.03526 18.7861 1.80399 18.8033 1.57271 18.8166C1.31783 18.7423 1.05345 18.6699 0.808013 18.5918C0.760813 18.5766 0.751322 18.5328 0.756042 18.5042C0.765482 18.4299 0.694701 18.3841 0.53894 18.348C0.40678 18.3175 0.298211 18.2737 0.17549 18.2356C0.269891 18.1841 0.373768 18.1346 0.449288 18.0793C0.614488 17.9631 0.822192 17.8793 1.18091 17.8831C1.32251 17.8088 1.43576 17.7174 1.61984 17.6659C1.79448 17.6164 2.09186 17.6659 2.22402 17.5535C2.2901 17.4983 2.38927 17.4354 2.51671 17.4126C2.71967 17.3764 2.98399 17.3954 3.10199 17.2887C3.17279 17.2278 3.27659 17.1725 3.41347 17.1573C3.56923 17.1401 3.72967 17.1363 3.84295 17.1001C3.90431 17.0811 3.9704 17.0506 3.9704 17.0239C3.9704 17.0068 3.87607 16.9801 3.80999 16.9687C3.74863 16.9553 3.6683 16.9458 3.5975 16.9496C3.3615 16.9611 3.13022 16.982 2.89422 16.9934C2.82814 16.9973 2.75264 16.9839 2.68184 16.9725C2.47416 16.942 2.4883 16.9039 2.6535 16.8353C2.8187 16.7687 2.93676 16.6829 3.07364 16.6048C3.22468 16.5915 3.41345 16.5972 3.51729 16.561C3.69193 16.5019 3.81462 16.4162 3.95622 16.3419C4.11198 16.3305 4.27245 16.3267 4.41877 16.3057C4.48013 16.2981 4.50848 16.2562 4.5604 16.2314C4.6548 16.1838 4.7351 16.1152 4.86254 16.0924C5.07022 16.0581 5.3251 16.0714 5.44782 15.9666C5.51862 15.9056 5.62714 15.8409 5.7593 15.8371C6.12746 15.8295 6.28322 15.7247 6.47202 15.6256C6.61363 15.5513 6.91572 15.5894 7.07148 15.5151C7.17532 15.4675 7.25088 15.4084 7.35472 15.3627C7.3972 15.3436 7.48685 15.3341 7.55765 15.3284C7.94469 15.2998 8.33644 15.2789 8.72348 15.2484C8.78484 15.2427 8.84153 15.2141 8.88873 15.1913C8.98785 15.1417 9.04914 15.0731 9.17186 15.0407C9.29458 15.0084 9.46919 15.0084 9.62023 14.9988C10.1064 14.9703 10.1442 14.9779 10.366 14.8159C10.5454 14.6845 10.9844 14.7778 11.1307 14.6331C11.2157 14.5492 11.3714 14.4807 11.6499 14.4711C12.0416 14.4578 12.4287 14.4216 12.8204 14.3968C13.1697 14.374 13.165 14.374 13.5426 14.1968C13.7125 14.1168 13.9627 14.1282 14.1846 14.113C14.4206 14.0977 14.6377 14.0749 14.7509 13.9796C14.8642 13.8863 15.0719 13.8558 15.3126 13.8424C15.5344 13.8291 15.7847 13.8387 15.9593 13.7624C16.3841 13.5796 16.3794 13.5776 16.6767 13.5586C17.144 13.5281 17.6113 13.4976 18.0786 13.4652C18.3901 13.4443 18.7158 13.4405 19.0084 13.3986C19.2208 13.3681 19.3152 13.2614 19.4521 13.1871C19.8391 13.1585 20.2261 13.1299 20.6132 13.1033C21.156 13.0652 21.7035 13.0309 22.251 12.9947C22.487 12.9223 22.5201 12.7623 22.9166 12.7547C23.1526 12.7508 23.3839 12.7261 23.6199 12.7108C24.0116 12.6842 24.3986 12.6499 24.7904 12.6365C25.0878 12.627 25.1396 12.5241 25.2954 12.4594C25.3473 12.4365 25.3945 12.4041 25.4559 12.3984C26.0695 12.3451 26.7019 12.3336 27.3014 12.2555C27.3627 12.2479 27.4194 12.2079 27.4335 12.1793C27.443 12.1641 27.3627 12.1355 27.3108 12.1222C27.2495 12.1069 27.1693 12.0917 27.1032 12.0955C25.1538 12.2231 23.2045 12.3527 21.2551 12.4803C20.9814 12.4994 20.9814 12.4975 20.3159 12.707C20.2592 12.7242 20.1931 12.7432 20.1223 12.7489C19.8107 12.7718 19.4945 12.7851 19.1877 12.8137C18.9375 12.8366 18.7299 12.8137 18.5506 12.7451C18.4231 12.6956 18.2909 12.6804 18.1304 12.6842C17.9511 12.6899 17.8331 12.7108 17.7293 12.7623C17.5924 12.8328 17.5216 12.9242 17.2337 12.9433C15.9073 13.0252 14.5809 13.1166 13.2593 13.2043C13.0753 13.1776 12.9856 13.1376 13.0328 13.09C13.0611 13.0614 13.1178 13.0233 13.1744 13.0195C13.7172 12.9795 14.2647 12.9452 14.8075 12.9071C14.883 12.9014 14.9869 12.9051 15.0293 12.8861C15.237 12.8004 15.3126 12.6613 15.7044 12.6518C15.931 12.6461 16.1622 12.6175 16.3793 12.5908C16.4407 12.5832 16.4973 12.5432 16.5115 12.5146C16.5162 12.4994 16.4407 12.4708 16.384 12.4575C16.1764 12.4022 15.9357 12.4689 15.728 12.4308C15.6572 12.4175 15.558 12.3984 15.5439 12.3756C15.5344 12.3546 15.6147 12.3203 15.6713 12.2993C15.7232 12.2803 15.794 12.2632 15.8648 12.2574C16.4878 12.2136 17.111 12.1679 17.734 12.1336C17.9889 12.1203 18.1682 12.0726 18.2815 11.985C18.3665 11.9202 18.4703 11.8859 18.6308 11.8764C19.7211 11.8059 20.8114 11.7278 21.9064 11.6631C22.1802 11.6478 22.3218 11.585 22.4351 11.503C22.5248 11.4383 22.6287 11.4154 22.8033 11.404C24.3656 11.3049 25.9185 11.1944 27.4808 11.0992C27.7687 11.082 27.8537 11.0001 28 10.9296C28.052 10.9048 28.0849 10.8744 28.151 10.8591C28.2171 10.8439 28.302 10.8458 28.3823 10.842C29.6284 10.76 30.8745 10.6724 32.1253 10.5962C32.418 10.5791 32.4745 10.4838 32.6256 10.4171C32.6775 10.3962 32.7247 10.3619 32.7861 10.3562C33.7206 10.2914 34.6552 10.2304 35.5897 10.1676C36.2128 10.1257 36.8358 10.0837 37.4588 10.0437C37.7656 10.0247 37.7657 10.0228 38.181 9.84179C38.2282 9.82084 38.2944 9.79607 38.3557 9.79035C40.1493 9.66843 41.9382 9.55224 43.7318 9.43222C43.8828 9.42269 43.9913 9.37885 44.0669 9.31408C44.1424 9.24931 44.251 9.20549 44.3974 9.19597C45.7992 9.10071 47.201 9.00737 48.6076 8.91784C48.8624 8.90259 49.0418 8.85687 49.155 8.77114C49.24 8.70637 49.3438 8.67209 49.5043 8.66256C50.9062 8.57112 52.3081 8.47394 53.7146 8.38631C53.9837 8.36917 54.1158 8.3044 54.248 8.2282C54.2952 8.20153 54.3329 8.15771 54.3896 8.1539C55.0881 8.10056 55.7819 8.04531 56.4852 8.00911C56.7779 7.99387 56.877 7.91385 56.995 7.83765C57.0894 7.77669 57.198 7.75574 57.3774 7.74812C57.7691 7.73097 58.1562 7.6986 58.5385 7.66621C58.5951 7.6605 58.6659 7.61858 58.6707 7.59191C58.6801 7.54238 58.5715 7.50808 58.3921 7.49094C56.523 7.61477 54.6492 7.73859 52.7801 7.86242C52.4733 7.88337 52.4733 7.88338 52.0579 8.06436C52.0107 8.08532 51.9446 8.11009 51.8785 8.11581C50.0849 8.23583 48.2961 8.35394 46.5025 8.47396C46.3514 8.48349 46.2429 8.5273 46.1674 8.59207C46.0918 8.65685 45.9832 8.70066 45.8369 8.71019C44.1235 8.82449 42.4102 8.94071 40.6921 9.0493C40.4372 9.06454 40.2579 9.10833 40.1446 9.19597C40.0597 9.26074 39.9558 9.29504 39.7953 9.30457C38.1575 9.41125 36.5243 9.52364 34.8817 9.62652C34.7165 9.63604 34.5939 9.58079 34.6033 9.52936C34.6081 9.50269 34.6787 9.45889 34.7354 9.45508C35.5897 9.39221 36.4394 9.32743 37.2984 9.2798C37.5864 9.26456 37.6712 9.18074 37.8176 9.11025C37.8648 9.08548 37.9026 9.0531 37.9639 9.03976C38.03 9.02452 38.115 9.02643 38.1952 9.02262C40.2201 8.88736 42.245 8.7502 44.2746 8.62256C44.5673 8.60351 44.6238 8.51015 44.7749 8.44347C44.8268 8.42061 44.874 8.38633 44.9354 8.38252C45.5584 8.3368 46.1814 8.29679 46.8045 8.25678C47.8948 8.18439 48.9851 8.11199 50.0801 8.0396C50.3964 8.01864 50.3964 8.01863 50.8023 7.83956C50.8495 7.8186 50.9157 7.79195 50.977 7.78814C53.8609 7.59573 56.7449 7.40331 59.6288 7.2128C59.7799 7.20328 59.8884 7.15946 59.9639 7.09469C60.0395 7.03182 60.148 6.9861 60.2943 6.97467C64.193 6.71558 68.0871 6.45648 71.9858 6.2012C72.2407 6.18405 72.42 6.14404 72.5333 6.0545C72.6135 5.98973 72.7221 5.95545 72.8825 5.94402C77.1683 5.66016 81.4541 5.37631 85.7446 5.09055C88.6285 4.90004 91.5125 4.70572 94.3964 4.51902C94.6607 4.50188 94.8023 4.44281 94.9344 4.3647C94.9769 4.33803 95.0194 4.29421 95.076 4.2904C95.6944 4.24277 96.3126 4.19897 96.931 4.15515C97.1245 4.20659 97.318 4.25613 97.5115 4.30756C97.6578 4.23517 97.7995 4.16087 97.9458 4.08848C98.8804 4.03323 99.8008 3.9475 100.745 3.92083C100.806 3.91892 100.872 3.95512 100.938 3.97418C101.377 4.0942 101.627 4.08467 101.906 3.92464C102.005 3.86749 102.09 3.81605 102.241 3.80653C102.708 3.77224 103.18 3.74937 103.643 3.70937C103.893 3.68841 104.101 3.70746 104.28 3.77604C104.407 3.82557 104.54 3.84654 104.695 3.83511C105.555 3.77796 106.409 3.7227 107.268 3.66174C107.329 3.65793 107.386 3.62553 107.433 3.60267C107.532 3.55314 107.617 3.49981 107.712 3.44837C107.839 3.48076 107.981 3.50553 108.084 3.54744C108.217 3.59697 108.339 3.59696 108.519 3.58363C111.945 3.35311 115.377 3.12832 118.804 2.8959C119.096 2.87685 119.224 2.95687 119.422 2.99878C119.488 3.01402 119.554 3.03306 119.625 3.03687C119.7 3.04068 119.781 3.02926 119.856 3.02355C122.428 2.85209 125.001 2.68252 127.573 2.51107C127.913 2.48821 127.913 2.48821 128.418 2.60632C128.48 2.62156 128.56 2.63871 128.626 2.633C129.796 2.5587 130.967 2.47869 132.133 2.40249C132.284 2.39296 132.411 2.42344 132.548 2.46726C132.817 2.55298 132.836 2.55299 133.034 2.42726C133.129 2.3682 133.228 2.33199 133.384 2.31484C133.554 2.29579 133.69 2.30152 133.823 2.33582C134.011 2.38344 134.148 2.46344 134.436 2.44249C135.682 2.35295 136.933 2.27866 138.174 2.18721C138.458 2.16626 138.609 2.23103 138.798 2.27865C138.864 2.2958 138.925 2.32247 138.996 2.32819C139.067 2.3339 139.152 2.32056 139.227 2.31484C140.785 2.21197 142.347 2.11102 143.9 2.00052C144.192 1.97957 144.32 2.06147 144.518 2.10338C144.584 2.11862 144.66 2.1453 144.721 2.14149C145.656 2.08244 146.595 2.01955 147.53 1.95668C147.865 1.93382 147.865 1.93573 148.374 2.05194C148.436 2.06718 148.516 2.08242 148.582 2.07861C149.672 2.00812 150.767 1.93573 151.858 1.86334C152.193 1.84048 152.193 1.84048 153.161 1.93955C153.231 1.94717 153.307 1.95861 153.378 1.9548C154.624 1.87288 155.874 1.79286 157.121 1.70523C157.371 1.68808 157.578 1.70332 157.758 1.7719C157.885 1.82143 158.017 1.8424 158.173 1.83097C159.575 1.73762 160.982 1.64808 162.379 1.54902C162.648 1.52997 162.822 1.57186 163.011 1.62711C163.072 1.64616 163.134 1.67284 163.205 1.68046C163.275 1.68808 163.356 1.68045 163.431 1.67474C164.833 1.58139 166.24 1.49376 167.637 1.39279C167.92 1.37183 168.071 1.4366 168.26 1.48423C168.326 1.50138 168.397 1.53567 168.453 1.53376C169.001 1.50138 169.548 1.47281 170.091 1.42518C170.384 1.39851 170.511 1.48613 170.709 1.52804C170.776 1.54138 170.851 1.56997 170.912 1.56616C172.083 1.49186 173.254 1.41376 174.419 1.33375C174.585 1.32231 174.707 1.33944 174.839 1.38898C175.014 1.45565 175.217 1.48233 175.472 1.46137C176.015 1.41755 176.562 1.38708 177.11 1.35088C177.431 1.32993 177.431 1.32993 178.413 1.429C178.483 1.43662 178.559 1.44804 178.63 1.44423C179.564 1.38327 180.503 1.32421 181.433 1.25754C181.683 1.23849 181.891 1.25563 182.071 1.32421C182.198 1.37374 182.325 1.39471 182.486 1.38328C183.345 1.32613 184.199 1.26897 185.058 1.21182C185.37 1.19086 185.681 1.15466 185.993 1.15466C186.219 1.15656 186.385 1.248 186.588 1.29372C186.644 1.30706 186.739 1.29184 186.814 1.28803C187.905 1.21563 189 1.14895 190.085 1.06703C190.368 1.04607 190.519 1.11084 190.708 1.15847C190.774 1.17562 190.845 1.20991 190.902 1.208C191.293 1.18705 191.68 1.15847 192.072 1.1337C192.54 1.10322 193.012 1.08036 193.474 1.03845C193.852 1.00416 193.993 1.16989 194.295 1.17561C194.527 1.18132 194.763 1.14894 194.994 1.1337C195.461 1.10322 195.928 1.06893 196.396 1.04226C196.561 1.03274 196.688 1.00224 196.74 0.933661C196.75 0.920325 196.67 0.891761 196.618 0.874616C195.99 0.680298 195.99 0.680289 195.357 0.7222C194.966 0.748871 194.579 0.775547 194.187 0.798408C194.121 0.802218 194.045 0.786978 193.979 0.775548C193.79 0.743162 193.809 0.705064 193.97 0.636481C194.13 0.567899 194.253 0.484083 194.39 0.405975C194.583 0.455507 194.772 0.505021 194.966 0.554553C195.121 0.545027 195.277 0.533614 195.433 0.524088C196.212 0.474556 196.991 0.423116 197.769 0.377394C197.826 0.373584 197.897 0.411691 197.963 0.430742C198.152 0.485989 198.322 0.533603 198.595 0.512647C199.294 0.4574 199.997 0.417393 200.696 0.369766C201.003 0.34881 201.003 0.348812 201.541 0.466927C201.602 0.480262 201.682 0.495504 201.748 0.491694C202.452 0.447877 203.15 0.400256 203.853 0.354534C204.004 0.345009 204.151 0.369774 204.259 0.425021C204.302 0.447882 204.292 0.485976 204.472 0.798408C205.029 1.05178 205.411 1.02512 205.798 1.00226C205.963 0.992739 206.11 0.983204 206.218 0.945102C206.275 0.924147 206.346 0.893661 206.346 0.868895C206.346 0.849844 206.242 0.819357 206.176 0.815547C205.708 0.777446 205.265 0.85747 204.807 0.874616C204.594 0.882236 204.41 0.815557 204.373 0.706968C204.363 0.676487 204.349 0.644102 204.335 0.613621C204.321 0.58314 204.311 0.550756 204.297 0.520274C204.113 0.510749 204.004 0.545035 203.924 0.609807C203.858 0.663149 203.764 0.724112 203.636 0.752688C203.509 0.783169 203.334 0.777464 203.178 0.78699C203.027 0.796515 202.862 0.821278 202.721 0.807943C202.579 0.792702 202.466 0.737446 202.334 0.703154C202.272 0.686008 202.197 0.661252 202.135 0.665062C201.593 0.697448 201.054 0.729822 200.516 0.771734C200.233 0.794595 200.092 0.714594 199.912 0.665062C199.771 0.62696 199.629 0.636474 199.605 0.724107C199.544 0.933665 199.761 1.02129 200.243 0.981288C200.639 0.946996 200.998 0.941299 201.309 1.07084C201.352 1.08799 201.451 1.09561 201.512 1.0918C201.899 1.06894 202.282 1.04036 202.669 1.0175C202.739 1.01369 202.815 1.02129 202.881 1.02891C203.844 1.13179 203.844 1.1337 204.17 1.11084C204.325 1.09941 204.476 1.08989 204.462 0.800315C204.76 0.489788 205.232 0.468836 205.69 0.423114C205.987 0.394538 206.114 0.478365 206.308 0.522181C206.374 0.537422 206.445 0.567898 206.506 0.564087C207.521 0.50122 208.531 0.434533 209.541 0.364045C209.711 0.352615 209.834 0.364047 209.966 0.413579C210.136 0.476447 210.325 0.516462 210.594 0.493601C211.132 0.447879 211.679 0.419309 212.227 0.381208C212.505 0.362157 212.505 0.362137 213.067 0.480252C213.128 0.493588 213.208 0.508829 213.274 0.505019C213.822 0.472633 214.365 0.432638 214.908 0.398347C215.059 0.388822 215.196 0.41549 215.314 0.466927C215.432 0.518364 215.573 0.545032 215.72 0.535507C216.267 0.501215 216.81 0.463126 217.353 0.428835C217.419 0.425024 217.499 0.438359 217.56 0.451695C218.136 0.569809 218.136 0.56979 218.4 0.550739C218.788 0.522163 219.184 0.508842 219.566 0.470741C219.939 0.432639 220.133 0.543124 220.388 0.604087C221.086 0.56027 221.789 0.524083 222.483 0.470741C222.766 0.44788 222.918 0.510742 223.106 0.560274C223.172 0.577419 223.238 0.613619 223.3 0.611714C223.536 0.604094 223.767 0.583142 223.998 0.567901C224.23 0.552661 224.466 0.537422 224.697 0.522181C224.961 0.577429 225.136 0.706972 225.514 0.663155C225.74 0.636484 225.981 0.630769 226.212 0.615528C226.443 0.600288 226.679 0.585049 226.911 0.569808C227.066 0.560283 227.227 0.554559 227.378 0.537414C227.656 0.508837 227.793 0.602197 227.992 0.644109C228.058 0.657444 228.133 0.68029 228.194 0.67648C228.662 0.649809 229.134 0.62695 229.592 0.583134C229.946 0.548842 230.186 0.606002 230.436 0.686015C230.488 0.703161 230.578 0.712685 230.644 0.708875C231.192 0.676489 231.734 0.636471 232.277 0.60218C232.424 0.592654 232.565 0.623135 232.683 0.672666C232.806 0.724103 232.943 0.748888 233.094 0.739363C233.637 0.705071 234.184 0.666959 234.727 0.632667C234.793 0.628857 234.873 0.644101 234.935 0.659341C235.463 0.777456 235.463 0.779363 235.775 0.756502C235.85 0.750787 235.931 0.746962 236.006 0.741246C236.393 0.714575 236.794 0.705063 237.172 0.659341C237.606 0.607904 237.922 0.672679 238.229 0.781269C238.616 0.758408 239.013 0.74507 239.39 0.706968C239.674 0.678392 239.825 0.750781 240.013 0.798408C240.079 0.815554 240.15 0.849845 240.207 0.846035C240.754 0.813648 241.302 0.785083 241.84 0.737456C242.133 0.710785 242.26 0.796497 242.458 0.840314C242.524 0.855555 242.595 0.88224 242.657 0.878429C242.968 0.863189 243.28 0.840317 243.591 0.819361C243.955 0.794595 243.955 0.796498 244.436 0.912708C244.663 0.967955 244.889 0.924136 245.111 0.910801C245.347 0.89556 245.569 0.884133 245.758 0.962242C245.876 1.01177 246.017 1.04226 246.164 1.03464C246.475 1.01749 246.791 1.00035 247.098 0.971776C247.344 0.948915 247.556 0.964148 247.735 1.03464C247.863 1.08417 247.995 1.10895 248.151 1.09752C248.849 1.0518 249.553 1.00415 250.251 0.960335C250.312 0.956524 250.397 0.973677 250.454 0.990822C250.586 1.02511 250.714 1.06321 250.841 1.10131C251.148 1.08416 251.464 1.07656 251.766 1.04989C252.087 1.02322 252.38 1.01369 252.63 1.11847C252.682 1.14133 252.757 1.1737 252.819 1.1718C253.055 1.16417 253.286 1.14513 253.517 1.12989C253.749 1.11465 253.985 1.09941 254.216 1.08417C254.485 1.1318 254.655 1.26896 255.033 1.22514C255.259 1.19847 255.5 1.19276 255.731 1.17752C255.962 1.16228 256.198 1.14513 256.43 1.1318C256.505 1.12799 256.59 1.11845 256.656 1.12608C256.727 1.1337 256.788 1.16037 256.85 1.17942C257.038 1.23467 257.213 1.28992 257.482 1.25754C257.709 1.23087 257.949 1.22515 258.181 1.208C258.497 1.18705 258.497 1.18705 259.021 1.30707C259.233 1.3566 259.474 1.29183 259.677 1.33375C259.814 1.36232 259.932 1.40994 260.064 1.44232C260.121 1.45566 260.21 1.46137 260.276 1.45756C260.588 1.44041 260.904 1.42327 261.211 1.3947C261.461 1.37184 261.669 1.39469 261.843 1.46328C261.971 1.51281 262.098 1.53378 262.259 1.52235C263.038 1.469 263.816 1.42327 264.591 1.36421C264.855 1.34325 265.067 1.37565 265.214 1.44423C265.464 1.56235 265.818 1.42328 266.077 1.51853C266.238 1.57759 266.398 1.64618 266.691 1.6176C267.229 1.56807 267.776 1.54138 268.319 1.50709C268.513 1.55853 268.706 1.60998 268.905 1.66141C269.216 1.64046 269.528 1.61949 269.839 1.60044C270.07 1.5852 270.306 1.56805 270.538 1.55472C270.613 1.55091 270.693 1.54328 270.764 1.55281C270.835 1.56234 270.892 1.58711 270.958 1.60616C271.284 1.69951 271.283 1.70142 271.822 1.66332C272.053 1.64617 272.275 1.63474 272.468 1.71095C272.648 1.78143 272.86 1.79476 273.105 1.77381C273.568 1.7357 274.035 1.70713 274.507 1.68046C274.654 1.67093 274.79 1.70332 274.913 1.75285C275.097 1.83096 275.324 1.82334 275.555 1.80239C275.862 1.77571 276.164 1.74905 276.424 1.85573C276.475 1.87859 276.556 1.91096 276.612 1.90906C276.999 1.89382 277.391 1.8824 277.769 1.8462C278.146 1.81 278.33 1.92811 278.59 1.98527C278.977 1.9605 279.369 1.93573 279.756 1.91096C279.831 1.90525 279.921 1.88811 279.987 1.89764C280.266 1.93765 280.426 2.08052 280.808 2.03671C281.03 2.01194 281.271 2.00433 281.502 1.99861C281.564 1.99671 281.644 2.02908 281.686 2.05385C281.71 2.06718 281.686 2.10337 281.658 2.12243C281.573 2.17577 281.469 2.22531 281.394 2.28056C281.384 2.28818 281.474 2.32246 281.526 2.3377C281.653 2.37199 281.8 2.36629 281.97 2.35105C282.116 2.33771 282.267 2.36438 282.371 2.42154C282.413 2.4444 282.399 2.48249 282.309 2.60823C282.309 2.70158 282.408 2.65966 282.442 2.59869C282.493 2.51106 282.394 2.48249 282.206 2.53011C282.073 2.56441 282.007 2.61394 282.04 2.65395C282.059 2.6749 282.149 2.70158 282.309 2.60823C282.725 2.49392 283.036 2.47298 283.348 2.45202C283.428 2.44631 283.522 2.42724 283.579 2.43867C283.782 2.4844 283.971 2.53965 284.169 2.59109C284.396 2.57966 284.608 2.55107 284.83 2.62537C285.141 2.73015 285.156 2.72062 285.458 2.69967C285.613 2.68824 285.769 2.67873 285.925 2.6692C286.081 2.65968 286.203 2.68825 286.34 2.73206C286.619 2.8216 286.642 2.82159 286.826 2.69967C286.935 2.62537 287.01 2.60061 287.147 2.6349C287.6 2.75111 287.605 2.75873 287.992 2.72444C288.313 2.69586 288.615 2.68824 288.851 2.79683C289.012 2.87303 289.064 2.85589 289.191 2.77588C289.531 2.56441 289.687 2.56822 290.324 2.72062C290.621 2.79301 290.928 2.71491 291.23 2.70539C291.485 2.69777 291.664 2.74348 291.683 2.8635C291.698 2.9378 291.74 2.99115 291.91 3.01592C291.976 3.02544 292.056 3.03877 292.122 3.03496C292.514 3.0121 292.901 2.98543 293.293 2.95876C293.491 2.94542 293.6 2.8559 293.562 2.73778C293.519 2.61205 293.595 2.56631 293.878 2.53011C294.048 2.50916 294.185 2.51299 294.322 2.54728C294.473 2.58538 294.43 2.61967 294.298 2.68825C293.982 2.8559 294.02 2.95875 294.426 3.07496C294.567 3.11497 294.681 3.15118 294.714 3.21024C294.732 3.24072 294.714 3.28072 294.756 3.30359C294.987 3.43123 295.308 3.51315 295.667 3.57411C296.012 3.52268 296.248 3.60839 296.512 3.67697C296.72 3.73031 296.965 3.68461 297.187 3.66555C297.437 3.6446 297.645 3.65983 297.824 3.73032C297.952 3.77985 298.084 3.80271 298.239 3.79318C298.551 3.77222 298.867 3.75889 299.174 3.72841C299.438 3.70174 299.637 3.73985 299.802 3.80462C300.009 3.88654 300.241 3.83128 300.458 3.84271C300.751 3.85605 300.897 4.02559 301.279 3.97987C301.506 3.9532 301.742 3.94368 301.978 3.93606C302.039 3.93415 302.115 3.96655 302.166 3.98941C302.417 4.09419 302.709 4.08847 303.03 4.05799C303.252 4.03703 303.469 4.01799 303.686 4.09038C304.045 4.21231 304.442 4.319 304.819 4.4314C304.871 4.51903 304.833 4.62189 305.102 4.67332C305.244 4.69999 305.376 4.74002 305.485 4.78383C305.617 4.83527 305.739 4.84861 305.909 4.83527C306.216 4.8086 306.537 4.80287 306.839 4.76858C307.118 4.7381 307.292 4.80098 307.462 4.86004C307.599 4.90767 307.727 4.93052 307.892 4.89622C308.062 4.86384 308.185 4.88479 308.321 4.93622C308.515 5.00671 308.529 4.9991 309.171 5.02006C309.237 5.02196 309.317 5.05053 309.355 5.07529C309.374 5.08863 309.331 5.12675 309.298 5.1458C309.256 5.16866 309.19 5.19532 309.128 5.20103C308.43 5.25056 307.727 5.29438 307.028 5.34391C306.957 5.34963 306.882 5.36298 306.83 5.38203C306.773 5.40298 306.702 5.43154 306.702 5.45821C306.702 5.47726 306.797 5.50013 306.863 5.51347C307.071 5.55728 307.316 5.49061 307.519 5.54014C307.656 5.57253 307.769 5.61824 307.906 5.64872C307.963 5.66206 308.052 5.66016 308.123 5.65635C308.359 5.64301 308.59 5.62397 308.826 5.61253C308.893 5.61063 308.968 5.62969 309.029 5.64493C309.483 5.75923 309.483 5.75923 309.874 5.73446C310.03 5.72494 310.195 5.69636 310.342 5.70779C310.483 5.71922 310.606 5.77066 310.733 5.80304C310.998 5.87163 311.248 5.9383 311.267 6.0869C311.276 6.14405 311.432 6.19357 311.588 6.19738C311.739 6.20119 311.899 6.18026 312.055 6.16883C312.423 6.14596 312.423 6.14596 312.9 6.26217C313.032 6.29456 313.173 6.29836 313.343 6.27931C313.41 6.27169 313.49 6.27932 313.561 6.28885C313.792 6.31742 313.792 6.35361 313.641 6.42219C313.428 6.52316 313.447 6.53269 314.042 6.61842C314.269 6.65081 314.443 6.71177 314.632 6.76511C314.939 6.85084 314.934 6.85083 314.731 6.96323C314.684 6.98799 314.641 7.01467 314.594 7.04134C314.457 7.11564 314.349 7.19565 314.066 7.20327C313.754 7.21089 313.443 7.24138 313.131 7.26234C312.829 7.28329 312.749 7.329 312.777 7.45854C312.81 7.61476 312.871 7.63191 313.414 7.63C313.57 7.63 313.707 7.64524 313.825 7.69668C313.768 7.75764 313.664 7.80527 313.513 7.8167C313.126 7.84527 312.735 7.87004 312.348 7.89481C312.036 7.91577 311.725 7.93671 311.413 7.95767C311.219 7.97101 311.097 8.07008 311.149 8.18057C311.177 8.24344 311.201 8.3063 311.224 8.36917C311.276 8.49491 311.375 8.5273 311.691 8.52159C311.772 8.51968 311.847 8.50443 311.923 8.50824C312.229 8.52157 312.376 8.67969 312.744 8.64731C313.051 8.62064 313.372 8.61492 313.674 8.58063C313.952 8.55015 314.108 8.61875 314.302 8.67019C314.368 8.68734 314.439 8.72351 314.495 8.72161C314.887 8.70065 315.279 8.67971 315.661 8.64352C315.84 8.62827 315.949 8.6397 316.09 8.68542C316.43 8.79592 316.44 8.7902 316.945 8.75591C317.313 8.72924 317.318 8.73305 317.79 8.84925C317.922 8.88164 318.063 8.88163 318.233 8.86639C318.455 8.84734 318.686 8.81686 318.918 8.84544C318.989 8.85306 319.078 8.87593 319.102 8.9007C319.116 8.91784 319.05 8.95975 318.993 8.97309C318.578 9.07215 318.092 9.05501 317.639 9.09502C317.497 9.10645 317.355 9.07025 317.237 9.01881C317.115 8.96737 316.983 8.94642 316.822 8.95595C316.511 8.97691 316.194 8.99024 315.888 9.02072C315.623 9.04739 315.439 9.00357 315.255 8.94451C315.194 8.92546 315.123 8.88926 315.062 8.89116C314.363 8.92926 313.66 8.96737 312.966 9.02072C312.687 9.04358 312.527 8.98262 312.338 8.93118C312.272 8.91404 312.206 8.87784 312.145 8.87974C311.909 8.88736 311.677 8.90831 311.441 8.92356C310.582 8.98071 309.728 9.03786 308.869 9.0912C308.812 9.09501 308.741 9.055 308.675 9.03786C308.548 9.00356 308.416 8.97117 308.284 8.93879C308.048 8.95403 307.816 8.97308 307.58 8.98451C307.41 8.99213 307.259 9.01881 307.236 9.0912C307.222 9.13883 307.377 9.18264 307.543 9.17883C307.703 9.17502 307.864 9.15216 307.996 9.17692C308.652 9.29885 308.652 9.30076 309.062 9.27599C309.421 9.25313 309.383 9.23407 309.7 9.33885C309.836 9.38457 309.959 9.41125 310.115 9.39982C310.502 9.37315 310.894 9.34648 311.286 9.32362C311.347 9.31981 311.427 9.33886 311.488 9.3541C311.951 9.46841 311.951 9.47221 312.333 9.44364C312.834 9.40935 312.853 9.39982 313.188 9.51603C313.419 9.59604 313.631 9.54079 313.853 9.53698C314.108 9.61128 314.387 9.67797 314.618 9.76179C314.892 9.86086 315.18 9.84369 315.491 9.81512C315.722 9.79416 315.949 9.78654 316.138 9.86465C316.317 9.93704 316.534 9.94468 316.78 9.92563C317.001 9.90848 317.228 9.87227 317.459 9.91419C317.521 9.92562 317.615 9.9542 317.61 9.97135C317.606 9.99802 317.544 10.0361 317.483 10.0476C317.049 10.1257 316.572 10.1238 316.114 10.1599C316.053 10.1657 315.973 10.1447 315.911 10.1295C315.779 10.0952 315.652 10.0552 315.524 10.019C315.293 10.0304 315.057 10.0342 314.83 10.0571C314.656 10.0742 314.523 10.0723 314.396 10.0266C314.278 9.98469 314.151 9.93324 314.009 9.91991C313.867 9.90657 313.702 9.93515 313.546 9.94658C313.391 9.95801 313.211 9.95228 313.089 9.98277C312.966 10.0132 312.89 10.0799 312.81 10.1333C312.72 10.1923 312.598 10.2114 312.418 10.2171C312.253 10.2228 312.121 10.2152 311.998 10.1619C311.946 10.139 311.875 10.1218 311.805 10.1066C311.739 10.0933 311.663 10.0723 311.602 10.0761C310.898 10.1199 310.2 10.1676 309.497 10.2133C309.147 10.2362 309.152 10.2361 308.425 10.1237C308.359 10.1142 308.279 10.1009 308.213 10.1047C307.821 10.1276 307.434 10.1542 307.042 10.1809C306.646 10.2076 306.651 10.2038 305.976 10.0837C305.853 10.0609 305.673 10.0914 305.527 10.0876C305.22 10.078 305.069 9.918 304.711 9.94849C304.404 9.97516 304.083 9.98087 303.776 10.0152C303.497 10.0456 303.337 9.97897 303.148 9.92753C303.082 9.91039 303.011 9.87228 302.955 9.87609C302.251 9.918 301.553 9.96563 300.618 9.97135C300.387 9.97135 300.491 10.0114 300.642 10.0247C300.859 10.0457 300.93 10.0056 300.812 9.92944C300.727 9.8761 300.604 9.84941 300.505 9.86274C300.453 9.87036 300.387 9.90657 300.618 9.97135C300.864 10.0437 300.85 10.0837 300.892 10.1066C300.996 10.1618 301.142 10.1847 301.293 10.1771C301.529 10.1638 301.761 10.1447 301.997 10.1333C302.063 10.1295 302.143 10.1428 302.204 10.158C302.723 10.2762 302.728 10.2838 303.28 10.2381C303.455 10.2247 303.582 10.2247 303.719 10.2609C303.908 10.3105 304.045 10.3943 304.333 10.3676C304.715 10.3314 305.107 10.3105 305.499 10.2895C305.56 10.2857 305.626 10.32 305.697 10.3352C305.891 10.3809 306.032 10.4667 306.32 10.4305C306.542 10.4019 306.783 10.3943 307.019 10.3885C307.08 10.3866 307.174 10.4171 307.203 10.4419C307.259 10.4857 307.189 10.5372 307.028 10.5734C306.962 10.5886 306.872 10.5848 306.797 10.5905C306.485 10.6115 306.174 10.6343 305.862 10.6514C305.697 10.661 305.541 10.6896 305.522 10.76C305.508 10.8077 305.678 10.8496 305.839 10.8458C306.075 10.8401 306.311 10.8248 306.537 10.8C306.938 10.7581 307.288 10.7696 307.613 10.8896C307.845 10.9734 307.831 10.9429 308.076 11.1906C308.137 11.2535 308.321 11.2592 308.482 11.2554C308.869 11.2458 309.048 11.2744 309.015 11.3335C308.973 11.4059 308.836 11.4287 308.661 11.4382C308.35 11.4535 308.038 11.4783 307.727 11.4992C307.651 11.5049 307.566 11.5164 307.495 11.5125C307.425 11.5087 307.359 11.4859 307.297 11.4687C307.165 11.4325 307.052 11.3773 306.91 11.3639C306.768 11.3506 306.603 11.3792 306.448 11.3906C306.292 11.4001 306.127 11.4287 305.985 11.4154C305.843 11.402 305.725 11.3449 305.598 11.3106C305.537 11.2935 305.461 11.2668 305.4 11.2687C305.088 11.2839 304.777 11.3087 304.465 11.3278C304.083 11.3525 304.083 11.3525 303.62 11.2344C303.488 11.2001 303.351 11.202 303.177 11.2173C302.799 11.2478 302.794 11.242 302.105 11.1315C302.039 11.1201 301.959 11.1068 301.893 11.1125C301.189 11.1563 300.491 11.2039 299.792 11.2496C299.193 11.2897 299.193 11.2897 298.862 11.4802C298.617 11.6212 298.612 11.6211 298.853 11.6859C299.047 11.7393 299.221 11.8174 299.434 11.8459C299.632 11.8726 299.877 11.7869 300.094 11.8745C300.203 11.9183 300.345 11.966 300.481 11.9736C300.699 11.9831 300.93 11.9279 301.138 12.0117C301.241 12.0536 301.397 12.0974 301.529 12.0993C301.761 12.1031 301.997 12.0726 302.228 12.0593C302.299 12.0555 302.379 12.0555 302.445 12.065C302.516 12.0765 302.577 12.0993 302.638 12.1184C302.827 12.1831 303.03 12.2136 303.276 12.1812C303.677 12.1279 304.036 12.1546 304.347 12.2765C304.39 12.2936 304.493 12.2955 304.56 12.2879C304.729 12.2689 304.876 12.267 305.003 12.3032C305.055 12.3184 305.131 12.3451 305.121 12.3622C305.107 12.3908 305.05 12.4289 304.989 12.4384C304.545 12.5032 304.069 12.5108 303.611 12.5451C303.549 12.5489 303.474 12.5241 303.413 12.507C303.28 12.4727 303.167 12.4156 303.026 12.4022C302.884 12.3889 302.719 12.4137 302.563 12.4232C302.407 12.4327 302.242 12.4613 302.1 12.4499C301.959 12.4365 301.827 12.3889 301.713 12.347C301.581 12.2993 301.454 12.2936 301.279 12.3127C301.053 12.3375 300.817 12.3413 300.585 12.3546C300.458 12.3184 300.33 12.2784 300.198 12.2441C300.137 12.2269 300.061 12.206 299.995 12.2079C299.684 12.2231 299.372 12.246 299.061 12.2669C298.749 12.2879 298.749 12.2879 298.221 12.1698C298.159 12.1565 298.079 12.1412 298.013 12.145C297.621 12.1679 297.234 12.1965 296.842 12.2193C296.691 12.2288 296.554 12.2022 296.432 12.1507C296.314 12.0993 296.172 12.0707 296.026 12.0803C295.403 12.1203 294.78 12.1584 294.157 12.206C293.906 12.225 293.694 12.2079 293.524 12.1393C293.326 12.0612 293.104 12.0803 292.873 12.0955C292.349 12.1336 292.344 12.1317 292.009 12.0345C291.943 12.0155 291.877 11.9793 291.816 11.9812C291.273 12.0098 290.725 12.0364 290.187 12.0822C289.904 12.1069 289.753 12.0403 289.564 11.9907C289.498 11.9736 289.427 11.9374 289.371 11.9412C288.979 11.9621 288.587 11.9812 288.205 12.0193C287.822 12.0574 287.676 11.8802 287.388 11.8821C286.996 11.884 286.609 11.9279 286.222 11.9545C285.911 11.9755 285.599 11.9964 285.288 12.0174C284.976 12.0384 284.665 12.0555 284.353 12.0803C284.188 12.0936 284.065 12.0764 283.928 12.0288C283.754 11.9659 283.546 11.9164 283.357 11.8593C283.069 11.7774 283.069 11.7774 282.72 11.8002C282.645 11.8059 282.564 11.8097 282.489 11.8154C281.918 11.8574 281.918 11.8536 281.191 11.7335C281.158 11.7278 281.073 11.7488 281.04 11.764C280.941 11.8136 280.851 11.8669 280.761 11.9183C280.634 11.8878 280.478 11.8707 280.393 11.8269C280.152 11.7031 279.775 11.8726 279.529 11.7507C279.44 11.705 279.284 11.6649 279.142 11.6535C278.996 11.6421 278.831 11.6688 278.68 11.6802C278.288 11.7088 278.288 11.7069 277.953 11.8764C277.783 11.9602 277.538 11.945 277.316 11.964C277.084 11.985 276.862 11.9964 276.669 11.9183C276.494 11.8478 276.282 11.8307 276.032 11.8536C275.725 11.8821 275.409 11.8993 275.097 11.9164C275.031 11.9202 274.951 11.9107 274.885 11.8993C274.163 11.7869 274.163 11.785 273.813 11.8097C273.658 11.8212 273.497 11.825 273.346 11.8421C273.091 11.8726 272.898 11.8326 272.714 11.7716C272.652 11.7526 272.581 11.7164 272.52 11.7183C272.209 11.7278 271.902 11.745 271.595 11.7621C271.359 11.7755 271.123 11.7831 270.896 11.8097C270.519 11.8536 270.335 11.7297 270.075 11.6726C269.688 11.6973 269.296 11.7145 268.909 11.7488C268.73 11.764 268.612 11.7583 268.475 11.7126C268.3 11.6554 268.14 11.5907 267.857 11.6192C267.479 11.6573 267.083 11.6707 266.696 11.6935C266.436 11.6345 266.247 11.5144 265.874 11.5583C265.648 11.5849 265.407 11.5907 265.176 11.6059C264.864 11.6268 264.553 11.6459 264.241 11.6688C263.906 11.6916 263.911 11.6859 263.396 11.5735C263.099 11.5068 262.792 11.5811 262.49 11.5926C262.254 11.6021 262.136 11.6897 262.193 11.8021C262.249 11.9145 262.122 12.0022 261.905 12.0174C261.362 12.0536 260.814 12.0917 260.272 12.1241C260.206 12.1279 260.125 12.1145 260.064 12.1012C259.483 11.9812 259.483 11.9831 259.224 12.0003C258.837 12.0288 258.44 12.0441 258.058 12.0803C257.794 12.105 257.6 12.065 257.43 12.0003C257.298 11.9507 257.175 11.9393 257.005 11.9507C255.136 12.0784 253.267 12.1965 251.403 12.3279C251.124 12.347 250.964 12.2917 250.775 12.2403C250.709 12.2232 250.648 12.1869 250.581 12.1869C250.426 12.1869 250.27 12.2041 250.114 12.2155C249.416 12.2613 248.717 12.3165 248.014 12.3508C247.716 12.366 247.636 12.4537 247.509 12.5261C247.41 12.5813 247.296 12.6042 247.122 12.6118C246.952 12.6194 246.829 12.6099 246.697 12.5603C246.527 12.4956 246.334 12.4556 246.069 12.4822C245.762 12.5127 245.451 12.5261 245.135 12.547C244.974 12.5565 244.851 12.5908 244.799 12.6594C244.79 12.6708 244.889 12.6994 244.946 12.7166C245.135 12.7737 245.314 12.8404 245.526 12.8804C245.743 12.9204 245.979 12.8747 246.206 12.8632C246.286 12.8594 246.362 12.848 246.437 12.8499C246.508 12.8518 246.593 12.8613 246.645 12.8785C246.89 12.9642 247.15 13.0233 247.49 12.9718C247.782 12.9966 247.934 13.1547 248.307 13.1128C248.533 13.088 248.769 13.0766 249.005 13.0671C249.066 13.0652 249.132 13.0995 249.199 13.1166C249.387 13.1643 249.538 13.2405 249.822 13.2081C250.124 13.1738 250.445 13.1681 250.751 13.1414C250.921 13.1262 251.044 13.1395 251.176 13.189C251.346 13.2519 251.54 13.2995 251.804 13.269C252.031 13.2423 252.271 13.2366 252.503 13.2195C252.805 13.1985 252.805 13.2004 253.343 13.3186C253.404 13.3319 253.484 13.3471 253.55 13.3433C253.942 13.3205 254.329 13.2919 254.721 13.269C254.872 13.2595 255.018 13.2843 255.122 13.3395C255.165 13.3624 255.15 13.4005 255.165 13.4329C254.386 13.4843 253.607 13.5281 252.833 13.591C252.54 13.6158 252.408 13.5376 252.215 13.4938C252.148 13.4786 252.078 13.4462 252.016 13.45C251.469 13.4824 250.926 13.5167 250.383 13.5586C250.213 13.5719 250.086 13.5643 249.959 13.5091C249.633 13.3624 249.236 13.4424 248.868 13.4633C248.585 13.4786 248.495 13.5376 248.528 13.6634C248.571 13.812 248.741 13.8577 249.175 13.831C249.331 13.8215 249.486 13.8082 249.642 13.8005C249.793 13.7929 249.93 13.8177 250.053 13.8691C250.171 13.9206 250.312 13.9472 250.459 13.9396C250.77 13.9225 251.086 13.9053 251.389 13.8767C251.639 13.8539 251.846 13.8729 252.021 13.9434C252.215 14.0215 252.441 14.0044 252.668 13.9872C253.196 13.9491 253.201 13.951 253.531 14.0463C253.598 14.0654 253.664 14.1016 253.725 14.0997C254.268 14.0711 254.815 14.0463 255.349 14.0006C255.627 13.9777 255.788 14.0387 255.972 14.0882C256.038 14.1054 256.104 14.1435 256.165 14.1397C256.557 14.1187 256.949 14.0977 257.331 14.0615C257.51 14.0444 257.619 14.0558 257.765 14.1015C258.115 14.2139 258.124 14.2101 258.62 14.1739C258.771 14.1625 258.936 14.1415 259.077 14.1568C259.219 14.172 259.332 14.2273 259.465 14.2616C259.526 14.2768 259.601 14.2978 259.667 14.2939C259.979 14.2787 260.291 14.2559 260.602 14.2349C260.895 14.2139 260.895 14.2159 261.442 14.334C261.664 14.3835 261.895 14.3416 262.117 14.3263C262.358 14.3092 262.575 14.3092 262.759 14.3835C262.943 14.4578 263.165 14.454 263.401 14.4387C263.623 14.4235 263.849 14.3816 264.076 14.433C264.595 14.5512 264.595 14.553 264.916 14.5302C265.383 14.4978 265.846 14.4673 266.318 14.4387C266.379 14.4349 266.46 14.4578 266.521 14.473C266.653 14.5073 266.766 14.5645 266.908 14.5778C267.05 14.593 267.215 14.5702 267.366 14.5588C267.852 14.5226 267.885 14.5092 268.211 14.635C268.484 14.7378 268.824 14.5892 269.079 14.7074C269.226 14.774 269.424 14.8274 269.698 14.795C269.924 14.7683 270.16 14.7607 270.396 14.7455C270.769 14.7207 270.769 14.7226 271.241 14.8369C271.302 14.8522 271.383 14.8712 271.444 14.8674C271.755 14.8521 272.072 14.8388 272.374 14.8045C272.728 14.7645 272.954 14.8369 273.219 14.9074C273.426 14.9626 273.672 14.9169 273.894 14.8979C274.134 14.8788 274.351 14.8845 274.531 14.9588C274.72 15.035 274.941 15.0255 275.177 15.0103C275.399 14.9969 275.626 14.9531 275.852 15.0064C276.339 15.1246 276.339 15.1246 276.693 15.1017C277.004 15.0807 277.316 15.0579 277.627 15.0427C277.689 15.0388 277.764 15.0636 277.825 15.0807C277.958 15.115 278.071 15.1722 278.212 15.1855C278.354 15.1989 278.519 15.1741 278.675 15.1646C278.831 15.1551 278.996 15.1265 279.138 15.1379C279.279 15.1493 279.411 15.197 279.525 15.2389C279.657 15.2884 279.779 15.2941 279.959 15.2751C280.185 15.2503 280.421 15.2446 280.653 15.2313C280.78 15.2675 280.912 15.3036 281.035 15.3436C281.162 15.3856 281.299 15.3817 281.474 15.3684C282.054 15.3227 282.059 15.3284 282.545 15.4465C282.767 15.4999 282.999 15.456 283.22 15.4427C283.456 15.4275 283.678 15.4199 283.862 15.4961C284.042 15.5685 284.263 15.578 284.5 15.5551C284.651 15.5399 284.811 15.5304 284.967 15.5246C285.038 15.5227 285.123 15.5304 285.174 15.5456C285.425 15.6256 285.67 15.698 286.015 15.6466C286.317 15.6618 286.468 15.818 286.831 15.7875C287.138 15.7609 287.459 15.7551 287.761 15.7208C288.039 15.6904 288.238 15.7437 288.379 15.8104C288.634 15.9285 288.993 15.7685 289.248 15.8847C289.394 15.9514 289.583 16.0047 289.866 15.9761C290.178 15.9457 290.277 15.9857 290.366 16.1057C290.418 16.1743 290.409 16.2295 290.315 16.2829C290.22 16.3381 290.116 16.3286 289.965 16.2657C289.791 16.1952 289.583 16.1819 289.333 16.1971C289.087 16.2124 288.936 16.1133 288.733 16.0752C288.53 16.0352 288.29 16.1019 288.077 16.0504C287.577 15.9304 287.577 15.9304 287.237 15.9533C287.006 15.9685 286.765 15.9761 286.539 16.0028C286.27 16.0352 286.095 15.9761 285.911 15.9228C285.845 15.9037 285.779 15.8675 285.722 15.8694C285.179 15.898 284.632 15.9247 284.094 15.9723C283.81 15.9971 283.659 15.9285 283.471 15.8809C283.404 15.8637 283.334 15.8295 283.277 15.8333C282.81 15.8599 282.347 15.8942 281.88 15.9266C281.79 15.978 281.691 16.0276 281.606 16.0828C281.516 16.14 281.394 16.1647 281.214 16.1628C280.917 16.1628 280.624 16.2429 280.327 16.1419C280.02 16.039 279.997 16.0447 279.699 16.0695C279.322 16.1019 278.92 16.0943 278.566 16.1686C278.505 16.1819 278.439 16.2181 278.439 16.2447C278.434 16.2619 278.533 16.2867 278.595 16.3019C278.802 16.3476 279.043 16.281 279.251 16.3286C279.388 16.3591 279.501 16.4048 279.638 16.4372C279.695 16.4505 279.779 16.4486 279.855 16.4467C279.935 16.4448 280.011 16.4315 280.086 16.4334C280.157 16.4353 280.233 16.4467 280.289 16.4638C280.549 16.5362 280.823 16.6029 281.054 16.6886C281.28 16.7725 281.493 16.7153 281.719 16.7115C282.626 16.8449 282.626 16.8468 283.235 16.8048C283.386 16.7953 283.541 16.7839 283.697 16.7858C283.763 16.7858 283.825 16.8201 283.891 16.8391C284.079 16.8963 284.259 16.9477 284.523 16.9172C284.75 16.8906 284.99 16.8849 285.222 16.8677C285.533 16.8468 285.533 16.8468 286.062 16.9668C286.194 16.9973 286.336 16.9935 286.506 16.9782C286.652 16.9649 286.803 16.9935 286.907 17.0487C286.949 17.0716 286.935 17.1097 286.949 17.142C286.482 17.1725 286.01 17.1935 285.557 17.2392C285.264 17.2678 285.132 17.1859 284.938 17.142C284.872 17.1268 284.802 17.0944 284.74 17.0982C284.278 17.1268 283.815 17.1592 283.353 17.1973C283.296 17.2011 283.225 17.2449 283.22 17.2716C283.211 17.3211 283.329 17.3687 283.499 17.3668C283.725 17.3649 283.947 17.3325 284.15 17.4106C284.32 17.4792 284.532 17.5097 284.783 17.4793C284.934 17.4621 285.094 17.4621 285.245 17.4469C285.647 17.4011 286.01 17.4107 286.312 17.5402C286.543 17.5745 286.77 17.5421 286.992 17.525C287.157 17.5116 287.317 17.4983 287.435 17.5345C287.685 17.6107 287.931 17.6869 288.276 17.6355C288.648 17.6888 288.932 17.8012 289.243 17.8926C289.389 17.9365 289.503 17.9612 289.673 17.9327C289.743 17.9212 289.828 17.9212 289.904 17.9155C290.06 17.906 290.225 17.8774 290.366 17.8888C290.508 17.9022 290.626 17.9574 290.754 17.9917C290.815 18.0089 290.886 18.0374 290.947 18.0355C291.183 18.026 291.414 18.0069 291.646 17.9917C291.877 17.9784 292.108 17.965 292.339 17.9517C292.533 18.0012 292.731 18.0508 292.925 18.1003C293.236 18.0794 293.548 18.0584 293.855 18.0393C294.199 18.0165 294.199 18.0184 294.695 18.1365C294.917 18.1898 295.153 18.1555 295.365 18.1308C295.719 18.0908 295.955 18.1632 296.205 18.2394C296.257 18.2546 296.351 18.2641 296.413 18.2565C296.658 18.2298 296.871 18.2508 297.05 18.3213C297.177 18.3708 297.305 18.3937 297.461 18.3842C298.003 18.348 298.546 18.3099 299.089 18.2775C299.155 18.2737 299.231 18.2908 299.292 18.306C299.773 18.4223 299.778 18.428 300.132 18.3975C300.448 18.3708 300.741 18.3594 300.991 18.4642C301.043 18.487 301.123 18.5194 301.18 18.5175C301.567 18.4985 301.959 18.4775 302.341 18.4451C302.516 18.4299 302.638 18.4356 302.775 18.4794C302.95 18.5347 303.106 18.6013 303.394 18.5766C304.191 18.5061 304.196 18.5175 305.14 18.6489C305.206 18.6585 305.296 18.6432 305.371 18.6356C305.532 18.6166 305.65 18.6432 305.791 18.6871C306.108 18.7861 306.117 18.7804 306.419 18.7595C306.65 18.7423 306.891 18.7385 307.118 18.7099C307.467 18.668 307.698 18.7423 307.958 18.8128C308.166 18.8681 308.406 18.8223 308.628 18.8052C308.869 18.7861 309.086 18.7918 309.265 18.8642C309.388 18.9138 309.52 18.9404 309.676 18.9309C310.219 18.8966 310.762 18.8585 311.304 18.8242C311.371 18.8204 311.451 18.8357 311.512 18.849C312.05 18.9671 312.05 18.9728 312.584 18.929C312.753 18.9157 312.895 18.9119 313.022 18.9519C313.145 18.99 313.277 19.0262 313.405 19.0624C313.636 19.049 313.872 19.0452 314.099 19.0224C314.273 19.0052 314.396 19.0128 314.533 19.0528C314.712 19.1043 314.863 19.1938 315.146 19.15C315.293 19.129 315.463 19.1348 315.609 19.1157C315.784 19.0909 315.902 19.1062 316.039 19.1557C316.209 19.2148 316.383 19.2757 316.657 19.2452C316.959 19.2109 317.28 19.2052 317.587 19.1786C317.757 19.1633 317.875 19.1786 318.012 19.2281C318.181 19.291 318.375 19.331 318.639 19.3062C319.177 19.2586 319.182 19.2681 319.706 19.3881C319.838 19.4186 319.98 19.4148 320.15 19.3996C320.296 19.3862 320.447 19.4148 320.551 19.47C320.65 19.531 320.641 19.5691 320.65 19.6015ZM278.59 2.41963C278.434 2.42915 278.278 2.44058 278.052 2.27484C278.038 2.24626 278.047 2.21198 278.014 2.18721C277.939 2.13578 277.821 2.09958 277.679 2.09387C277.424 2.08625 277.117 2.15101 277.122 2.20054C277.127 2.24245 277.207 2.27864 277.363 2.31293C277.429 2.32627 277.481 2.34913 277.542 2.36437C277.722 2.40819 277.863 2.49393 278.123 2.45012C278.076 2.332 278.099 2.39106 278.123 2.45012C278.099 2.52251 278.17 2.57395 278.34 2.5949C278.387 2.60062 278.458 2.5968 278.496 2.58537C278.642 2.54346 278.666 2.48632 278.557 2.33582C278.538 2.36058 278.552 2.40438 278.595 2.41581C278.637 2.42724 278.741 2.41773 278.793 2.4044C278.925 2.3682 278.991 2.32057 278.958 2.28056C278.939 2.25961 278.85 2.23293 278.793 2.23293C278.694 2.23293 278.604 2.27484 278.59 2.41963ZM316.756 24.5128C316.411 24.549 316.015 24.5356 315.67 24.6099C315.609 24.6233 315.548 24.6576 315.543 24.6842C315.538 24.7014 315.633 24.7262 315.689 24.7395C315.817 24.77 315.958 24.7604 316.124 24.7509C316.374 24.7376 316.52 24.8252 316.714 24.869C316.775 24.8824 316.855 24.8919 316.921 24.8881C317.304 24.8652 317.681 24.8405 318.063 24.8138C318.13 24.8081 318.2 24.7947 318.257 24.7776C318.446 24.7223 318.427 24.6861 318.243 24.6442C318.04 24.5985 317.879 24.5223 317.672 24.4861C317.374 24.4347 317.072 24.5032 316.756 24.5128ZM289.951 25.9035C289.72 25.9187 289.493 25.934 289.262 25.9492C289.186 25.9549 289.106 25.9568 289.035 25.9644C288.889 25.9778 288.781 26.0178 288.71 26.0806C288.818 26.1302 288.95 26.1588 289.097 26.153C289.328 26.1416 289.555 26.1168 289.786 26.1111C290.036 26.1035 290.182 26.1892 290.376 26.2331C290.437 26.2464 290.513 26.2483 290.584 26.2502C290.933 26.2578 291.145 26.1588 291.079 26.0197C291.032 25.9111 290.853 25.8463 290.636 25.8597C290.409 25.873 290.178 25.8882 289.951 25.9035ZM318.37 21.6971C318.427 21.6647 318.488 21.6418 318.517 21.6133C318.602 21.5161 318.568 21.4437 318.413 21.3675C318.224 21.2741 317.993 21.337 317.78 21.3465C317.728 21.3484 317.672 21.3884 317.643 21.4132C317.625 21.4304 317.625 21.4666 317.653 21.4761C317.884 21.5523 318.13 21.6228 318.37 21.6971ZM277.424 16.0695C277.198 16.0847 276.966 16.0962 276.74 16.1171C276.683 16.1228 276.631 16.159 276.598 16.1838C276.537 16.2295 276.603 16.2924 276.796 16.2981C277.018 16.3057 277.25 16.2733 277.481 16.2581C277.773 16.239 277.948 16.1685 277.84 16.1076C277.736 16.0485 277.594 16.0371 277.424 16.0695ZM28.9676 11.9983C29.1186 11.9888 29.2743 11.9812 29.4254 11.9679C29.567 11.9545 29.6756 11.9126 29.7464 11.8497C29.6284 11.8002 29.4962 11.7735 29.3499 11.7793C29.1186 11.7907 28.8921 11.8059 28.6655 11.825C28.5239 11.8364 28.3871 11.8783 28.354 11.9431C28.321 11.9926 28.6371 12.0212 28.9676 11.9983ZM257.463 11.705C257.525 11.7221 257.586 11.7564 257.647 11.7564C257.798 11.7564 257.954 11.745 258.096 11.7259C258.157 11.7183 258.204 11.684 258.233 11.6573C258.251 11.6402 258.247 11.6097 258.219 11.5945C258.082 11.503 257.534 11.5354 257.444 11.6402C257.435 11.6592 257.459 11.684 257.463 11.705ZM242.572 1.27277C242.586 1.30325 242.591 1.33373 242.609 1.36421C242.647 1.42136 242.751 1.46328 242.902 1.49186C243.02 1.44423 243.081 1.3909 243.077 1.33375C243.072 1.30326 243.058 1.27276 243.039 1.24228C243.001 1.18513 242.897 1.14323 242.746 1.11466C242.628 1.16038 242.572 1.21371 242.572 1.27277ZM329.278 26.235C329.236 26.2597 329.193 26.2845 329.146 26.3074C329.273 26.3626 329.392 26.3797 329.481 26.3493C329.538 26.3302 329.571 26.3016 329.613 26.2769C329.486 26.2216 329.373 26.2064 329.278 26.235ZM326.342 26.4941C326.404 26.5112 326.46 26.5341 326.526 26.5455C326.635 26.5645 326.734 26.5321 326.81 26.4636C326.748 26.4464 326.692 26.4236 326.626 26.4121C326.517 26.3931 326.418 26.4255 326.342 26.4941ZM328.202 26.1454C328.169 26.1912 328.235 26.2293 328.41 26.2616C328.452 26.2369 328.509 26.214 328.537 26.1873C328.584 26.1435 328.504 26.1035 328.334 26.073C328.287 26.0959 328.244 26.1207 328.202 26.1454ZM318.238 24.0918C318.205 24.1375 318.271 24.1756 318.446 24.208C318.488 24.1832 318.545 24.1603 318.573 24.1337C318.62 24.0898 318.54 24.0498 318.37 24.0194C318.323 24.0422 318.281 24.067 318.238 24.0918ZM304.663 10.6114C304.621 10.6362 304.578 10.661 304.531 10.6838C304.659 10.7391 304.777 10.7562 304.866 10.7257C304.923 10.7067 304.956 10.6781 304.998 10.6534C304.871 10.5981 304.758 10.5829 304.663 10.6114ZM291.66 3.45979C291.773 3.47313 291.867 3.44647 291.948 3.37598C291.886 3.35883 291.83 3.33597 291.764 3.32454C291.655 3.30549 291.556 3.33788 291.48 3.40647C291.542 3.42552 291.603 3.44265 291.66 3.45979ZM284.754 3.0121C284.712 3.03687 284.669 3.06164 284.622 3.0845C284.75 3.13974 284.868 3.15688 284.957 3.1264C285.014 3.10735 285.047 3.07878 285.09 3.05401C284.962 2.99876 284.849 2.98543 284.754 3.0121ZM237.927 1.27086C237.885 1.29563 237.842 1.3204 237.795 1.34326C237.922 1.3985 238.04 1.41564 238.13 1.38516C238.187 1.36611 238.22 1.33753 238.262 1.31277C238.135 1.25752 238.022 1.24419 237.927 1.27086ZM4.76333 16.7705C4.70197 16.7534 4.64066 16.7363 4.58402 16.7172C4.44714 16.7687 4.40467 16.8163 4.48019 16.8525C4.52739 16.8753 4.59814 16.8887 4.6595 16.9058C4.8011 16.8544 4.83413 16.8086 4.76333 16.7705Z" fill="#0D92F4"/>
</svg>
