<svg width="41" height="41" viewBox="0 0 41 41" fill="none" xmlns="http://www.w3.org/2000/svg">
<mask id="mask0_2778_2683" style="mask-type:luminance" maskUnits="userSpaceOnUse" x="2" y="2" width="37" height="37">
<path d="M2.5 2.5H38.5V38.5H2.5V2.5Z" fill="white"/>
</mask>
<g mask="url(#mask0_2778_2683)">
<path d="M34.6695 33.9855C31.7548 29.2153 26.4993 26.0313 20.5 26.0313M20.5 26.0313C14.5006 26.0313 9.24515 29.2153 6.33041 33.9855M20.5 26.0313C25.0822 26.0313 28.7969 22.3166 28.7969 17.7344C28.7969 13.1521 25.0822 9.43752 20.5 9.43752C15.9177 9.43752 12.2031 13.1521 12.2031 17.7344C12.2031 22.3166 15.9177 26.0313 20.5 26.0313ZM6.96618 6.37752L6.37752 6.96625C4.79514 8.54856 3.90625 10.6946 3.90625 12.9324V28.0676C3.90625 30.3054 4.79514 32.4514 6.37752 34.0338L6.96618 34.6225C8.54849 36.2048 10.6946 37.0938 12.9324 37.0938H28.0675C30.3053 37.0938 32.4514 36.2048 34.0338 34.6225L34.6225 34.0338C36.2048 32.4514 37.0938 30.3054 37.0938 28.0676V12.9324C37.0938 10.6946 36.2048 8.54856 34.6225 6.96625L34.0338 6.37752C32.4514 4.79521 30.3053 3.90625 28.0675 3.90625H12.9324C10.6946 3.90625 8.54849 4.79521 6.96618 6.37752Z" stroke="#074A80" stroke-width="2" stroke-miterlimit="10" stroke-linecap="round" stroke-linejoin="round"/>
</g>
</svg>
