<svg width="1512" height="431" viewBox="0 0 1512 431" fill="none" xmlns="http://www.w3.org/2000/svg">
<g opacity="0.8">
<path d="M490.673 430.876C481.202 430.876 471.983 430.524 463.124 429.823C444.543 428.351 427.378 425.329 412.102 420.84C395.684 416.017 381.284 409.445 369.299 401.307C345.212 384.95 333.161 365.361 321.506 346.417C319.216 342.697 316.849 338.85 314.445 335.118C298.045 309.681 277.255 287.4 250.892 267.001C198.303 226.308 124.344 191.58 37.0088 166.57C-63.9936 137.649 -172.588 123.242 -268.772 126.004C-325.304 127.629 -399.999 143.075 -433.382 169.454C-453.193 185.11 -454.791 202.483 -437.999 219.694L-438.332 219.767C-447.137 210.741 -450.973 201.692 -449.731 192.872C-448.591 184.781 -443.198 176.871 -433.697 169.364C-418.587 157.423 -393.668 146.84 -361.633 138.757C-332.032 131.29 -299.063 126.699 -268.794 125.829C-218.458 124.385 -164.923 127.591 -109.677 135.36C-59.5968 142.403 -10.1801 152.853 37.1993 166.42C124.586 191.443 198.589 226.19 251.208 266.907C277.585 287.32 298.386 309.614 314.797 335.065C317.204 338.797 319.571 342.645 321.857 346.365C333.502 365.295 345.545 384.87 369.6 401.203C392.862 417.001 424.351 426.571 463.186 429.646C516.966 433.907 582.274 424.996 637.879 405.81C718.011 378.161 773.624 337.917 827.408 298.999C836.836 292.178 846.582 285.124 856.233 278.313C881.288 260.626 915.22 237.707 955.546 217.289C996.767 196.418 1038.65 181.085 1083.6 170.41C1111.12 163.876 1140.28 159.473 1170.27 157.326C1197.97 155.341 1227.3 155.218 1257.43 156.957C1309.11 159.941 1364.78 168.37 1427.64 182.723C1551.42 210.988 1675.05 245.296 1795.12 284.695C1909.25 322.142 2021.18 364.516 2127.8 410.636L2127.55 410.764C1906.53 315.159 1670.99 238.488 1427.48 182.879C1289.91 151.462 1180.69 147.548 1083.77 170.564C985.166 193.978 916.286 236.233 856.537 278.408C846.89 285.218 837.143 292.271 827.716 299.093C773.917 338.024 718.286 378.28 638.099 405.948C612.187 414.889 583.036 421.863 553.801 426.115C538.357 428.361 523.005 429.83 508.166 430.481C502.252 430.746 496.415 430.876 490.673 430.876Z" fill="#A3CCEF"/>
<path d="M499.934 421.176C475.781 421.176 453.408 419.002 433.414 414.713C411.118 409.929 391.878 402.517 376.226 392.684C374.841 391.813 373.466 390.912 372.14 390.005C348.309 373.719 335.723 354.385 323.555 335.686C321.093 331.907 318.55 327.999 315.971 324.206C300.607 301.623 282.108 281.719 259.409 263.36C256.613 261.1 253.719 258.835 250.799 256.629C197.436 216.286 122.877 181.997 35.1819 157.47C-66.5497 129.042 -175.452 115.231 -271.464 118.582C-327.586 120.561 -401.936 136.26 -435.462 162.437C-455.537 178.111 -457.809 195.52 -442.039 212.781L-442.376 212.85C-450.642 203.803 -454.038 194.737 -452.466 185.906C-451.023 177.796 -445.41 169.87 -435.777 162.346C-420.513 150.426 -395.667 139.831 -363.933 131.707C-334.602 124.198 -301.776 119.475 -271.497 118.408C-221.223 116.654 -167.629 119.553 -112.207 127.024C-62.0063 133.792 -12.3551 143.986 35.3651 157.321C123.111 181.862 197.711 216.172 251.107 256.537C254.027 258.745 256.925 261.012 259.721 263.274C282.434 281.645 300.945 301.559 316.315 324.154C318.898 327.947 321.441 331.855 323.903 335.636C336.068 354.322 348.643 373.643 372.441 389.906C373.763 390.81 375.137 391.711 376.519 392.58C408.865 412.906 453.309 421.176 500.047 421.176C500.304 421.176 500.557 421.176 500.813 421.176C500.52 421.174 500.227 421.176 499.934 421.176ZM509.904 421.055C553.355 420 598.192 412.108 636.657 400.368C719.629 374.94 779.261 335.665 836.932 297.685C839.307 296.119 841.681 294.557 844.055 292.995C849.269 289.566 855.45 285.507 861.76 281.414C890.064 263.062 924.319 241.709 963.77 222.489C1005.74 202.038 1047.68 186.862 1091.97 176.092C1119.18 169.482 1147.94 164.825 1177.44 162.251C1204.78 159.867 1233.67 159.193 1263.3 160.248C1314.49 162.071 1369.53 168.985 1431.57 181.384C1492.06 193.455 1541.78 204.818 1588.05 217.143C1653.59 234.621 1716.02 254.758 1768.45 272.151C1890.34 312.703 2009.93 358.751 2123.91 409.015L2123.66 409.141C2009.69 358.884 1890.11 312.84 1768.24 272.293C1715.82 254.902 1653.4 234.768 1587.87 217.295C1541.62 204.974 1491.91 193.615 1431.43 181.547C1296.29 154.534 1188.47 152.849 1092.14 176.248C992.151 200.559 920.948 243.333 862.057 281.518C855.744 285.611 849.566 289.668 844.352 293.099C841.978 294.659 839.604 296.223 837.229 297.789C779.539 335.781 719.885 375.07 636.855 400.517C616.267 406.8 594.359 411.791 571.738 415.35C550.681 418.66 529.924 420.573 509.904 421.055Z" fill="#A3CCEF"/>
<path d="M510.145 411.698C507.24 411.698 504.352 411.669 501.487 411.608C477.356 411.104 455.024 408.487 435.113 403.827C413.338 398.73 394.472 391.181 379.043 381.388C377.672 380.515 376.306 379.613 374.987 378.705C351.423 362.499 338.314 343.423 325.64 324.977C322.998 321.132 320.265 317.156 317.495 313.298C301.373 290.791 282.386 271.046 259.442 252.935C256.602 250.696 253.664 248.45 250.699 246.261C196.563 206.269 121.403 172.421 33.3496 148.375C-69.1074 120.44 -178.317 107.223 -274.161 111.163C-328.124 113.416 -402.259 128.22 -437.507 155.395C-457.871 171.096 -460.835 188.551 -446.08 205.873L-446.421 205.937C-454.152 196.862 -457.102 187.775 -455.196 178.929C-453.445 170.793 -447.597 162.846 -437.818 155.305C-422.392 143.413 -397.627 132.814 -366.197 124.652C-337.142 117.106 -304.466 112.256 -274.194 110.991C-223.978 108.929 -170.326 111.52 -114.732 118.693C-64.4065 125.187 -14.5245 135.123 33.5328 148.226C121.638 172.288 196.838 206.155 251.007 246.169C253.971 248.36 256.914 250.606 259.753 252.848C282.708 270.97 301.706 290.727 317.835 313.246C320.605 317.106 323.339 321.082 325.98 324.927C338.651 343.362 351.75 362.424 375.284 378.612C376.603 379.519 377.962 380.42 379.332 381.289C442.027 421.083 553.135 416.81 635.433 394.925C721.867 371.738 786.101 333.2 848.221 295.931L848.858 295.548C854.875 291.936 861.096 288.202 867.288 284.515C932.629 245.618 1004.45 205.644 1100.33 181.771C1127.25 175.083 1155.62 170.171 1184.63 167.173C1211.61 164.385 1240.07 163.161 1269.19 163.535C1319.97 164.186 1374.37 169.586 1435.51 180.043C1499.76 190.993 1548.12 201.058 1592.29 212.681C1655.23 229.273 1716.19 250.24 1769.98 268.74C1889.74 310.149 2007.51 356.798 2120.03 407.386L2119.77 407.51C2007.27 356.927 1889.51 310.284 1769.76 268.878C1715.98 250.382 1655.03 229.419 1592.11 212.831C1547.95 201.212 1499.62 191.151 1435.39 180.204C1302.86 157.538 1196.45 158.083 1100.5 181.922C1004.68 205.779 932.889 245.736 867.574 284.619C861.382 288.306 855.161 292.041 849.144 295.652L848.507 296.035C817.549 314.607 785.541 333.811 750.974 350.965C712.128 370.242 674.392 384.669 635.609 395.072C595.033 405.862 550.834 411.698 510.145 411.698Z" fill="#A3CCEF"/>
<path d="M2115.89 405.877C2004.85 354.969 1888.91 307.726 1771.29 265.463C1766.31 263.686 1761.32 261.901 1756.31 260.11C1705.37 241.888 1652.69 223.045 1596.36 208.366C1541.71 194.166 1486.32 185.482 1439.35 178.861C1309.69 160.473 1204.69 163.249 1108.88 187.595C1010.54 212.661 934.332 254.279 873.103 287.72C869.428 289.727 865.76 291.738 862.085 293.75C859.374 295.236 856.659 296.722 853.944 298.206C819.081 317.267 787.368 334.308 752.329 349.858C712.3 367.621 673.718 380.631 634.37 389.631C597.495 398.067 558.103 402.53 521.463 402.531C514.787 402.531 508.21 402.384 501.747 402.085C478.151 400.992 456.306 397.921 436.82 392.958C415.558 387.542 397.066 379.85 381.849 370.093C380.49 369.218 379.134 368.314 377.822 367.405C354.537 351.283 340.918 332.476 327.75 314.288C324.914 310.371 321.979 306.318 319.011 302.385C302.12 279.95 282.642 260.363 259.471 242.504C256.587 240.282 253.601 238.057 250.596 235.887C195.684 196.247 119.926 162.839 31.5173 139.272C-71.6653 111.831 -181.179 99.2115 -276.854 103.735C-342.261 106.889 -409.144 125.222 -439.504 148.316C-460.187 164.049 -463.855 181.56 -450.118 198.954L-450.463 199.015C-457.655 189.907 -460.162 180.792 -457.912 171.924C-455.842 163.758 -449.752 155.785 -439.815 148.224C-424.229 136.366 -399.544 125.767 -368.429 117.576C-339.652 109.999 -307.145 105.022 -276.891 103.564C-226.734 101.191 -173.027 103.475 -117.26 110.351C-66.8141 116.571 -16.6939 126.25 31.7005 139.12C120.165 162.7 195.962 196.128 250.908 235.792C253.916 237.963 256.902 240.19 259.786 242.412C282.972 260.281 302.457 279.879 319.359 302.325C322.327 306.259 325.262 310.31 328.098 314.229C341.259 332.406 354.871 351.202 378.126 367.304C379.438 368.212 380.79 369.114 382.146 369.987C447.596 411.956 558.84 406.714 634.212 389.473C724.138 368.903 792.953 331.284 853.669 298.092C856.384 296.606 859.095 295.12 861.81 293.636C865.482 291.624 869.153 289.613 872.828 287.606C907.779 268.518 942.294 249.968 980.239 232.875C1023.87 213.217 1065.9 198.357 1108.71 187.443C1135.35 180.673 1163.31 175.507 1191.82 172.09C1218.47 168.895 1246.48 167.121 1275.09 166.817C1325.54 166.28 1379.31 170.166 1439.46 178.695C1486.45 185.319 1541.86 194.006 1596.54 208.216C1652.89 222.9 1705.58 241.747 1756.54 259.973C1761.54 261.764 1766.54 263.549 1771.52 265.326C1889.14 307.593 2005.1 354.84 2116.15 405.754L2115.89 405.877Z" fill="#A3CCEF"/>
<path d="M2112.01 404.246C2000.33 352.038 1886.22 304.195 1772.82 262.047C1766.04 259.526 1759.1 256.926 1752.38 254.414C1704.31 236.416 1654.6 217.806 1600.61 203.902C1546.69 190.066 1490.84 182.799 1443.31 177.517C1316.81 163.321 1213.2 168.326 1117.26 193.268C1025.75 217.145 954.053 253.049 884.718 287.77L877.105 291.582C871.092 294.594 864.874 297.706 858.744 300.759C789.34 335.281 719.863 367.637 633.132 384.186C612.086 388.202 590.475 390.985 568.894 392.462C545.719 394.047 523.208 394.069 501.982 392.528C478.928 390.853 457.578 387.336 438.525 382.073C417.79 376.346 399.668 368.513 384.667 358.794C383.315 357.914 381.971 357.008 380.67 356.101C357.671 340.075 343.561 321.544 329.916 303.623C326.871 299.625 323.72 295.489 320.54 291.473C302.864 269.106 282.903 249.677 259.512 232.075C256.588 229.875 253.558 227.667 250.505 225.515C194.82 186.227 118.465 153.258 29.6931 130.171C-74.2186 103.227 -184.04 91.2015 -279.55 96.3121C-344.36 99.8537 -410.939 118.315 -441.453 141.208C-462.48 156.981 -466.874 174.559 -454.159 192.042L-454.508 192.099C-461.161 182.952 -463.217 173.802 -460.619 164.908C-458.223 156.708 -451.88 148.703 -441.768 141.118C-426.012 129.3 -401.416 118.711 -370.631 110.496C-342.139 102.891 -309.808 97.7945 -279.594 96.1424C-229.496 93.4615 -175.734 95.4375 -119.792 102.015C-69.2209 107.962 -18.8699 117.383 29.8653 130.02C118.689 153.119 195.087 186.109 250.806 225.419C253.858 227.574 256.892 229.784 259.816 231.983C283.221 249.594 303.194 269.034 320.877 291.412C324.057 295.428 327.208 299.566 330.253 303.564C343.89 321.475 357.993 339.997 380.967 356.004C382.264 356.908 383.608 357.812 384.957 358.692C448.832 400.077 554.964 398.915 632.989 384.027C719.651 367.491 789.098 335.148 858.473 300.641C864.603 297.588 870.821 294.476 876.833 291.464L884.447 287.652C918.482 270.61 953.672 252.985 991.891 236.59C1035.18 218.021 1076.13 203.801 1117.08 193.116C1143.44 186.261 1171.01 180.841 1199 177.006C1225.32 173.401 1252.9 171.077 1280.97 170.098C1331.21 168.347 1384.33 170.72 1443.39 177.348C1490.94 182.633 1546.82 189.901 1600.77 203.749C1654.8 217.659 1704.52 236.274 1752.61 254.277C1759.32 256.79 1766.26 259.387 1773.05 261.911C1886.45 304.061 2000.58 351.908 2112.26 404.121L2112.01 404.246Z" fill="#A3CCEF"/>
<path d="M2108.12 402.614C1997.41 349.827 1885.11 301.384 1774.35 258.634C1766.03 255.422 1757.49 252.081 1749.24 248.851C1703.76 231.048 1656.73 212.639 1604.85 199.441C1551.19 185.842 1495.08 180.049 1447.27 176.177C1324.28 166.061 1222.07 173.297 1125.63 198.945C1041.47 221.423 972.369 253.278 905.541 284.083C898.51 287.325 891.236 290.676 884.15 293.924C875.829 297.737 869.472 300.634 863.54 303.315C831.769 317.665 793.942 334.188 754.246 347.932C712.179 362.495 672.157 372.574 631.89 378.746C610.715 381.992 589.196 384.039 567.927 384.829C545.089 385.677 522.977 385.054 502.209 382.974C479.708 380.721 458.856 376.757 440.225 371.192C420.021 365.159 402.276 357.185 387.481 347.497C386.147 346.619 384.81 345.712 383.513 344.801C360.818 328.882 346.235 310.637 332.129 292.994C328.857 288.901 325.475 284.67 322.063 280.561C303.593 258.257 283.144 238.987 259.544 221.646C256.576 219.466 253.502 217.278 250.406 215.143C193.947 176.206 116.992 143.678 27.8607 121.07C-76.7728 94.622 -186.902 83.1938 -282.244 88.888C-336.493 92.1992 -407.348 107.453 -443.351 134.064C-464.756 149.886 -469.893 167.544 -458.201 185.127L-458.549 185.179C-464.665 175.985 -466.262 166.796 -463.302 157.866C-460.568 149.625 -453.962 141.586 -443.659 133.971C-427.735 122.201 -403.23 111.63 -372.786 103.397C-344.58 95.7702 -312.443 90.5575 -282.288 88.7165C-232.248 85.7274 -178.427 87.3952 -122.317 93.6747C-71.6248 99.3482 -21.0393 108.513 28.033 120.918C117.215 143.537 194.215 176.085 250.707 215.044C253.803 217.18 256.88 219.37 259.848 221.552C283.459 238.902 303.919 258.182 322.401 280.497C325.815 284.608 329.197 288.839 332.469 292.931C346.565 310.566 361.144 328.801 383.813 344.702C385.11 345.612 386.444 346.517 387.778 347.394C440.917 382.193 532.133 393.851 631.776 378.578C722.014 364.748 795.624 333.75 863.287 303.187C869.219 300.506 875.573 297.609 883.894 293.795C890.98 290.548 898.253 287.197 905.284 283.955C938.184 268.79 972.2 253.108 1008.49 238.424C1049.52 221.817 1087.78 208.853 1125.46 198.791C1151.57 191.847 1178.73 186.171 1206.19 181.925C1232.2 177.902 1259.35 175.029 1286.87 173.382C1336.98 170.386 1389.47 171.243 1447.34 176.002C1495.17 179.878 1551.31 185.673 1605.02 199.283C1656.93 212.49 1703.98 230.904 1749.47 248.713C1757.72 251.942 1766.26 255.283 1774.58 258.496C1885.35 301.251 1997.66 349.697 2108.38 402.488L2108.12 402.614Z" fill="#A3CCEF"/>
<path d="M2104.24 400.983C1994.48 347.612 1884.01 298.568 1775.87 255.219C1766.67 251.532 1757.23 247.662 1748.09 243.919C1704.56 226.092 1659.56 207.658 1609.09 194.976C1555.39 181.541 1499.16 177.254 1451.23 174.833C1333.81 168.742 1230.04 178.486 1134 204.619C1057.53 225.522 991.978 253.486 928.583 280.53C915.777 285.992 902.539 291.641 889.667 297.025C881.793 300.321 874.817 303.215 868.331 305.872C838.173 318.212 798.055 334.036 755.186 346.968C712.112 359.96 671.372 368.576 630.639 373.305C586.213 378.464 541.874 378.502 502.42 373.418C480.484 370.59 460.126 366.18 441.912 360.311C422.248 353.975 404.88 345.863 390.286 336.204C388.964 335.325 387.637 334.415 386.348 333.504C363.975 317.707 348.938 299.762 334.399 282.409C330.882 278.211 327.247 273.871 323.579 269.654C304.299 247.409 283.363 228.295 259.572 211.222C256.561 209.061 253.442 206.893 250.302 204.776C193.07 166.191 115.518 134.101 26.0276 111.977C-79.3277 86.0255 -189.765 75.1929 -284.942 81.4708C-349.443 85.8176 -413.846 104.071 -445.195 126.89C-467.011 142.769 -472.906 160.518 -462.244 178.219L-462.595 178.266C-468.168 169.016 -469.304 159.779 -465.974 150.811C-462.896 142.523 -456.007 134.442 -445.503 126.794C-429.41 115.08 -405.001 104.533 -374.912 96.2934C-347.003 88.6509 -315.067 83.3238 -284.993 81.2976C-235.012 78.0002 -181.133 79.3614 -124.849 85.3414C-74.0332 90.7412 -23.2132 99.6497 26.1961 111.821C115.737 133.959 193.334 166.067 250.603 204.676C253.743 206.792 256.861 208.962 259.876 211.125C283.678 228.208 304.625 247.331 323.916 269.586C327.584 273.803 331.219 278.145 334.736 282.343C349.268 299.687 364.297 317.624 386.648 333.406C387.938 334.317 389.26 335.222 390.583 336.102C442.81 370.676 532.516 384.52 630.551 373.137C719.924 362.758 797.535 334.611 868.09 305.742C874.571 303.085 881.551 300.193 889.422 296.897C902.29 291.513 915.531 285.866 928.333 280.403C991.743 253.354 1057.31 225.383 1133.82 204.472C1159.7 197.428 1186.46 191.5 1213.37 186.849C1239.1 182.401 1265.81 178.978 1292.75 176.672C1342.84 172.386 1394.7 171.73 1451.27 174.664C1499.22 177.086 1555.5 181.374 1609.26 194.825C1659.76 207.516 1704.78 225.957 1748.33 243.791C1757.47 247.533 1766.91 251.402 1776.11 255.089C1884.25 298.442 1994.74 347.489 2104.5 400.864L2104.24 400.983Z" fill="#A3CCEF"/>
<path d="M2100.35 399.352C1991.58 345.392 1882.92 295.751 1777.4 251.806C1767.71 247.767 1757.73 243.491 1748.09 239.356C1706.15 221.378 1662.78 202.787 1613.33 190.513C1559.41 177.192 1503.13 174.433 1455.19 173.491C1342.21 171.108 1239.88 183.146 1142.38 210.294C1073.99 229.424 1013.04 253.635 954.081 277.047C933.812 285.098 914.664 292.703 895.189 300.127C887.268 303.149 880.053 305.865 873.128 308.426C828.446 324.939 791.271 336.878 756.133 345.998C712.051 357.44 670.596 364.592 629.398 367.862C613.415 369.13 597.491 369.762 581.857 369.762C554.142 369.762 527.325 367.781 502.637 363.856C457.958 356.754 421.105 343.649 393.101 324.906C391.782 324.018 390.467 323.108 389.192 322.201C367.16 306.54 351.701 288.913 336.752 271.865C332.964 267.546 329.05 263.082 325.104 258.74C305 236.547 283.572 217.592 259.61 200.791C256.554 198.649 253.392 196.5 250.208 194.403C192.203 156.169 114.049 124.519 24.1999 102.874C-81.8773 77.4217 -192.619 67.1832 -287.63 74.0447C-352.399 78.8193 -414.944 96.7263 -446.964 119.666C-469.223 135.611 -475.899 153.466 -466.277 171.302L-466.633 171.345C-471.656 162.032 -472.323 152.739 -468.611 143.724C-465.174 135.381 -457.997 127.255 -447.268 119.571C-431.007 107.921 -406.704 97.4087 -376.981 89.1686C-349.373 81.514 -317.661 76.083 -287.685 73.8732C-237.763 70.2676 -183.825 71.3205 -127.373 77.0026C-76.4325 82.1305 -25.3817 90.7827 24.3684 102.718C114.269 124.377 192.466 156.045 250.508 194.301C253.692 196.4 256.854 198.549 259.914 200.693C283.891 217.502 305.329 236.467 325.441 258.669C329.387 263.011 333.304 267.477 337.089 271.796C352.031 288.836 367.482 306.455 389.496 322.102C390.771 323.008 392.082 323.917 393.401 324.804C445.694 359.807 531.689 375.439 629.335 367.689C722.288 360.311 804.619 333.522 872.901 308.287C879.823 305.726 887.037 303.012 894.959 299.99C914.429 292.566 933.577 284.963 953.847 276.912C1012.81 253.494 1073.78 229.28 1142.19 210.143C1167.88 202.991 1194.24 196.808 1220.56 191.765C1246.05 186.881 1272.32 182.907 1298.64 179.954C1348.84 174.324 1400.06 172.152 1455.21 173.316C1503.19 174.258 1559.51 177.02 1613.5 190.357C1662.99 202.639 1706.37 221.239 1748.33 239.224C1757.98 243.36 1767.95 247.636 1777.64 251.672C1883.16 295.621 1991.83 345.267 2100.61 399.23L2100.35 399.352Z" fill="#A3CCEF"/>
<path d="M2096.47 397.72C1987.15 342.399 1883.28 293.553 1778.93 248.391C1768.97 244.082 1759.17 239.681 1748.79 235.023C1708.22 216.811 1666.26 197.981 1617.58 186.05C1562.98 172.734 1504.23 171.626 1459.15 172.149C1351.31 173.237 1250.43 187.571 1150.75 215.971C1090.94 233.094 1035.72 253.655 982.316 273.542C954.25 283.993 927.741 293.863 900.708 303.231C892.683 306.014 885.227 308.549 877.921 310.982C832.63 326.042 794.231 336.859 757.071 345.026C711.967 354.939 669.797 360.628 628.152 362.419C606.754 363.339 585.503 363.165 564.988 361.905C543.268 360.569 522.361 358.008 502.85 354.293C459.603 346.059 423.626 332.372 395.915 313.611C394.607 312.721 393.303 311.81 392.035 310.902C370.373 295.403 354.526 278.112 339.2 261.391C335.111 256.93 330.883 252.317 326.629 247.831C305.681 225.686 283.771 206.889 259.643 190.366C256.539 188.243 253.333 186.113 250.113 184.034C191.335 146.153 112.584 114.942 22.3755 93.7771C-60.8857 74.3235 -146.749 64.1733 -225.485 64.1733C-247.744 64.1733 -269.416 64.9838 -290.32 66.6239C-354.308 71.7431 -416.461 89.7143 -448.668 112.408C-471.399 128.427 -478.885 146.404 -470.315 164.392L-470.674 164.43C-475.148 155.044 -475.334 145.687 -471.231 136.621C-467.427 128.216 -459.938 120.037 -448.975 112.311C-432.546 100.734 -408.356 90.265 -379.015 82.0336C-351.318 74.2629 -320.669 68.8752 -290.385 66.4541C-240.522 62.5402 -186.525 63.2866 -129.901 68.6692C-78.8395 73.5217 -27.5505 81.9159 22.5367 93.6195C112.796 114.796 191.595 146.024 250.41 183.929C253.634 186.007 256.844 188.139 259.947 190.264C284.086 206.796 306.008 225.602 326.966 247.757C331.22 252.242 335.452 256.856 339.541 261.319C354.86 278.033 370.699 295.316 392.343 310.804C393.611 311.71 394.915 312.62 396.219 313.509C448.04 348.59 532.561 366.352 628.123 362.244C724.82 358.086 812.302 332.587 877.716 310.837C885.022 308.404 892.475 305.868 900.499 303.087C927.528 293.723 954.034 283.851 982.097 273.402C1035.51 253.513 1090.73 232.946 1150.56 215.819C1201.89 201.197 1252.25 190.541 1304.53 183.24C1354.96 176.198 1405.54 172.513 1459.15 171.972C1489.74 171.617 1514.7 172.234 1537.69 173.91C1567.38 176.075 1593.57 179.994 1617.75 185.893C1666.48 197.834 1708.46 216.674 1749.05 234.895C1759.43 239.553 1769.23 243.952 1779.18 248.261C1883.54 293.425 1987.42 342.274 2096.74 397.599L2096.47 397.72Z" fill="#A3CCEF"/>
<path d="M2092.58 396.089C1984.27 340.162 1882.17 290.734 1780.45 244.975C1770.39 240.448 1760.47 235.785 1749.97 230.847C1710.61 212.348 1669.91 193.216 1621.82 181.586C1566.77 168.332 1508.09 168.862 1463.11 170.803C1361.35 175.044 1261.91 191.675 1159.12 221.643C1108.48 236.479 1060.26 253.458 1013.63 269.879C976.762 282.859 941.947 295.12 906.23 306.327C898.158 308.862 890.244 311.287 882.714 313.531C837.335 327.046 796.544 337.027 758.009 344.044C711.868 352.447 668.984 356.676 626.907 356.971C605.498 357.12 584.331 356.205 564.006 354.25C542.7 352.199 522.196 348.994 503.063 344.72C461.3 335.39 426.195 321.122 398.726 302.309C397.436 301.421 396.139 300.508 394.875 299.595C373.62 284.284 357.429 267.359 341.769 250.992C337.339 246.361 332.755 241.571 328.15 236.914C306.345 214.811 283.947 196.173 259.676 179.932C256.529 177.828 253.279 175.716 250.014 173.657C190.463 136.127 111.111 105.356 20.5439 84.6711C-86.9732 60.2178 -198.334 51.1707 -293.016 59.196C-356.176 64.6426 -417.915 82.6604 -450.301 105.096C-473.546 121.2 -481.863 139.312 -474.359 157.475L-474.718 157.508C-478.632 148.04 -478.331 138.61 -473.821 129.482C-469.633 121.008 -461.825 112.77 -450.605 104.997C-434.015 93.5034 -409.946 83.0865 -381 74.8724C-353.622 67.1035 -323.222 61.624 -293.082 59.0245C-243.273 54.8041 -189.221 55.2405 -132.429 60.3251C-81.2426 64.9075 -29.7228 73.0454 20.7015 84.5135C111.324 105.209 190.719 135.999 250.304 173.552C253.572 175.611 256.826 177.724 259.973 179.829C284.258 196.079 306.664 214.726 328.479 236.838C333.089 241.494 337.669 246.285 342.102 250.917C357.755 267.278 373.939 284.196 395.179 299.497C396.443 300.408 397.74 301.32 399.026 302.207C451.393 338.07 532.32 357.459 626.899 356.794C703.642 356.257 784.866 342.461 882.516 313.381C890.042 311.136 897.953 308.713 906.025 306.178C941.73 294.973 976.546 282.715 1013.4 269.735C1060.04 253.312 1108.27 236.33 1158.93 221.49C1210.75 206.38 1260.3 194.943 1310.42 186.521C1361.18 177.99 1411.12 172.79 1463.08 170.625C1508.1 168.68 1566.85 168.152 1621.99 181.426C1670.13 193.071 1710.85 212.211 1750.23 230.719C1760.73 235.657 1770.65 240.319 1780.71 244.844C1882.43 290.604 1984.53 340.035 2092.85 395.966L2092.58 396.089Z" fill="#A3CCEF"/>
<path d="M2088.7 394.457C1981.39 337.922 1881.07 287.909 1781.98 241.562C1771.93 236.857 1761.99 231.968 1751.48 226.791C1713.24 207.961 1673.69 188.49 1626.07 177.123C1570.5 163.917 1511.91 166.091 1467.08 169.459C1371.32 176.516 1276.13 194.901 1167.5 227.318C1126.75 239.53 1086.93 252.928 1048.43 265.884C1001.66 281.619 957.488 296.483 911.75 309.428C903.51 311.763 895.354 314.004 887.509 316.086C841.317 328.337 799.265 337.162 758.949 343.064C736.368 346.37 714.076 348.765 692.693 350.183C669.884 351.695 647.332 352.147 625.663 351.527C581.698 350.268 540.522 344.758 503.281 335.15C463.061 324.772 428.832 309.924 401.546 291.012C400.263 290.117 398.977 289.203 397.721 288.295C376.92 273.209 360.439 256.686 344.504 240.708C339.679 235.871 334.692 230.87 329.676 226.003C306.992 203.936 284.107 185.456 259.712 169.504C256.52 167.417 253.223 165.325 249.918 163.287C189.593 126.107 109.644 95.7754 18.7178 75.5737C-89.5175 51.6209 -201.182 43.1696 -295.707 51.775C-396.918 61.1321 -495.542 101.561 -478.395 150.563L-478.758 150.591C-483.048 138.333 -480.535 126.257 -471.29 114.696C-462.848 104.137 -448.995 94.1995 -430.114 85.1628C-412.56 76.76 -391.499 69.5054 -367.522 63.5999C-344.717 57.9836 -319.908 53.8342 -295.78 51.6036C-246.03 47.0749 -191.92 47.2048 -134.955 51.9915C-83.644 56.302 -31.8897 64.1835 18.8716 75.4179C109.849 95.6334 189.846 125.982 250.207 163.183C253.516 165.223 256.813 167.315 260.008 169.404C284.414 185.363 307.311 203.853 330.006 225.929C335.022 230.795 340.009 235.797 344.834 240.635C360.765 256.608 377.239 273.124 398.028 288.202C399.281 289.109 400.564 290.023 401.846 290.917C454.289 327.261 533.784 348.724 625.685 351.356C703.487 353.581 789.071 341.997 887.329 315.937C895.17 313.855 903.323 311.616 911.563 309.281C957.29 296.339 1001.46 281.477 1048.22 265.743C1086.73 252.786 1126.55 239.387 1167.3 227.172C1275.98 194.742 1371.21 176.35 1467.02 169.288C1497.14 167.024 1522.08 166.3 1545.52 167.012C1575.47 167.921 1601.87 171.177 1626.23 176.967C1673.9 188.346 1713.47 207.829 1751.74 226.67C1762.25 231.845 1772.18 236.734 1782.24 241.437C1881.33 287.788 1981.66 337.803 2088.96 394.341L2088.7 394.457Z" fill="#A3CCEF"/>
<path d="M2084.81 392.826C1978.53 335.674 1879.97 285.079 1783.51 238.147C1773.53 233.291 1763.67 228.204 1753.23 222.817C1716.02 203.626 1677.54 183.781 1630.31 172.658C1573.53 159.342 1512.22 163.687 1471.04 168.114C1359.27 179.98 1259.11 207.568 1175.87 232.993C1145.96 242.168 1116.12 251.887 1087.25 261.286C1029.36 280.14 974.677 297.948 917.276 312.53C908.834 314.676 900.437 316.732 892.31 318.642C845.216 329.689 801.904 337.358 759.899 342.082C712.282 347.438 666.705 348.786 624.426 346.084C580.992 343.308 540.307 336.408 503.506 325.576C464.905 314.215 431.552 298.786 404.365 279.717C403.097 278.822 401.818 277.906 400.569 276.995C380.285 262.186 363.599 246.117 347.459 230.575C342.171 225.482 336.701 220.217 331.205 215.093C307.297 192.749 284.591 174.951 259.753 159.077C256.518 157.009 253.18 154.938 249.827 152.917C188.722 116.09 108.172 86.1984 16.8868 66.4747C-92.0665 43.0241 -204.039 35.1668 -298.402 44.3524C-399.976 54.371 -496.586 94.2514 -482.435 143.652L-482.798 143.674C-486.308 131.418 -483.271 119.354 -473.773 107.818C-465.068 97.2491 -451.133 87.3016 -432.352 78.2545C-414.838 69.8171 -393.887 62.5088 -370.078 56.5288C-347.409 50.8346 -322.647 46.5657 -298.476 44.1809C-248.78 39.344 -194.615 39.1673 -137.482 43.6545C-86.0465 47.6931 -34.0577 55.3183 17.0407 66.3171C108.381 86.0512 188.975 115.96 250.109 152.809C253.462 154.832 256.803 156.905 260.042 158.973C284.895 174.854 307.609 192.662 331.527 215.015C337.023 220.139 342.494 225.406 347.781 230.499C363.917 246.035 380.6 262.1 400.869 276.901C402.119 277.812 403.394 278.727 404.661 279.622C457.511 316.69 535.573 340.232 624.47 345.913C704.199 351.008 791.754 342.035 892.145 318.486C900.268 316.577 908.666 314.523 917.101 312.378C974.486 297.799 1029.16 279.994 1087.05 261.142C1115.91 251.743 1145.75 242.023 1175.67 232.846C1231.64 215.751 1278.2 203.121 1322.19 193.099C1373.98 181.301 1422.64 173.073 1470.95 167.944C1500.41 164.778 1526.08 163.344 1549.43 163.562C1579.51 163.843 1606.02 166.766 1630.47 172.502C1677.77 183.639 1716.26 203.496 1753.49 222.699C1763.94 228.085 1773.8 233.171 1783.77 238.024C1880.24 284.958 1978.8 335.556 2085.09 392.71L2084.81 392.826Z" fill="#A3CCEF"/>
<path d="M2080.93 391.193C1975.67 333.423 1878.88 282.244 1785.04 234.73C1775.2 229.747 1765.46 224.484 1755.15 218.911C1718.92 199.335 1681.47 179.092 1634.56 168.193C1577.16 154.909 1516.01 161.017 1475 166.768C1373.74 180.849 1283.41 207.661 1184.25 238.666C1166.36 244.279 1148.27 250.072 1130.78 255.676C1063.49 277.227 993.92 299.51 922.798 315.63C914.158 317.591 905.511 319.463 897.102 321.195C849.69 330.948 803.846 337.643 760.841 341.095C712.124 345.005 665.811 344.851 623.176 340.639C580.351 336.409 540.161 328.118 503.718 315.999C466.84 303.734 434.354 287.727 407.167 268.422C405.911 267.525 404.643 266.608 403.401 265.697C383.729 251.234 366.937 235.688 350.698 220.654C344.846 215.237 338.797 209.636 332.718 204.186C307.876 181.864 284.698 164.219 259.775 148.653C256.503 146.61 253.117 144.556 249.717 142.55C187.85 106.069 106.707 76.6181 15.0548 57.3758C-94.6131 34.4274 -206.89 27.1659 -301.099 36.9299C-399.449 47.2342 -497.842 85.7153 -486.48 136.738L-486.843 136.756C-489.573 124.499 -486.011 112.449 -476.261 100.94C-467.296 90.3583 -453.277 80.4021 -434.598 71.3447C-400.134 54.636 -351.505 42.0301 -301.18 36.7585C-251.543 31.615 -197.319 31.13 -140.014 35.3176C-88.4539 39.086 -36.2342 46.4532 15.2014 57.2165C106.904 76.4691 188.096 105.94 250.003 142.438C253.407 144.445 256.792 146.499 260.068 148.544C285.002 164.118 308.191 181.771 333.041 204.101C339.119 209.553 345.172 215.153 351.024 220.57C367.259 235.601 384.047 251.144 403.709 265.6C404.947 266.511 406.215 267.427 407.472 268.324C461.864 306.947 536.478 331.894 623.246 340.468C703.591 348.407 795.675 341.869 896.948 321.035C905.354 319.303 913.993 317.433 922.63 315.474C993.726 299.36 1063.29 277.08 1130.56 255.533C1148.06 249.928 1166.15 244.135 1184.04 238.523C1227.44 224.95 1277.95 209.383 1328.08 196.386C1380.52 182.791 1428.54 173.049 1474.89 166.603C1504.07 162.511 1529.74 160.388 1553.35 160.114C1583.12 159.768 1610.49 162.435 1634.71 168.039C1655.72 172.921 1676.87 180.207 1699.37 190.314C1719.23 199.238 1737.63 209.182 1755.42 218.797C1765.72 224.368 1775.46 229.631 1785.3 234.612C1879.15 282.128 1975.94 333.309 2081.2 391.08L2080.93 391.193Z" fill="#A3CCEF"/>
<path d="M2077.04 389.561C1972.82 331.168 1877.8 279.405 1786.57 231.316C1776.9 226.225 1767.33 220.802 1757.2 215.063C1721.92 195.08 1685.44 174.415 1638.8 163.732C1595.22 153.779 1542.93 154.333 1478.96 165.426C1389.51 180.847 1309.56 206.643 1224.9 233.955C1214.36 237.357 1203.47 240.872 1192.62 244.345C1188.37 245.708 1184.12 247.074 1179.88 248.439C1099.22 274.362 1015.81 301.169 928.319 318.733C919.474 320.51 910.586 322.199 901.898 323.75C853.445 332.397 806.307 337.901 761.797 340.107C711.955 342.577 664.898 340.925 621.941 335.196C579.783 329.573 540.087 319.892 503.956 306.422C468.935 293.366 437.322 276.782 409.992 257.127C408.746 256.228 407.49 255.309 406.255 254.396C387.33 240.387 370.593 225.468 354.401 211.04C347.847 205.197 341.064 199.155 334.253 193.273C308.451 170.967 284.803 153.474 259.822 138.224C256.502 136.198 253.077 134.164 249.632 132.178C186.981 96.0505 105.237 67.0373 13.226 48.2765C-97.1527 25.8321 -209.741 19.1646 -303.793 29.507C-400.336 40.2114 -498.59 79.0077 -490.519 129.826L-490.885 129.84C-492.831 117.582 -488.749 105.546 -478.746 94.0658C-469.516 83.4723 -455.417 73.5039 -436.837 64.4396C-402.52 47.6963 -354.059 34.9034 -303.877 29.339C-254.295 23.8872 -200.016 23.0941 -142.543 26.9837C-90.8579 30.4786 -38.4001 37.5894 13.3726 48.1172C105.435 66.8901 187.23 95.9189 249.907 132.065C253.351 134.052 256.785 136.089 260.104 138.115C285.096 153.374 308.759 170.872 334.568 193.187C341.383 199.068 348.162 205.112 354.72 210.955C370.904 225.38 387.642 240.296 406.559 254.299C407.794 255.212 409.047 256.13 410.293 257.029C465.865 296.992 539.083 323.962 622.036 335.025C703.924 345.945 798.038 342.096 901.766 323.584C910.446 322.032 919.332 320.346 928.173 318.571C1015.64 301.013 1099.03 274.212 1179.67 248.291C1183.92 246.925 1188.16 245.56 1192.41 244.197C1203.26 240.725 1214.15 237.21 1224.69 233.81C1309.37 206.492 1389.35 180.69 1478.83 165.261C1507.73 160.249 1533.39 157.438 1557.27 156.664C1587.16 155.696 1614.64 158.022 1638.96 163.574C1659.85 168.359 1680.73 175.678 1702.81 185.949C1722.28 195.012 1740.18 205.148 1757.48 214.95C1767.62 220.688 1777.18 226.109 1786.84 231.198C1878.08 279.289 1973.1 331.054 2077.32 389.449L2077.04 389.561Z" fill="#A3CCEF"/>
<path d="M2073.16 387.93C1978.03 333.516 1882.12 279.674 1788.09 227.901C1778.52 222.661 1769.03 217.031 1758.99 211.071C1726.33 191.685 1689.3 169.714 1643.05 159.269C1598.95 149.334 1546.58 150.908 1482.92 164.08C1407.23 179.691 1340.24 202.644 1269.33 226.945C1247.12 234.555 1224.15 242.426 1200.99 250.018C1160.56 263.3 1116.82 277.354 1070.97 290.153C1021.87 303.863 977.011 314.224 933.83 321.834C924.758 323.432 915.627 324.937 906.684 326.303C857.205 333.859 808.785 338.159 762.768 339.084C711.827 340.106 664.026 336.968 620.688 329.75C540.659 316.255 470.713 288.021 412.795 245.831C411.561 244.93 410.315 244.009 409.087 243.096C391.123 229.706 374.678 215.579 358.777 201.917C351.291 195.487 343.553 188.837 335.767 182.365C308.983 160.064 284.859 142.725 259.848 127.799C256.481 125.79 253.011 123.776 249.526 121.81C186.113 86.0304 103.768 57.4589 11.3979 39.1777C-99.6953 17.2356 -212.588 11.1655 -306.485 22.0847C-403.615 33.4437 -499.407 71.7256 -494.56 122.915L-494.926 122.922C-496.088 110.66 -491.478 98.6381 -481.23 87.1873C-471.733 76.5799 -457.553 66.6011 -439.079 57.5299C-421.675 48.9833 -401.047 41.5105 -377.769 35.3175C-355.169 29.3064 -331.218 24.7967 -306.577 21.9149C-257.05 16.1566 -202.713 15.0552 -145.071 18.6453C-93.2613 21.8716 -40.5726 28.7245 11.5371 39.0167C103.962 57.3082 186.355 85.8971 249.805 121.694C253.289 123.661 256.766 125.677 260.134 127.686C285.155 142.621 309.29 159.967 336.085 182.275C343.871 188.748 351.61 195.398 359.095 201.83C374.997 215.491 391.438 229.616 409.395 243.001C410.619 243.915 411.868 244.835 413.099 245.736C470.973 287.893 540.857 316.105 620.809 329.585C703.165 343.301 801.98 342.11 906.57 326.137C915.507 324.771 924.637 323.268 933.702 321.671C1030.25 304.659 1118.58 276.876 1200.78 249.875C1223.94 242.282 1246.9 234.413 1269.11 226.803C1340.04 202.497 1407.04 179.538 1482.77 163.921C1546.52 150.728 1599 149.154 1643.2 159.112C1663.92 163.789 1684.49 171.122 1706.09 181.525C1725.13 190.698 1742.49 201.001 1759.28 210.962C1769.32 216.922 1778.8 222.55 1788.37 227.787C1882.4 279.562 1978.31 333.404 2073.44 387.82L2073.16 387.93Z" fill="#A3CCEF"/>
<path d="M2069.27 386.299C1975.6 331.584 1881.51 277.142 1789.62 224.486C1780.35 219.189 1771.15 213.46 1761.4 207.395C1729.54 187.557 1693.43 165.071 1647.29 154.803C1602.67 144.885 1550.2 147.479 1486.87 162.731C1420.53 178.688 1359.57 201.219 1300.63 223.011C1271.07 233.937 1240.5 245.235 1209.36 255.69C1160.2 272.208 1118.84 284.809 1079.2 295.347C1030.31 308.341 984.562 318.019 939.351 324.932C930.07 326.352 920.691 327.672 911.476 328.855C863.462 335.015 816.314 338.132 771.209 338.134C768.703 338.134 766.212 338.123 763.72 338.104C711.574 337.702 663.033 333.058 619.446 324.302C598.407 320.052 577.804 314.657 558.213 308.267C539.797 302.261 521.701 295.186 504.425 287.241C473.343 272.946 444.287 255.704 415.605 234.533C414.374 233.622 413.146 232.709 411.926 231.793C395.284 219.301 379.54 206.243 364.316 193.615C355.526 186.326 346.439 178.787 337.287 171.449C309.107 148.842 285.235 132.161 259.877 117.366C256.466 115.376 252.952 113.381 249.423 111.435C185.241 76.0103 102.298 47.8786 9.56909 30.0772C-102.235 8.63902 -215.435 3.16473 -309.179 14.6606C-404.487 26.3815 -500.155 64.9544 -498.598 116L-498.964 116.002C-499.69 92.2254 -479.754 69.6165 -441.315 50.6201C-423.94 42.0337 -403.421 34.5072 -380.323 28.245C-357.848 22.1524 -333.944 17.525 -309.271 14.4908C-259.803 8.42427 -205.406 7.0163 -147.596 10.3068C-95.6617 13.263 -42.7385 19.8595 9.70465 29.9144C102.492 47.728 185.482 75.877 249.705 111.322C253.234 113.27 256.755 115.267 260.166 117.257C285.536 132.061 309.418 148.747 337.605 171.363C346.758 178.702 355.849 186.241 364.635 193.53C379.859 206.157 395.599 219.213 412.238 231.701C413.458 232.617 414.682 233.53 415.913 234.439C476.86 279.428 543.483 308.771 619.589 324.142C724.999 345.319 836.447 338.303 911.38 328.688C920.588 327.505 929.961 326.188 939.238 324.767C1043.22 308.866 1138.1 279.423 1209.15 255.55C1240.29 245.098 1270.85 233.8 1300.4 222.876C1359.37 201.081 1420.33 178.543 1486.71 162.579C1515.04 155.754 1540.69 151.563 1565.1 149.769C1595.22 147.555 1622.92 149.197 1647.44 154.649C1668.1 159.247 1688.48 166.638 1709.72 177.244C1728.44 186.589 1745.35 197.113 1761.7 207.293C1771.44 213.356 1780.63 219.083 1789.9 224.377C1881.79 277.033 1975.88 331.475 2069.56 386.19L2069.27 386.299Z" fill="#A3CCEF"/>
<path d="M2065.39 384.668L1791.15 221.073C1782.19 215.73 1773.3 209.916 1763.88 203.763C1732.81 183.456 1697.58 160.44 1651.53 150.342C1607 140.578 1552.94 144.294 1490.83 161.389C1431.13 177.822 1376.68 199.676 1324.02 220.811C1289.7 234.588 1254.2 248.832 1217.74 261.369C1108.13 299.05 1012.33 321.305 916.275 331.411C876.425 335.602 837.114 337.711 798.99 337.711C787.434 337.711 775.995 337.517 764.676 337.129C711.299 335.3 662.018 329.152 618.207 318.858C577.602 309.316 540.457 295.846 504.659 277.676C476.072 263.166 448.669 245.869 418.423 223.239C402.458 211.297 387 198.888 372.051 186.888C338.217 159.733 303.233 131.654 259.921 106.94C193.485 69.0361 106.281 39.3111 7.73691 20.978C-104.774 0.0454941 -218.282 -4.83478 -311.872 7.23775C-402.483 18.9258 -500.829 55.7825 -502.639 109.088L-503.006 109.084C-502.196 85.2581 -481.637 62.6526 -443.553 43.7116C-409.119 26.5857 -362.388 13.5728 -311.967 7.06976C-262.554 0.69666 -208.1 -1.01958 -150.124 1.97128C-98.0654 4.6556 -44.9077 10.9975 7.8725 20.817C56.6333 29.8882 102.943 41.8292 145.519 56.3089C188.45 70.9099 227.036 87.906 260.199 106.826C303.53 131.548 338.525 159.635 372.366 186.797C387.315 198.795 402.773 211.201 418.734 223.142C462.863 256.161 525.438 296.861 618.372 318.699C724.951 343.743 839.155 339.341 916.195 331.237C1012.21 321.139 1107.95 298.892 1217.52 261.225C1253.97 248.694 1289.46 234.449 1323.78 220.676C1376.45 199.538 1430.92 177.678 1490.65 161.237C1552.86 144.112 1607.04 140.392 1651.69 150.182C1672.31 154.704 1692.49 162.16 1713.4 172.978C1731.8 182.502 1748.26 193.258 1764.18 203.659C1773.59 209.812 1782.49 215.623 1791.44 220.964L2065.68 384.558L2065.39 384.668Z" fill="#A3CCEF"/>
<path d="M2063.18 372.091C1993.35 326.54 1933.43 289.578 1874.62 255.771C1846.08 239.348 1816.92 223.184 1787.97 207.725C1779.21 203.049 1770.54 198.076 1761.35 192.809C1738.27 179.573 1714.4 165.886 1686.93 155.729C1672.18 150.265 1657.98 146.353 1643.52 143.769C1599.14 135.76 1547.07 141.055 1488.75 159.511C1458.57 169.049 1431.09 179.902 1408.19 189.261C1383.95 199.168 1360.03 210.095 1336.9 220.66C1303.66 235.848 1269.28 251.553 1232.33 265.04C1209.84 273.271 1187.05 280.626 1164.58 286.903C1119.62 299.458 1071.36 309.804 1021.15 317.653C990.128 322.448 958.954 326.073 928.502 328.425C902.257 330.444 875.964 331.61 850.349 331.888C812.012 332.307 774.661 330.709 739.333 327.133C701.769 323.33 666.221 317.26 633.677 309.089C604.658 301.803 577.247 292.63 549.881 281.042C498.885 259.467 458.21 234.52 428.473 215.196C413.865 205.659 399.601 195.933 385.806 186.528C346.084 159.44 308.564 133.856 261.614 111.067C223.321 92.6026 179.631 76.6681 131.746 63.7036C94.9482 53.7405 54.9261 45.5923 12.7935 39.4841C2.75772 38.0311 -7.46854 36.6768 -17.5922 35.4628C-61.1794 30.2449 -110.248 26.847 -163.431 25.3629C-217.051 23.8319 -263.441 25.1568 -305.244 29.417C-328.877 31.807 -351.773 35.5564 -373.307 40.5596C-449.328 58.2242 -498.143 87.8782 -503.889 119.886L-504.347 119.867C-502.815 111.334 -498.319 102.929 -490.988 94.8834C-484.022 87.2408 -474.456 79.8702 -462.555 72.9758C-440.069 59.9525 -409.276 48.6749 -373.508 40.3639C-351.942 35.352 -329.009 31.5974 -305.339 29.204C-263.492 24.9403 -217.065 23.6137 -163.402 25.1464C-110.189 26.6305 -61.0952 30.0318 -17.4787 35.2533C-7.34396 36.469 2.88599 37.8233 12.9291 39.278C55.0946 45.3896 95.1497 53.5448 131.977 63.5166C179.895 76.4897 223.621 92.438 261.932 110.915C308.913 133.718 346.439 159.309 386.176 186.403C399.967 195.809 414.231 205.533 428.836 215.068C458.558 234.383 499.214 259.318 550.181 280.879C577.518 292.455 604.9 301.62 633.886 308.897C697.577 324.887 770.4 332.55 850.334 331.672C875.927 331.393 902.202 330.228 928.425 328.21C958.855 325.858 990.007 322.237 1021 317.445C1071.19 309.602 1119.41 299.263 1164.34 286.714C1186.8 280.443 1209.58 273.091 1232.04 264.867C1268.98 251.386 1303.35 235.686 1336.58 220.503C1359.71 209.935 1383.63 199.006 1407.89 189.094C1430.8 179.73 1458.29 168.874 1488.5 159.33C1514.46 151.112 1539.6 145.435 1563.22 142.455C1592.24 138.794 1619.31 139.168 1643.68 143.567C1658.19 146.159 1672.42 150.082 1687.21 155.558C1714.72 165.73 1738.6 179.426 1761.7 192.671C1770.89 197.935 1779.56 202.909 1788.31 207.582C1817.27 223.042 1846.43 239.208 1874.98 255.635C1933.79 289.445 1993.71 326.411 2063.55 371.964L2063.18 372.091Z" fill="#A3CCEF"/>
<path d="M2060.97 359.511C1996.22 313.19 1935.46 274.428 1875.19 241.013C1845.81 224.69 1815.39 209 1784.79 194.378C1776.67 190.499 1768.66 186.467 1760.17 182.2C1734.76 169.421 1708.48 156.207 1679.05 147.065C1664.19 142.429 1649.95 139.201 1635.51 137.195C1580.22 129.513 1524.06 144.067 1486.67 157.629C1460.19 167.21 1436 178.042 1411.49 189.224C1390.05 199.013 1369.87 209.542 1348.51 220.688C1316.8 237.234 1284.02 254.343 1246.92 268.708C1224.9 277.279 1201.92 284.689 1178.62 290.734C1135.22 301.994 1087.7 310.738 1033.33 317.468C1002.9 321.233 971.745 323.915 940.719 325.438C914.539 326.707 888.407 327.161 863.045 326.781C825.313 326.224 788.431 323.716 753.417 319.329C716.645 314.721 681.559 307.988 649.136 299.316C620.728 291.721 593.3 282.296 565.281 270.506C514.395 249.123 470.804 225.418 438.517 207.154C426.565 200.393 414.803 193.59 403.426 187.01C358.121 160.804 315.328 136.049 263.307 115.194C224.428 99.6079 180.778 86.4287 133.578 76.024C97.865 68.1511 60.012 62.2525 17.861 57.9905C8.13306 57.0086 -1.76343 56.1236 -11.55 55.3599C-54.5363 52.0226 -100.414 50.7601 -155.92 49.4543C-195.931 48.4655 -248.308 47.8143 -298.626 51.5931C-322.457 53.3492 -345.493 56.399 -367.1 60.654C-443.172 75.6395 -494.776 101.818 -505.145 130.684L-505.688 130.64C-502.939 122.986 -497.37 115.478 -489.144 108.324C-481.303 101.508 -471 94.9718 -458.524 88.8931C-434.814 77.3453 -403.274 67.4965 -367.312 60.4133C-345.665 56.1496 -322.585 53.0946 -298.714 51.3351C-248.349 47.5511 -195.931 48.204 -155.894 49.1928C-100.37 50.4986 -54.4777 51.7611 -11.4621 55.1001C-1.66818 55.8655 8.23566 56.7505 17.9747 57.7325C60.1659 61.9997 98.0555 67.9034 133.809 75.785C181.057 86.2001 224.743 99.3897 263.662 114.992C315.721 135.862 358.531 160.623 403.851 186.84C415.224 193.419 426.986 200.222 438.938 206.981C471.218 225.238 514.791 248.934 565.647 270.307C593.633 282.085 621.032 291.499 649.407 299.086C713.161 316.136 785.049 325.365 863.063 326.518C888.404 326.896 914.51 326.444 940.664 325.174C971.661 323.654 1002.79 320.975 1033.19 317.211C1087.51 310.488 1135 301.751 1178.36 290.501C1201.63 284.464 1224.58 277.064 1246.57 268.502C1283.64 254.149 1316.41 237.047 1348.11 220.51C1369.48 209.359 1389.66 198.827 1411.12 189.034C1435.63 177.845 1459.83 167.009 1486.34 157.418C1510.58 148.625 1534.48 142.301 1557.39 138.615C1585.17 134.147 1611.51 133.585 1635.67 136.941C1650.16 138.955 1664.45 142.193 1679.36 146.843C1708.84 156.003 1735.14 169.229 1760.58 182.018C1769.06 186.284 1777.08 190.314 1785.19 194.191C1815.8 208.818 1846.22 224.514 1875.62 240.841C1935.89 274.266 1996.68 313.034 2061.43 359.366L2060.97 359.511Z" fill="#A3CCEF"/>
<path d="M2058.76 346.931C1998.16 299.211 1938.31 259.738 1875.77 226.256C1845.53 210.034 1813.85 194.82 1781.62 181.033C1774.73 178.086 1767.63 174.958 1760.77 171.934C1732.45 159.441 1703.16 146.523 1671.18 138.403C1656.17 134.565 1641.88 132.019 1627.51 130.622C1572.33 125.255 1519.34 141.323 1484.59 155.745C1461.05 165.482 1439.52 176.517 1418.7 187.19L1414.8 189.188C1395.9 198.871 1378.17 209.491 1359.4 220.735C1329.5 238.641 1298.59 257.154 1261.51 272.376C1239.93 281.299 1216.77 288.765 1192.67 294.566C1150.65 304.682 1103.88 311.9 1045.5 317.283C1015.31 320.066 984.166 321.804 952.927 322.449C926.813 322.966 900.843 322.707 875.73 321.673C799.701 318.557 728.663 307.747 664.587 289.544C636.887 281.675 609.44 272.002 580.681 259.97C532.011 239.65 488.725 218.764 448.563 199.113C443.177 196.479 437.85 193.863 432.563 191.267C377.709 164.339 325.899 138.903 265.011 119.327C225.26 106.546 181.654 96.1238 135.41 88.3479C101.46 82.6398 64.6654 78.764 22.9322 76.4988C13.5267 75.9913 3.95993 75.574 -5.50424 75.2588C-29.3131 74.4795 -54.5655 74.3531 -81.3019 74.2197C-102.777 74.1123 -124.981 74.0015 -148.412 73.5495C-193.666 72.6022 -244.955 71.5302 -292.016 73.7746C-316.298 74.9332 -339.473 77.2816 -360.9 80.7556C-436.943 93.0862 -491.339 115.792 -506.409 141.494L-507.028 141.413C-503.057 134.636 -496.417 128.026 -487.298 121.765C-478.577 115.778 -467.541 110.074 -454.497 104.811C-429.549 94.7453 -397.254 86.3286 -361.112 80.4681C-339.637 76.9854 -316.415 74.6319 -292.086 73.4716C-244.977 71.2254 -193.663 72.2991 -148.39 73.2464C-124.973 73.6967 -102.769 73.8093 -81.3019 73.9166C-54.5545 74.05 -29.2948 74.1764 -5.46396 74.9575C4.00754 75.2744 13.5853 75.6917 22.9982 76.1992C64.7827 78.4661 101.621 82.3471 135.619 88.0639C181.918 95.8484 225.571 106.283 265.366 119.077C326.31 138.671 378.145 164.119 433.021 191.059C438.308 193.655 443.639 196.27 449.021 198.906C489.175 218.553 532.448 239.434 581.102 259.746C609.832 271.765 637.25 281.429 664.917 289.288C728.909 307.468 799.855 318.263 875.785 321.375C900.869 322.407 926.813 322.667 952.898 322.149C984.104 321.505 1015.22 319.768 1045.37 316.988C1103.69 311.611 1150.41 304.401 1192.37 294.3C1216.43 288.51 1239.54 281.058 1261.08 272.151C1298.12 256.948 1329.01 238.445 1358.89 220.55C1377.67 209.3 1395.41 198.675 1414.33 188.986L1418.22 186.987C1439.05 176.309 1460.59 165.267 1484.17 155.52C1519.02 141.051 1572.2 124.936 1627.63 130.327C1642.07 131.732 1656.41 134.286 1671.48 138.14C1703.53 146.277 1732.85 159.209 1761.21 171.716C1768.06 174.74 1775.16 177.868 1782.04 180.813C1814.29 194.607 1845.98 209.83 1876.24 226.061C1938.81 259.556 1998.68 299.043 2059.3 346.779L2058.76 346.931Z" fill="#A3CCEF"/>
<path d="M2056.55 334.35C2000.91 285.909 1940.28 244.575 1876.34 211.501C1845.26 195.381 1812.32 180.642 1778.45 167.691C1773.56 165.821 1768.55 163.879 1763.7 162.002C1731.69 149.601 1698.59 136.775 1663.33 129.744C1648.19 126.694 1633.86 124.832 1619.52 124.049C1564.5 121.05 1514.65 138.605 1482.53 153.861C1462.57 163.285 1444.57 173.766 1427.15 183.903C1424.14 185.657 1421.13 187.408 1418.11 189.152C1401.55 198.732 1386.06 209.435 1369.66 220.765C1341.79 240.026 1312.96 259.942 1276.1 276.048C1254.45 285.505 1231.76 292.817 1206.71 298.404C1154.32 310.088 1101.97 314.413 1057.67 317.104C1027.7 318.923 996.573 319.719 965.136 319.466C939.103 319.232 913.29 318.257 888.418 316.571C814.673 311.581 744.565 299.202 680.045 279.776C653.199 271.696 625.737 261.772 596.084 249.44C566.131 237.013 538.219 225.054 511.222 213.489C492.876 205.628 475.545 198.204 458.621 191.081C394.647 164.155 336.049 140.481 266.729 123.464C226.124 113.497 182.563 105.829 137.253 100.673C104.779 96.9774 70.0663 95.1781 28.0143 95.0066C18.9421 94.9755 9.70148 95.0257 0.552399 95.1573C-13.3452 95.3703 -27.7229 95.8154 -42.9395 96.2882C-72.1418 97.1939 -105.246 98.2209 -140.905 97.6459C-154.483 97.426 -168.337 97.116 -181.736 96.8147C-216.2 96.0405 -251.836 95.2404 -285.41 95.9557C-310.065 96.4821 -333.383 98.1308 -354.708 100.857C-430.622 110.564 -487.807 129.799 -507.681 152.311L-508.358 152.178C-503.155 146.282 -495.446 140.571 -485.447 135.2C-475.844 130.043 -464.075 125.172 -450.474 120.722C-424.265 112.15 -391.22 105.166 -354.905 100.522C-333.53 97.7897 -310.16 96.1358 -285.45 95.6093C-251.84 94.8923 -216.189 95.6942 -181.707 96.4683C-168.311 96.7696 -154.458 97.0796 -140.883 97.2996C-105.257 97.8745 -72.1785 96.8493 -42.9908 95.9436C-27.7668 95.4708 -13.3855 95.0257 0.526764 94.8127C9.68683 94.681 18.9348 94.6308 28.0179 94.662C70.1285 94.8317 104.893 96.6363 137.422 100.337C182.786 105.5 226.406 113.177 267.062 123.157C298.375 130.843 330.106 140.581 364.068 152.926C394.472 163.976 424.047 176.068 459.105 190.823C476.029 197.948 493.36 205.372 511.709 213.233C538.702 224.796 566.615 236.755 596.561 249.18C626.184 261.501 653.617 271.413 680.43 279.485C744.862 298.885 814.87 311.247 888.514 316.23C913.356 317.915 939.136 318.888 965.139 319.122C996.54 319.374 1027.64 318.58 1057.56 316.761C1101.81 314.075 1154.1 309.756 1206.39 298.092C1231.37 292.521 1254.01 285.228 1275.6 275.795C1312.39 259.717 1341.2 239.816 1369.05 220.571C1385.46 209.234 1400.95 198.526 1417.54 188.935C1420.55 187.192 1423.56 185.441 1426.57 183.688C1444 173.545 1462.02 163.057 1481.99 153.62C1502.9 143.695 1524.34 136.059 1545.73 130.926C1571.07 124.846 1595.92 122.418 1619.59 123.71C1634 124.496 1648.4 126.366 1663.6 129.428C1698.95 136.479 1732.1 149.32 1764.15 161.737C1769 163.614 1774.01 165.556 1778.89 167.424C1812.79 180.385 1845.75 195.139 1876.86 211.271C1910.81 228.833 1944.06 248.843 1975.68 270.743C2003.63 290.1 2031.05 311.446 2057.17 334.187L2056.55 334.35Z" fill="#A3CCEF"/>
<path d="M2054.33 321.764C2002.84 271.934 1943.15 229.872 1876.92 196.744C1844.98 180.726 1810.79 166.463 1775.29 154.347C1773.6 153.77 1771.91 153.194 1770.22 152.615C1733.3 140.001 1695.13 126.957 1655.49 121.084C1640.13 118.808 1625.75 117.629 1611.55 117.477C1556.75 116.891 1510.02 135.914 1480.47 151.973C1463.08 161.368 1447.64 171.665 1432.71 181.623C1429.02 184.086 1425.2 186.632 1421.44 189.112C1407.09 198.557 1393.75 209.296 1379.62 220.667C1353.94 241.35 1327.38 262.737 1290.71 279.715C1269.49 289.538 1246.61 296.906 1220.76 302.24C1169.84 312.747 1118.13 315.505 1069.84 316.922C1040.06 317.795 1008.94 317.646 977.344 316.48C951.396 315.493 925.747 313.805 901.107 311.463C829.871 304.709 760.694 290.761 695.507 270.005C669.401 261.694 642.705 251.812 611.499 238.907C552.189 214.447 508.148 197.218 468.701 183.047C390.243 154.861 330.362 138.279 268.48 127.601C227.051 120.452 183.534 115.539 139.129 112.996C108.322 111.233 75.6282 111.391 33.1255 113.513C24.4161 113.952 15.5052 114.47 6.63831 115.054C-1.73767 115.613 -10.2455 116.254 -19.2554 116.931C-52.521 119.434 -90.2275 122.27 -133.382 121.74C-156.129 121.462 -179.362 120.698 -201.83 119.96C-227.365 119.122 -253.767 118.254 -278.8 118.136C-303.899 118.019 -327.359 118.968 -348.512 120.959C-424.174 128.079 -484.154 143.847 -508.956 163.138L-509.659 162.935C-503.218 157.923 -494.439 153.111 -483.568 148.63C-473.074 144.304 -460.58 140.267 -446.429 136.629C-418.942 129.56 -385.137 124.007 -348.673 120.577C-327.462 118.582 -303.95 117.629 -278.793 117.747C-253.738 117.865 -227.321 118.732 -201.775 119.572C-179.315 120.31 -156.092 121.074 -133.364 121.352C-90.2861 121.881 -52.62 119.047 -19.3909 116.548C-10.3774 115.87 -1.86227 115.23 6.51733 114.669C15.3953 114.086 24.3135 113.568 33.0302 113.126C75.5988 111.003 108.348 110.844 139.221 112.612C183.688 115.158 227.267 120.078 268.755 127.237C330.721 137.929 390.664 154.529 469.192 182.739C508.653 196.915 552.71 214.149 612.034 238.616C643.218 251.511 669.885 261.382 695.962 269.685C761.061 290.411 830.135 304.34 901.264 311.084C925.872 313.422 951.491 315.107 977.403 316.094C1008.96 317.258 1040.04 317.407 1069.78 316.536C1118 315.121 1169.62 312.369 1220.43 301.886C1246.18 296.573 1268.98 289.23 1290.12 279.442C1326.71 262.499 1353.25 241.136 1378.91 220.475C1393.04 209.097 1406.39 198.349 1420.76 188.89C1424.53 186.412 1428.35 183.866 1432.03 181.403C1446.97 171.437 1462.42 161.132 1479.84 151.722C1499.12 141.241 1519.34 132.95 1539.93 127.08C1564.05 120.203 1588.15 116.845 1611.56 117.092C1625.85 117.245 1640.29 118.431 1655.73 120.717C1695.5 126.61 1733.73 139.672 1770.7 152.305C1772.39 152.884 1774.08 153.462 1775.77 154.037C1811.31 166.167 1845.54 180.447 1877.51 196.482C1943.8 229.64 2003.54 271.735 2055.07 321.6L2054.33 321.764Z" fill="#A3CCEF"/>
<path d="M1088.07 316.742C1086.01 316.742 1083.99 316.74 1081.99 316.735C1052.37 316.676 1021.26 315.585 989.542 313.49C963.688 311.749 938.201 309.347 913.788 306.353C878.906 302.082 843.9 295.945 809.733 288.112C776.739 280.547 743.51 271.168 710.966 260.231C679.078 249.516 649.293 237.577 626.906 228.373C574.525 206.894 524.687 188.942 478.777 175.013C404.419 152.455 338.155 138.702 270.235 131.735C229.261 127.532 185.3 125.315 142.973 125.315C142.317 125.315 141.665 125.315 141.009 125.317C104.647 125.376 70.1248 128.569 38.2404 132.012C29.9414 132.915 21.3566 133.9 12.7242 134.944C7.9939 135.523 3.25635 136.118 -1.75604 136.749C-37.1102 141.201 -77.1836 146.246 -125.867 145.832C-155.517 145.579 -185.8 144.128 -215.086 142.724C-233.996 141.816 -253.548 140.879 -272.198 140.313C-297.835 139.535 -321.427 139.785 -342.327 141.058C-417.586 145.636 -480.362 157.939 -510.256 173.969L-510.945 173.683C-495.611 165.462 -472.546 158.345 -442.391 152.526C-413.592 146.97 -379.029 142.855 -342.444 140.63C-321.49 139.355 -297.835 139.102 -272.139 139.883C-253.471 140.45 -233.909 141.388 -214.991 142.296C-185.723 143.7 -155.458 145.152 -125.849 145.403C-77.2899 145.817 -37.2861 140.779 -1.99057 136.335C3.02551 135.703 7.76306 135.107 12.497 134.529C21.1368 133.484 29.7289 132.497 38.0352 131.595C69.9745 128.147 104.556 124.948 141.005 124.888C184.006 124.817 228.755 127.04 270.43 131.316C305.483 134.913 339.467 140.207 374.316 147.502C407.878 154.528 442.21 163.408 479.268 174.653C525.215 188.593 575.089 206.559 627.503 228.05C649.872 237.25 679.635 249.18 711.49 259.883C777.527 282.075 845.666 297.569 914.015 305.939C938.396 308.93 963.849 311.329 989.666 313.067C1021.35 315.159 1052.41 316.25 1081.99 316.307C1128.28 316.398 1182.03 315.66 1234.46 305.676C1260.99 300.622 1283.95 293.233 1304.64 283.086C1340.98 265.266 1365.06 242.393 1388.36 220.273C1400.35 208.895 1411.67 198.147 1423.97 188.844C1427.92 185.863 1431.9 182.793 1435.74 179.823C1448.74 169.788 1462.18 159.415 1477.67 149.826C1495.36 138.794 1514.35 129.846 1534.11 123.23C1557.01 115.56 1580.36 111.269 1603.5 110.475C1617.79 109.985 1632.29 110.486 1647.83 112.006C1689.38 116.069 1730.57 127.873 1772.62 140.649C1809.28 151.788 1845.77 165.98 1878.14 181.693C1914.1 199.096 1947.89 219.513 1978.56 242.374C2005.88 262.742 2030.91 285.162 2052.95 309.013L2052.11 309.186C2004.78 257.966 1946.03 215.173 1877.49 181.996C1845.16 166.306 1808.73 152.134 1772.13 141.014C1730.15 128.261 1689.04 116.48 1647.64 112.431C1632.19 110.919 1617.77 110.422 1603.57 110.908C1561.04 112.368 1516.59 126.282 1478.4 150.089C1462.94 159.661 1449.51 170.026 1436.52 180.05C1432.68 183.021 1428.69 186.094 1424.75 189.074C1412.47 198.36 1401.15 209.099 1389.18 220.467C1377.75 231.32 1365.93 242.544 1352.37 253.333C1336.99 265.565 1321.6 275.395 1305.3 283.387C1284.52 293.579 1261.46 301.002 1234.8 306.079C1211.29 310.558 1186.02 313.518 1157.55 315.132C1133.43 316.491 1109.22 316.742 1088.07 316.742Z" fill="#A3CCEF"/>
<path d="M1146.82 317.61C1128.14 317.61 1110.19 317.083 1094.14 316.55C1064.62 315.57 1033.52 313.535 1001.73 310.501C975.985 308.008 950.659 304.895 926.455 301.242C860.176 291.262 794.74 274.648 726.41 250.457C696.61 239.908 668.518 228.558 642.306 217.838C590.555 196.735 538.929 179.625 488.853 166.979C415.206 148.381 346.301 138.494 272.002 135.865C229.667 134.367 185.025 134.979 142.896 137.632C107.633 139.852 74.3898 145.21 43.3555 150.506C35.5915 151.838 27.3328 153.293 18.814 154.829C16.6851 155.215 14.538 155.608 12.3616 156.005C-23.381 162.537 -63.8245 169.929 -115.729 169.929C-116.605 169.929 -117.477 169.927 -118.36 169.922C-153.476 169.754 -189.328 167.385 -224.005 165.092C-237.752 164.182 -251.968 163.244 -265.609 162.484C-292.254 161.001 -315.33 160.563 -336.16 161.148C-411.921 163.278 -475.869 171.896 -511.601 184.796L-512.213 184.417C-494.549 178.04 -469.007 172.504 -438.357 168.406C-408.21 164.376 -372.892 161.702 -336.223 160.672C-315.334 160.085 -292.199 160.523 -265.496 162.009C-251.84 162.769 -237.62 163.71 -223.869 164.617C-189.226 166.907 -153.406 169.274 -118.356 169.442C-65.3706 169.698 -24.2676 162.184 11.9915 155.556C14.1643 155.16 16.3151 154.766 18.4438 154.379C26.97 152.841 35.2324 151.386 43.0038 150.054C74.0894 144.748 107.395 139.383 142.753 137.156C184.948 134.499 229.664 133.886 272.068 135.386C308.887 136.688 343.992 139.764 379.387 144.786C415.84 149.959 451.799 157.078 489.318 166.555C539.457 179.218 591.149 196.349 642.954 217.472C669.156 228.189 697.23 239.532 727.004 250.07C795.242 274.229 860.579 290.818 926.751 300.783C950.919 304.429 976.212 307.539 1001.92 310.028C1033.67 313.058 1064.72 315.092 1094.2 316.068C1143.8 317.714 1196.57 318.559 1248.48 309.455C1275.8 304.663 1298.91 297.226 1319.15 286.719C1355.19 268.003 1377.63 242.475 1397.42 219.951C1407.38 208.618 1416.79 197.913 1427.17 188.788C1430.92 185.496 1434.69 182.093 1438.33 178.802C1449.74 168.507 1461.53 157.861 1475.48 147.919C1491.63 136.336 1509.39 126.73 1528.28 119.366C1549.97 110.91 1572.56 105.687 1595.43 103.846C1609.73 102.694 1624.28 102.511 1639.92 103.279C1683.61 105.432 1728 116.069 1769.46 127.244C1807.75 137.563 1845.54 151.272 1878.77 166.889C1915.73 184.211 1949.78 204.832 1979.98 228.175C2006.98 249.05 2030.82 272.007 2050.83 296.412L2049.89 296.584C2007.36 244.709 1947.94 199.977 1878.06 167.225C1844.9 151.637 1807.18 137.954 1768.97 127.657C1727.6 116.507 1683.33 105.896 1639.82 103.752C1624.27 102.987 1609.81 103.17 1595.61 104.313C1553.38 107.713 1511.02 123.291 1476.33 148.179C1462.4 158.1 1450.62 168.735 1439.23 179.021C1435.59 182.313 1431.82 185.716 1428.07 189.012C1417.71 198.116 1408.31 208.81 1398.36 220.131C1378.53 242.689 1356.06 268.26 1319.89 287.038C1299.55 297.602 1276.3 305.08 1248.83 309.9C1225 314.08 1199.28 316.501 1170.21 317.296C1162.36 317.521 1154.53 317.61 1146.82 317.61Z" fill="#A3CCEF"/>
<path d="M1183.7 319.485C1183.43 319.485 1183.17 319.485 1182.9 319.485C1156.5 319.454 1130.58 317.927 1106.28 316.365C1076.81 314.47 1045.73 311.49 1013.92 307.51C988.292 304.27 963.128 300.441 939.128 296.132C875.499 284.724 812.818 267.106 741.865 240.684C716.312 231.171 691.166 220.927 666.844 211.023C663.803 209.783 660.758 208.545 657.713 207.307C605.695 186.21 552.277 169.939 498.947 158.949C425.92 143.901 352.269 137.701 273.786 139.996C230.752 141.255 186.15 144.696 144.801 149.947C112.177 154.091 83.1063 160.74 48.4886 169C41.4719 170.682 33.9791 172.497 24.9142 174.714L24.4086 174.838C6.92017 179.144 -12.9021 184.022 -35.1354 187.732C-60.67 191.992 -85.4425 194.043 -110.845 194.018C-150.457 193.972 -190.882 190.487 -229.974 187.115C-239.551 186.289 -249.459 185.435 -259.022 184.663C-286.447 182.452 -309.662 181.335 -329.994 181.25C-404.857 180.938 -471.55 186.182 -512.968 195.634L-513.444 195.167C-493.157 190.536 -465.79 186.778 -434.305 184.298C-402.762 181.812 -366.686 180.579 -329.983 180.732C-309.593 180.817 -286.319 181.935 -258.835 184.152C-249.265 184.925 -239.357 185.778 -229.776 186.604C-190.732 189.971 -150.358 193.452 -110.841 193.499C-110.666 193.499 -110.486 193.499 -110.31 193.499C-53.7853 193.499 -10.722 182.9 23.903 174.378L24.4122 174.253C33.4807 172.035 40.9736 170.22 47.9939 168.538C82.6702 160.263 111.792 153.603 144.519 149.446C185.937 144.185 230.612 140.739 273.72 139.478C312.126 138.356 348.352 139.211 384.476 142.097C423.402 145.205 460.992 150.562 499.387 158.474C552.819 169.485 606.329 185.782 658.431 206.914C661.476 208.152 664.521 209.392 667.562 210.632C691.873 220.533 717.012 230.773 742.542 240.279C813.405 266.668 875.994 284.262 939.517 295.65C963.483 299.954 988.611 303.776 1014.2 307.013C1045.97 310.987 1077 313.963 1106.43 315.854C1159.15 319.245 1210.75 321.596 1262.53 313.256C1290.62 308.729 1313.9 301.246 1333.67 290.377C1369.39 270.743 1388.91 243.538 1406.13 219.533C1414.19 208.296 1421.8 197.679 1430.39 188.759C1433.7 185.326 1437.01 181.776 1440.22 178.342C1450.24 167.605 1460.61 156.504 1473.32 146.037C1487.95 133.898 1504.49 123.632 1522.46 115.524C1542.96 106.283 1564.79 100.131 1587.37 97.2424C1601.37 95.4517 1615.66 94.5789 1631.01 94.5789C1631.34 94.5789 1631.68 94.5789 1632.01 94.5806C1679.74 94.6984 1728.86 104.947 1766.32 113.863C1806.22 123.362 1845.33 136.586 1879.41 152.107C1917.37 169.349 1951.7 190.172 1981.42 214C2008.09 235.383 2030.74 258.879 2048.72 283.838L2047.68 284.006C2020.92 246.868 1969.86 193.906 1878.65 152.482C1844.65 136.996 1805.63 123.803 1765.82 114.327C1728.47 105.436 1679.51 95.2162 1632.01 95.1002C1616.37 95.0569 1601.87 95.9262 1587.66 97.7447C1545.83 103.098 1505.56 120.34 1474.27 146.295C1461.59 156.737 1451.24 167.826 1441.22 178.551C1438.02 181.987 1434.7 185.539 1431.39 188.974C1422.83 197.872 1415.22 208.474 1407.17 219.7C1389.92 243.748 1370.37 271.005 1334.51 290.715C1314.6 301.656 1291.17 309.19 1262.88 313.746C1238.91 317.606 1213 319.485 1183.7 319.485Z" fill="#A3CCEF"/>
<path d="M1213.03 321.923C1207.34 321.923 1201.53 321.837 1195.58 321.664C1169.53 320.907 1144.22 318.636 1118.43 316.177C1088.53 313.327 1058.33 309.513 1026.11 304.519C1000.61 300.532 975.611 295.991 951.799 291.019C891.39 278.425 831.41 259.886 757.32 230.909C738.919 223.714 720.526 216.166 702.737 208.867C693.053 204.894 683.043 200.784 673.124 196.772C620.487 175.533 565.285 160.105 509.049 150.916C434.746 138.775 358.381 136.551 275.581 144.119C231.837 148.118 187.275 154.389 146.718 162.253C114.137 168.571 85.7557 177.443 55.707 186.836L53.6295 187.486C48.9359 188.958 44.191 190.45 39.3875 191.961C36.6212 192.832 33.8365 193.708 31.0262 194.591C13.5048 200.128 -5.41986 205.903 -27.1219 210.349C-52.3193 215.51 -77.2421 218.049 -103.323 218.111C-146.741 218.212 -191.028 213.442 -233.853 208.825C-239.965 208.165 -246.289 207.485 -252.426 206.839C-281.2 203.808 -303.884 202.064 -323.823 201.347C-397.404 198.703 -466.845 200.566 -514.345 206.461L-514.649 205.917C-467.024 200.007 -397.441 198.136 -323.732 200.786C-303.737 201.505 -280.995 203.254 -252.166 206.29C-246.025 206.937 -239.701 207.618 -233.586 208.278C-191.285 212.838 -147.558 217.55 -104.715 217.55C-104.253 217.55 -103.792 217.55 -103.326 217.548C-47.9115 217.417 -8.46469 206.392 30.3703 194.124C33.1806 193.24 35.9653 192.364 38.7316 191.493C43.5352 189.981 48.2764 188.49 52.9737 187.016L55.0512 186.367C85.1511 176.958 113.58 168.07 146.267 161.732C186.897 153.852 231.536 147.571 275.358 143.565C358.366 135.978 434.937 138.208 509.441 150.383C565.816 159.596 621.146 175.058 673.901 196.344C683.819 200.358 693.833 204.466 703.517 208.441C721.299 215.738 739.688 223.284 758.078 230.475C832.08 259.419 891.976 277.932 952.279 290.505C976.058 295.468 1001.02 300.004 1026.48 303.983C1058.65 308.971 1088.81 312.779 1118.67 315.625C1163.99 319.946 1220.4 325.325 1276.57 317.04C1305.45 312.781 1328.88 305.251 1348.19 294.019C1383.57 273.445 1399.97 244.508 1414.45 218.979C1420.74 207.888 1426.68 197.412 1433.61 188.719C1436.31 185.331 1439.02 181.828 1441.63 178.439C1450.41 167.073 1459.49 155.32 1471.15 144.143C1484.3 131.44 1499.61 120.514 1516.64 111.668C1535.94 101.644 1557.03 94.5664 1579.3 90.63C1593.6 88.1032 1608.25 86.5463 1624.1 85.8692C1645.32 84.9617 1667.91 85.9315 1693.16 88.8271C1714.52 91.2794 1737.42 95.0859 1763.17 100.467C1804.7 109.145 1845.11 121.886 1880.04 137.311C1919.02 154.472 1953.61 175.501 1982.85 199.813C2009.18 221.705 2030.64 245.739 2046.61 271.25L2045.47 271.41C2011.74 217.55 1952.7 170.072 1879.23 137.723C1844.39 122.34 1804.09 109.635 1762.68 100.983C1707.2 89.39 1663.21 84.7643 1624.21 86.4303C1608.46 87.1022 1593.92 88.6488 1579.72 91.1564C1526.72 100.52 1492 125.275 1472.22 144.391C1460.59 155.54 1451.52 167.279 1442.75 178.631C1440.13 182.022 1437.42 185.527 1434.72 188.916C1427.81 197.584 1421.88 208.047 1415.6 219.124C1401.1 244.708 1384.66 273.706 1349.11 294.374C1329.65 305.695 1306.03 313.285 1276.92 317.578C1257.19 320.488 1236.15 321.923 1213.03 321.923Z" fill="#A3CCEF"/>
<path d="M1238.43 324.719C1199.68 324.719 1162.43 320.013 1130.56 315.989C1100.58 312.203 1070.4 307.472 1038.28 301.526C1012.93 296.798 988.094 291.544 964.461 285.907C893.617 269.029 830.461 244.802 772.767 221.135C760.987 216.303 749.086 211.323 737.581 206.506C721.606 199.818 705.085 192.903 688.531 186.239C635.106 164.79 578.119 150.203 519.158 142.883C442.884 133.415 363.796 135.166 277.376 148.238C232.88 154.967 188.363 164.068 148.634 174.556C117.991 182.644 92.0648 192.854 64.6176 203.664C62.672 204.43 60.7227 205.199 58.7625 205.968L57.6999 206.387C51.0277 209.018 44.1284 211.736 37.1337 214.466C20.3745 221.035 1.91882 227.829 -19.4278 233.019C-44.2076 239.044 -69.1889 242.049 -95.808 242.204C-142.532 242.48 -190.153 236.271 -236.202 230.267C-239.43 229.846 -242.644 229.427 -245.842 229.013C-276.21 225.075 -298.363 222.74 -317.665 221.442C-389.399 216.617 -461.595 215.1 -515.742 217.28L-515.852 216.676C-461.617 214.49 -389.315 216.009 -317.485 220.841C-298.128 222.143 -275.928 224.483 -245.505 228.428C-242.307 228.842 -239.093 229.261 -235.862 229.683C-189.9 235.675 -142.37 241.868 -95.8263 241.598C-38.019 241.259 2.69189 227.174 36.313 213.998C43.3076 211.269 50.2069 208.55 56.8791 205.921L57.9417 205.502C59.9019 204.731 61.8513 203.964 63.7968 203.199C91.2916 192.37 117.262 182.141 148.007 174.026C187.809 163.519 232.411 154.403 276.984 147.661C317.955 141.464 356.439 137.886 394.629 136.723C437.23 135.426 479.235 137.301 519.48 142.297C578.629 149.64 635.784 164.269 689.359 185.776C705.924 192.444 722.449 199.361 738.428 206.051C749.933 210.867 761.826 215.846 773.602 220.676C831.237 244.317 894.317 268.518 965.033 285.365C988.633 290.993 1013.43 296.241 1038.75 300.962C1070.81 306.898 1100.95 311.623 1130.89 315.403C1176.86 321.208 1234.07 328.434 1290.6 320.831C1320.26 316.841 1343.84 309.264 1362.69 297.668C1397.71 276.126 1410.81 245.408 1422.37 218.305C1427.01 207.416 1431.4 197.13 1436.81 188.684C1438.81 185.56 1440.82 182.332 1442.76 179.209C1450.36 166.997 1458.22 154.366 1468.96 142.256C1480.66 128.978 1494.73 117.389 1510.79 107.813C1528.91 97.0085 1549.24 89.004 1571.21 84.0216C1585.48 80.7865 1600.18 78.5438 1616.16 77.1636C1637.69 75.3053 1661.58 75.3677 1687.17 77.3489C1709.57 79.0842 1734.07 82.3556 1759.99 87.0748C1803.14 94.9321 1844.86 107.188 1880.66 122.518C1920.65 139.599 1955.51 160.831 1984.27 185.628C2010.25 208.029 2030.52 232.603 2044.49 258.667L2043.24 258.816C2013.64 203.588 1955.6 155.343 1879.8 122.969C1844.12 107.689 1802.53 95.4724 1759.53 87.6411C1703.79 77.4909 1656.97 74.2576 1616.39 77.7611C1600.53 79.1309 1585.93 81.3581 1571.77 84.5688C1519.49 96.4232 1487.65 122.608 1470.15 142.49C1459.43 154.569 1451.58 167.182 1443.99 179.379C1442.05 182.502 1440.04 185.731 1438.04 188.859C1432.65 197.278 1428.26 207.549 1423.63 218.425C1418.06 231.464 1411.76 246.241 1402.61 260.096C1392.13 275.97 1379.4 288.38 1363.71 298.037C1354.64 303.62 1344.21 308.372 1332.71 312.161C1320.35 316.236 1306.3 319.35 1290.95 321.414C1273.38 323.778 1255.75 324.719 1238.43 324.719Z" fill="#A3CCEF"/>
<path d="M1261.33 327.785C1248.52 327.785 1235.1 327.197 1220.92 326.021C1193 323.705 1166.28 319.504 1142.7 315.8C1112.98 311.129 1081.94 305.319 1050.46 298.532C1025.27 293.069 1000.6 287.102 977.124 280.791C909.754 262.698 851.712 238.642 788.214 211.359C782.572 208.934 776.841 206.461 771.301 204.068C749.482 194.648 726.923 184.908 703.938 175.706C649.626 154.006 590.859 140.26 529.267 134.85C451.575 128.025 367.427 133.913 279.172 152.354C233.884 161.816 189.407 173.745 150.55 186.853C121.293 196.723 97.209 208.359 71.7111 220.679C69.1207 221.931 66.5192 223.187 63.9031 224.448C57.3921 227.589 50.3792 230.961 43.2453 234.336C28.2851 241.439 10.053 249.531 -11.7297 255.685C-36.1137 262.574 -61.1573 266.046 -88.2858 266.297C-137.948 266.76 -188.5 258.987 -237.39 251.471L-239.251 251.185C-263.188 247.507 -288.51 243.79 -311.498 241.534C-381.569 234.657 -454.596 229.882 -517.123 228.09L-517.039 227.442C-454.446 229.236 -381.353 234.014 -311.22 240.898C-288.166 243.162 -262.8 246.883 -238.826 250.567L-236.965 250.853C-188.182 258.352 -137.732 266.105 -88.3114 265.646C-31.2369 265.116 8.1806 250.063 42.2744 233.874C49.4082 230.5 56.4138 227.129 62.9248 223.989C65.5409 222.73 68.1423 221.472 70.7328 220.222C96.2747 207.881 120.402 196.224 149.755 186.322C188.685 173.188 233.247 161.236 278.618 151.756C320.026 143.106 360.773 137.145 399.722 134.041C444.225 130.496 487.896 130.552 529.523 134.208C591.35 139.639 650.334 153.433 704.829 175.207C727.831 184.418 750.402 194.162 772.232 203.586C777.772 205.978 783.503 208.451 789.145 210.875C852.58 238.133 910.56 262.163 977.809 280.224C1001.25 286.525 1025.89 292.484 1051.04 297.939C1082.48 304.716 1113.46 310.517 1143.14 315.181C1189.66 322.493 1247.56 331.59 1304.65 324.62C1335.1 320.901 1358.84 313.28 1377.22 301.316C1411.85 278.777 1421.87 244.804 1429.92 217.505C1433.06 206.871 1436.02 196.829 1440.03 188.654C1441.3 186.077 1442.58 183.423 1443.81 180.854C1450.22 167.512 1456.86 153.715 1466.81 140.373C1482.17 119.61 1511.35 91.8352 1563.14 77.4213C1577.45 73.4415 1592.2 70.5113 1608.25 68.4643C1650.24 63.0316 1700.23 64.7894 1756.84 73.6857C1801.61 80.7221 1844.64 92.4933 1881.3 107.728C1922.3 124.728 1957.43 146.164 1985.71 171.447C1998.69 183.043 2010.15 195.429 2019.8 208.26C2029.01 220.516 2036.61 233.244 2042.38 246.089L2041.04 246.224C2015.59 189.624 1958.53 140.612 1880.39 108.215C1843.87 93.0371 1801 81.3109 1756.4 74.3005C1700.06 65.444 1650.33 63.6914 1608.61 69.0895C1592.68 71.1209 1578.03 74.0286 1563.84 77.9789C1512.41 92.2924 1483.39 119.925 1468.1 140.586C1458.18 153.893 1451.56 167.672 1445.15 180.996C1443.91 183.565 1442.64 186.221 1441.37 188.8C1437.37 196.946 1434.41 206.975 1431.28 217.593C1427.23 231.33 1422.64 246.899 1414.79 261.594C1405.77 278.479 1393.84 291.597 1378.33 301.697C1369.48 307.459 1359.12 312.319 1347.56 316.139C1335.1 320.256 1320.78 323.321 1304.99 325.247C1291.14 326.94 1276.67 327.785 1261.33 327.785Z" fill="#A3CCEF"/>
<path d="M1282.44 331.025C1267.08 331.025 1250.89 330.084 1233.6 328.198C1205.58 325.145 1178.62 320.078 1154.83 315.606C1124.88 309.978 1093.87 303.225 1062.64 295.534C1037.62 289.343 1013.1 282.662 989.787 275.674C925.622 256.459 870.589 231.694 812.323 205.478C809.44 204.181 806.556 202.882 803.665 201.583C776.57 189.405 748.555 176.811 719.349 165.173C664.092 143.198 603.544 130.292 539.387 126.815C458.8 122.446 371.857 132.423 280.967 156.466C235.504 168.491 189.868 183.65 152.466 199.148C124.224 210.85 101.573 224.017 77.5916 237.958C74.7519 239.609 71.905 241.264 69.036 242.923C63.3055 246.243 56.4868 250.18 49.3492 254.206C36.1295 261.682 18.1171 271.183 -4.03552 278.33C-28.0312 286.073 -53.1298 290.02 -80.7675 290.392C-103.484 290.661 -128.554 289.004 -157.412 285.323C-182.188 282.165 -206.154 278.036 -232.674 273.36C-256.882 269.039 -282.432 264.576 -305.354 261.629C-373.252 252.897 -444.971 245.251 -518.516 238.899L-518.252 238.218C-444.664 244.572 -372.904 252.225 -304.969 260.96C-281.985 263.916 -256.399 268.386 -232.161 272.711C-187.709 280.551 -132.386 290.311 -80.8078 289.7C-21.839 288.903 16.058 271.956 48.2244 253.759C55.3583 249.736 62.1733 245.802 67.9002 242.483C70.7691 240.824 73.6161 239.169 76.452 237.52C100.473 223.556 123.165 210.367 151.499 198.627C188.978 183.097 234.701 167.909 280.252 155.861C371.417 131.746 458.661 121.743 539.555 126.127C570.571 127.809 601.037 131.714 630.101 137.734C661.285 144.192 691.63 153.248 720.294 164.645C749.533 176.295 777.567 188.896 804.677 201.082C807.568 202.383 810.455 203.68 813.338 204.977C871.549 231.171 926.535 255.912 990.574 275.09C1013.86 282.068 1038.33 288.74 1063.32 294.921C1094.5 302.6 1125.47 309.344 1155.37 314.964C1202.37 323.796 1260.86 334.788 1318.69 328.413C1350.02 324.96 1373.91 317.291 1391.73 304.971C1426.05 281.439 1432.16 245.492 1437.07 216.608C1438.83 206.278 1440.49 196.521 1443.24 188.631C1443.81 187.003 1444.38 185.366 1444.95 183.721C1450.08 168.86 1455.4 153.492 1464.63 138.494C1477.82 116.923 1504.2 87.6724 1555.06 70.8252C1569.25 66.1251 1584.05 62.509 1600.32 59.7693C1622.93 55.9264 1648.13 54.1201 1675.21 54.3972C1699.93 54.65 1726.33 56.6364 1753.67 60.2992C1800.05 66.5113 1844.4 77.7975 1881.92 92.9371C1923.93 109.854 1959.33 131.498 1987.14 157.266C1999.9 169.089 2010.94 181.729 2019.97 194.836C2028.62 207.388 2035.45 220.401 2040.26 233.513L2038.82 233.63C2017.84 176.496 1960.3 125.407 1880.97 93.4636C1843.61 78.3898 1799.45 67.1503 1753.27 60.9625C1696.32 53.3321 1643.61 53.1451 1600.81 60.4187C1584.66 63.1377 1569.97 66.726 1555.9 71.3898C1505.39 88.1209 1479.15 117.221 1466.04 138.685C1456.83 153.643 1451.52 168.988 1446.39 183.83C1445.82 185.475 1445.25 187.114 1444.69 188.741C1441.94 196.602 1440.29 206.347 1438.53 216.662C1433.6 245.628 1427.47 281.68 1392.93 305.362C1384.34 311.301 1374.07 316.271 1362.41 320.131C1349.86 324.284 1335.26 327.298 1319.02 329.088C1307.3 330.377 1295.16 331.025 1282.44 331.025Z" fill="#A3CCEF"/>
<path d="M1302.27 334.397C1284.77 334.397 1266.24 333.06 1246.27 330.375C1218.01 326.577 1190.88 320.646 1166.95 315.414C1136.71 308.802 1105.71 301.104 1074.81 292.538C1049.97 285.629 1025.62 278.232 1002.44 270.558C945.365 251.667 896.586 228.525 844.941 204.023C836.499 200.018 827.768 195.877 819.106 191.805C788.658 177.5 762.658 165.705 734.749 154.64C678.507 132.374 616.182 120.309 549.5 118.778C465.711 116.854 375.961 130.916 282.748 160.574C236.442 175.308 190.847 193.371 154.365 211.437C126.881 225.048 105.395 239.863 82.6486 255.549C79.831 257.492 77.0024 259.442 74.1554 261.393C69.0844 264.876 62.3719 269.465 55.4433 274.067C26.285 293.477 -11.8099 313.461 -73.2592 314.482C-75.1755 314.512 -77.0991 314.526 -79.019 314.526C-127.003 314.526 -175.991 305.55 -226.108 295.528L-229.237 294.897C-254.06 289.889 -277.51 285.159 -299.216 281.716C-381.015 268.742 -460.125 257.789 -519.907 249.698L-519.479 248.99C-459.682 257.085 -380.55 268.038 -298.721 281.018C-276.957 284.47 -253.481 289.206 -228.625 294.22L-225.499 294.85C-173.547 305.24 -122.811 314.507 -73.3141 313.748C-12.5464 312.737 25.2297 292.907 54.1719 273.643C61.0969 269.045 67.802 264.459 72.873 260.978C75.72 259.024 78.5449 257.076 81.3625 255.133C104.145 239.424 125.664 224.584 153.236 210.93C189.792 192.825 235.479 174.726 281.876 159.962C324.939 146.26 368.017 135.739 409.912 128.689C457.98 120.6 504.971 117.018 549.573 118.042C616.599 119.58 679.24 131.704 735.746 154.074C763.695 165.156 789.721 176.964 820.198 191.281C828.864 195.352 837.595 199.495 846.04 203.5C897.634 227.978 946.365 251.098 1003.33 269.95C1026.48 277.615 1050.79 285 1075.59 291.899C1106.45 300.455 1137.4 308.14 1167.6 314.742C1215.01 325.107 1274.01 338.006 1332.73 332.199C1364.82 329.024 1388.87 321.311 1406.23 308.618C1440.11 284.014 1442.15 246.044 1443.79 215.535C1444.32 205.58 1444.83 196.176 1446.45 188.6L1446.48 188.427C1450.11 171.46 1453.85 153.917 1462.45 136.607C1469.89 121.509 1480.25 107.935 1493.25 96.259C1507.91 83.0954 1525.98 72.3166 1546.96 64.2203C1561 58.8032 1575.86 54.4996 1592.37 51.0654C1636.99 41.7326 1691.66 40.2917 1750.49 46.9021C1774.16 49.5622 1797.51 53.5921 1819.9 58.8776C1842.41 64.1943 1863.49 70.6765 1882.54 78.1407C1925.57 94.9757 1961.24 116.824 1988.56 143.081C2013.12 166.68 2030.26 193.601 2038.14 220.931L2036.6 221.03C2019.74 162.536 1963.23 110.661 1881.54 78.707C1843.35 63.7406 1797.9 52.9894 1750.13 47.6225C1691.64 41.0503 1637.31 42.4755 1593.01 51.7443C1576.62 55.1525 1561.89 59.4214 1547.95 64.7953C1508.77 79.9123 1479.73 104.804 1463.97 136.778C1455.4 154.043 1451.66 171.562 1448.04 188.505L1448 188.678C1446.39 196.227 1445.88 205.617 1445.35 215.557C1443.7 246.16 1441.66 284.245 1407.53 309.022C1399.16 315.142 1388.96 320.22 1377.23 324.113C1364.58 328.311 1349.72 331.274 1333.04 332.925C1323.11 333.905 1312.88 334.397 1302.27 334.397Z" fill="#A3CCEF"/>
<path d="M-72.1202 338.637C-93.5767 338.637 -116.942 336.661 -143.312 332.626C-169.514 328.617 -195.426 323.082 -219.527 317.699C-223.891 316.719 -228.222 315.741 -232.524 314.769C-253.936 309.932 -274.162 305.364 -293.064 301.805C-368.437 287.619 -440.281 274.87 -509.762 262.543L-521.274 260.499L-520.696 259.77L-509.183 261.814C-439.699 274.144 -367.843 286.894 -292.456 301.083C-273.502 304.65 -253.251 309.224 -231.813 314.068C-227.515 315.039 -223.184 316.018 -218.824 316.996C-169.349 328.045 -116.785 338.753 -65.8034 337.799C-3.13397 336.566 34.4223 313.491 60.1364 293.528C66.7243 288.423 73.0704 283.335 77.8629 279.473C80.5083 277.345 83.1354 275.218 85.7552 273.096C107.483 255.51 128.005 238.898 154.994 223.236C190.62 202.564 236.262 181.551 283.521 164.068C327.365 147.848 371.608 135.032 415.026 125.978C464.828 115.592 513.471 110.203 559.605 109.959C629.024 109.47 693.499 120.758 751.215 143.506C783.209 156.131 811.895 169.788 835.74 181.483C848.715 187.847 861.689 194.371 874.238 200.68C918.657 223.016 964.589 246.109 1016.1 264.815C1039.11 273.173 1063.27 281.271 1087.88 288.882C1118.35 298.281 1149.29 306.909 1179.85 314.525C1227.61 326.43 1287.05 341.245 1346.77 335.988C1379.64 333.094 1403.84 325.335 1420.74 312.269C1454.18 286.549 1451.92 246.499 1450.1 214.318C1449.57 204.802 1449.06 195.812 1449.67 188.575C1451.04 172.259 1453.11 153.298 1460.28 134.726C1466.33 118.989 1475.45 104.751 1487.4 92.4102C1500.92 78.45 1518.25 66.7464 1538.89 57.6231C1552.57 51.5773 1567.9 46.4459 1584.45 42.3692C1608.06 36.533 1634.57 32.8633 1663.22 31.4639C1690.06 30.153 1718.35 30.8422 1747.32 33.511C1771.74 35.7623 1795.82 39.465 1818.88 44.5184C1842.08 49.6031 1863.71 55.9381 1883.17 63.3468C1905.6 71.8777 1926.22 81.9518 1944.47 93.29C1961.75 104.032 1977.07 116.013 1990 128.898C2014.19 153.003 2030.11 180.48 2036.03 208.354L2034.39 208.432C2021.67 148.575 1966.18 95.9154 1882.13 63.9547C1843.64 49.3 1795.66 38.7601 1747 34.2764C1686.84 28.7329 1630.9 31.7705 1585.21 43.0602C1568.79 47.104 1553.58 52.1956 1540.01 58.1929C1501.12 75.3829 1474.83 101.178 1461.9 134.866C1454.75 153.388 1452.68 172.316 1451.31 188.606C1450.71 195.817 1451.21 204.793 1451.75 214.298C1452.64 230.173 1453.66 248.169 1450.26 265.565C1446.31 285.751 1437.12 301.161 1422.15 312.675C1414 318.976 1403.88 324.163 1392.07 328.09C1379.32 332.333 1364.18 335.248 1347.08 336.753C1338.45 337.513 1329.83 337.858 1321.26 337.858C1269.93 337.858 1220.2 325.462 1179.08 315.213C1148.48 307.584 1117.49 298.944 1086.99 289.531C1062.33 281.91 1038.14 273.8 1015.1 265.43C963.483 246.686 917.503 223.568 873.04 201.212C860.495 194.905 847.524 188.383 834.557 182.022C810.744 170.34 782.099 156.702 750.163 144.102C692.759 121.475 628.661 110.253 559.631 110.735C451.223 111.31 350.199 140.385 284.539 164.677C237.376 182.126 191.825 203.094 156.277 223.724C129.368 239.34 108.875 255.925 87.1805 273.484C84.5607 275.606 81.9299 277.732 79.2845 279.863C74.4883 283.726 68.1386 288.818 61.5471 293.929C50.7528 302.309 33.8067 314.508 11.3609 323.652C0.460388 328.092 -11.1399 331.582 -23.1176 334.025C-36.4729 336.75 -50.8139 338.28 -65.7338 338.573C-67.8479 338.616 -69.9767 338.637 -72.1202 338.637Z" fill="#A3CCEF"/>
<path d="M-65.2311 362.748C-86.7133 362.748 -110.031 360.62 -136.262 356.276C-163.42 351.781 -190.27 345.459 -212.95 339.867C-219.919 338.146 -226.873 336.4 -233.6 334.712C-252.404 329.992 -270.167 325.533 -286.915 321.893C-347.06 308.817 -406.813 296.052 -464.602 283.706C-483.717 279.622 -503.481 275.4 -522.637 271.299L-521.919 270.549C-502.763 274.65 -482.999 278.873 -463.884 282.956C-406.095 295.302 -346.335 308.069 -286.186 321.146C-269.394 324.797 -251.609 329.26 -232.783 333.986C-226.06 335.675 -219.105 337.419 -212.144 339.14C-165.105 350.733 -110.544 363.004 -58.2988 361.849C5.84723 360.398 41.8755 335.202 66.1021 313.414C72.3126 307.832 78.318 302.228 82.854 297.969C85.1843 295.784 87.5 293.6 89.812 291.421C110.594 271.826 130.222 253.318 156.757 235.544C191.269 212.428 236.875 188.503 285.167 168.176C352.42 139.991 456.364 105.611 569.634 101.882C641.669 99.4472 707.969 109.897 766.685 132.944C793.066 143.304 819.154 155.253 851.28 171.694C867.516 180.001 883.626 188.612 899.206 196.937C939.741 218.597 981.65 240.994 1028.88 259.689C1051.75 268.748 1075.74 277.558 1100.17 285.874C1129.76 295.934 1160.68 305.505 1192.09 314.319C1240.34 327.777 1300.38 344.529 1360.82 339.788C1393.95 337.242 1418.99 329.215 1435.25 315.932C1468.22 289.049 1461.15 245.067 1455.98 212.954C1454.53 203.942 1453.16 195.43 1452.89 188.563C1452.29 173.302 1452.34 153.18 1458.12 132.857C1468.09 97.6409 1492.55 70.1119 1530.81 51.0393C1544.22 44.3198 1559.61 38.4819 1576.52 33.6865C1600.59 26.8562 1627.74 22.2616 1657.23 20.0328C1685.02 17.9338 1714.26 17.9667 1744.14 20.1315C1769.36 21.9984 1794.16 25.3824 1817.85 30.1864C1841.78 35.039 1863.96 41.2216 1883.8 48.5628C1906.73 57.0453 1927.68 67.1539 1946.06 78.6099C1963.49 89.4667 1978.75 101.617 1991.44 114.727C2015.26 139.34 2029.95 167.371 2033.92 195.79L2032.18 195.844C2023.62 134.62 1969.15 81.1747 1882.73 49.2122C1843.55 34.7117 1794.23 24.6723 1743.88 20.9455C1681.81 16.4514 1624.25 21.1013 1577.42 34.393C1560.64 39.1486 1545.39 44.9398 1532.08 51.6056C1494.07 70.5517 1469.77 97.9249 1459.85 132.968C1454.09 153.236 1454.04 173.318 1454.63 188.549C1454.91 195.392 1456.27 203.893 1457.72 212.894C1460.39 229.493 1463.42 248.309 1461.69 266.679C1459.67 288.069 1451.52 304.315 1436.76 316.346C1428.82 322.835 1418.78 328.134 1406.91 332.097C1394.05 336.393 1378.64 339.254 1361.11 340.602C1333.92 342.733 1304.66 340.818 1271.65 334.745C1242.96 329.464 1215.47 321.796 1191.21 315.031C1159.76 306.204 1128.79 296.62 1099.16 286.546C1074.69 278.218 1050.67 269.396 1027.76 260.325C980.437 241.592 938.48 219.17 897.905 197.487C882.333 189.164 866.226 180.559 850.005 172.258C817.934 155.847 791.894 143.92 765.575 133.585C707.207 110.669 641.328 100.282 569.751 102.701C456.969 106.416 353.369 140.691 286.317 168.791C238.121 189.076 192.61 212.951 158.172 236.019C131.71 253.742 112.111 272.224 91.3619 291.79C89.0499 293.971 86.7343 296.154 84.4039 298.34C79.8642 302.602 73.8552 308.211 67.6373 313.798C43.1983 335.78 6.80725 361.202 -58.2218 362.672C-60.5338 362.722 -62.8752 362.748 -65.2311 362.748Z" fill="#A3CCEF"/>
<path d="M-58.2038 386.86C-116.901 386.86 -178.49 369.821 -233.088 354.714C-249.865 350.073 -265.712 345.688 -280.771 341.98L-524 282.099L-523.154 281.331L-279.925 341.213C-264.825 344.929 -248.96 349.319 -232.161 353.967C-175.452 369.658 -111.175 387.442 -50.7951 385.901C14.7652 384.229 49.3023 356.912 72.0669 333.302C79.5122 325.579 86.701 317.722 93.6553 310.123C112.675 289.341 132.34 267.851 158.512 247.85C179.294 231.969 205.111 215.314 233.17 199.688C263.952 182.545 296.91 166.816 331.121 152.941C368.842 137.644 407.197 124.99 445.116 115.331C487.058 104.649 528.377 97.6752 567.934 94.6013C647.176 88.4446 719.247 97.7878 782.14 122.374C834.407 142.805 878.83 168.069 921.79 192.501C959.185 213.768 997.852 235.757 1041.64 254.554C1092.21 276.264 1146.95 296.3 1204.33 314.101C1252.68 329.1 1312.85 347.769 1374.86 343.573C1427.24 340.03 1457.52 323.467 1467.43 292.935C1475.87 266.964 1467.84 236.157 1461.4 211.404C1459.2 202.968 1457.13 195 1456.11 188.539C1450.49 152.919 1454.07 123.514 1467.06 98.6468C1475.16 83.1314 1487.12 69.3011 1502.6 57.5403C1519.89 44.4027 1542.09 33.4506 1568.59 24.989C1591.5 17.6685 1617.33 12.3519 1645.36 9.18609C1672.04 6.17272 1700.12 5.16307 1728.84 6.18484C1785.32 8.19376 1840.57 17.9889 1884.41 33.7641C1907.84 42.1963 1929.12 52.3414 1947.65 63.9151C1965.21 74.8845 1980.42 87.2064 1992.86 100.541C2016.3 125.661 2029.76 154.249 2031.79 183.21L2029.96 183.239C2025.64 121.566 1970.81 65.9448 1883.3 34.4551C1790.36 1.01362 1658.43 -2.66649 1569.6 25.7077C1481.61 53.8151 1445.08 107.057 1457.93 188.475C1458.94 194.915 1461.02 202.873 1463.21 211.298C1469.67 236.105 1477.71 266.978 1469.24 293.066C1464.62 307.276 1455.35 318.695 1441.67 327.01C1433.97 331.684 1424.7 335.505 1414.1 338.362C1402.82 341.403 1389.7 343.445 1375.12 344.432C1369.16 344.836 1363.09 345.038 1356.93 345.038C1334.45 345.038 1310.52 342.352 1284.29 336.911C1254.74 330.78 1226.23 321.934 1203.32 314.827C1145.86 296.999 1091.05 276.938 1040.4 255.197C996.515 236.359 957.808 214.345 920.372 193.055C877.467 168.654 833.099 143.421 780.964 123.043C718.492 98.6243 646.915 89.3417 568.22 95.4568C409.032 107.825 245.053 183.361 160.058 248.307C133.956 268.253 114.317 289.713 95.3224 310.468C88.3644 318.07 81.172 325.933 73.7194 333.662C58.6053 349.337 43.678 360.561 26.743 368.981C16.1722 374.235 4.70386 378.378 -7.34344 381.292C-20.7391 384.532 -35.3293 386.375 -50.7108 386.768C-53.195 386.829 -55.6976 386.86 -58.2038 386.86Z" fill="#A3CCEF"/>
</g>
</svg>
